<svg width="190" height="34" viewBox="0 0 190 34" fill="none" xmlns="http://www.w3.org/2000/svg">
<g clip-path="url(#clip0_7296_21653)">
<path d="M14.7758 13.0851H15.6923V14.9181H13.8592V14.0016H12.9427V13.0851H9.27657V14.0016H8.36004V21.3339H9.27657V22.2504H12.9427V21.3339H13.8592V18.5843H11.1096V16.7512H15.6923V22.2504H14.7758V23.1669H13.8592V24.0835H8.36004V23.1669H7.44351V22.2504H6.52698V13.0851H7.44351V12.1685H8.36004V11.252H13.8592V12.1685H14.7758V13.0851ZM26.6907 11.252V13.0851H19.3584V16.7512H24.8576V18.5843H19.3584V22.2504H26.6907V24.0835H17.5254V11.252H26.6907ZM32.1899 13.0851H28.5237V11.252H37.6891V13.0851H34.0229V24.0835H32.1899V13.0851ZM58.7693 13.0851H59.6858V14.9181H57.8528V14.0016H56.9362V13.0851H53.2701V14.0016H52.3536V15.8347H53.2701V16.7512H57.8528V17.6677H58.7693V18.5843H59.6858V22.2504H58.7693V23.1669H57.8528V24.0835H52.3536V23.1669H51.437V22.2504H50.5205V20.4173H52.3536V21.3339H53.2701V22.2504H56.9362V21.3339H57.8528V19.5008H56.9362V18.5843H52.3536V17.6677H51.437V16.7512H50.5205V13.0851H51.437V12.1685H52.3536V11.252H57.8528V12.1685H58.7693V13.0851ZM65.185 13.0851H61.5189V11.252H70.6842V13.0851H67.0181V24.0835H65.185V13.0851ZM74.3504 18.5843H79.8495V15.8347H78.933V14.9181H78.0165V14.0016H76.1834V14.9181H75.2669V15.8347H74.3504V18.5843ZM74.3504 24.0835H72.5173V14.9181H73.4338V14.0016H74.3504V13.0851H75.2669V12.1685H76.1834V11.252H78.0165V12.1685H78.933V13.0851H79.8495V14.0016H80.7661V14.9181H81.6826V24.0835H79.8495V20.4173H74.3504V24.0835ZM85.3487 13.0851V16.7512H89.9314V15.8347H90.8479V14.0016H89.9314V13.0851H85.3487ZM86.2653 18.5843H85.3487V24.0835H83.5157V11.252H90.8479V12.1685H91.7645V13.0851H92.681V16.7512H91.7645V17.6677H90.8479V18.5843H89.0149V19.5008H89.9314V20.4173H90.8479V21.3339H91.7645V22.2504H92.681V24.0835H90.8479V23.1669H89.9314V22.2504H89.0149V21.3339H88.0983V20.4173H87.1818V19.5008H86.2653V18.5843ZM98.1802 13.0851H94.5141V11.252H103.679V13.0851H100.013V24.0835H98.1802V13.0851ZM114.678 11.252V13.0851H107.346V16.7512H112.845V18.5843H107.346V22.2504H114.678V24.0835H105.512V11.252H114.678ZM118.344 13.0851V22.2504H122.927V21.3339H123.843V14.0016H122.927V13.0851H118.344ZM116.511 24.0835V11.252H123.843V12.1685H124.76V13.0851H125.676V22.2504H124.76V23.1669H123.843V24.0835H116.511Z" fill="#09BD1B"/>
<path d="M181.758 22.5564H179.746V20.8624V19.1677H177.735H175.724H173.712H171.702H169.691H167.679H165.668H163.658V17.4729V15.7782V14.0843H165.668H167.679H169.691L171.702 14.0843H173.712H175.724H177.735H179.746V12.3895V10.6948H181.758V9H179.746H177.735V10.6948V12.3895H175.724H173.712L171.702 12.3895H169.691H167.679H165.668H163.658H161.646V14.0843V15.7782V17.4729V19.1677V20.8624H163.658H165.668H167.679H169.691H171.702H173.712H175.724H177.735V22.5564V24.2511H179.746H181.758V22.5564Z" fill="#09BD1B"/>
<path d="M183.773 22.5572V20.8633H181.763V22.5572H183.773Z" fill="#09BD1B"/>
<path d="M185.781 20.8627V19.168H183.77V20.8627H185.781Z" fill="#09BD1B"/>
<path d="M187.797 19.1674V17.4727H185.786V19.1674H187.797Z" fill="#09BD1B"/>
<path d="M189.805 17.4721V15.7773H187.793V17.4721H189.805Z" fill="#09BD1B"/>
<path d="M187.797 15.7798V14.0859H185.786V15.7798H187.797Z" fill="#09BD1B"/>
<path d="M185.781 14.0854V12.3906H183.77V14.0854H185.781Z" fill="#09BD1B"/>
<path d="M183.773 12.3901V10.6953H181.763V12.3901H183.773Z" fill="#09BD1B"/>
</g>
<defs>
<clipPath id="clip0_7296_21653">
<rect width="190" height="34" fill="white"/>
</clipPath>
</defs>
</svg>
