<svg width="50" height="57" viewBox="0 0 50 57" fill="none" xmlns="http://www.w3.org/2000/svg">
<g opacity="0.3">
<path d="M7.18326 56.1454L0.734375 49.7254V13.4903L7.18326 7.07031H43.3895L49.8383 13.4903V49.7254L43.3895 56.1454H7.18326Z" fill="black"/>
<path d="M7.18326 49.4633L0.734375 43.0144V6.80822L7.18326 0.359375H43.3895L49.8383 6.80822V43.0144L43.3895 49.4633H7.18326Z" fill="black"/>
</g>
<g opacity="0.8">
<path d="M7.18326 52.7899L0.734375 46.3699V10.1348L7.18326 3.71484H43.3895L49.8383 10.1348V46.3699L43.3895 52.7899H7.18326Z" fill="black"/>
<path d="M7.18326 49.4633L0.734375 43.0144V6.80822L7.18326 0.359375H43.3895L49.8383 6.80822V43.0144L43.3895 49.4633H7.18326Z" fill="black"/>
</g>
<path d="M43.1774 52.3254H7.34716C4.94691 49.9252 3.58775 48.566 1.1875 46.1657V10.3355C3.58775 7.93523 4.94691 6.57603 7.34716 4.17578H43.1774C45.5777 6.57603 46.9369 7.93523 49.3371 10.3355V46.1657C46.9369 48.566 45.5777 49.9252 43.1774 52.3254Z" fill="#404043"/>
<path d="M43.1774 48.9699H7.34716C4.94691 46.5697 3.58775 45.2105 1.1875 42.8102V6.98001C3.58775 4.57976 4.94691 3.22056 7.34716 0.820312H43.1774C45.5777 3.22056 46.9369 4.57976 49.3371 6.98001V42.8102C46.9369 45.2105 45.5777 46.5697 43.1774 48.9699Z" fill="#404043"/>
<path d="M43.1774 48.9738H7.34716C4.94691 46.5736 3.58775 45.2144 1.1875 42.8141V6.98391C3.58775 4.58366 4.94691 3.22447 7.34716 0.824219H43.1774C45.5777 3.22447 46.9369 4.58366 49.3371 6.98391V42.8141C46.9369 45.2144 45.5777 46.5736 43.1774 48.9738Z" fill="#212121"/>
<g opacity="0.2">
<path d="M42.4545 2.58668L44.1896 4.32181L47.602 7.73423V42.1186L44.1896 45.5309L42.4545 47.2661H8.07013L5.12043 44.3164L2.95153 42.1475V7.76314L5.12043 5.59423L8.07013 2.64454H42.4545M43.1774 0.851562H7.34716C4.94691 3.25181 3.58775 4.61101 1.1875 7.01126V42.8415C3.58775 45.2418 4.94691 46.6009 7.34716 49.0012H43.1774C45.5777 46.6009 46.9369 45.2418 49.3371 42.8415V7.01126C46.9369 4.61101 45.5777 3.25181 43.1774 0.851562Z" fill="black"/>
</g>
<path d="M42.6858 2.09117L44.5655 3.97089L48.1225 7.52787V42.3171L44.5655 45.8741L42.6858 47.7538H7.89662L5.17826 45.0354L2.45989 42.3171V7.52787L5.17826 4.80954L7.89662 2.09117H42.6858ZM43.1774 0.847656H7.34716C4.94691 3.24791 3.58775 4.6071 1.1875 7.00735V42.8376C3.58775 45.2379 4.94691 46.597 7.34716 48.9973H43.1774C45.5777 46.597 46.9369 45.2379 49.3371 42.8376V7.00735C46.9369 4.6071 45.5777 3.24791 43.1774 0.847656Z" fill="#212121"/>
<path fill-rule="evenodd" clip-rule="evenodd" d="M29.2031 21.211H26.2032H27.7031H29.2031ZM35.2032 19.7109V18.2109V16.7108H33.7031H32.2031V18.2109V19.7109V21.211H33.7031H35.2032V19.7109ZM36.7031 18.2109V19.7109V21.211H35.2032L35.2032 22.7109H33.7031H32.2031V24.211H30.7032V25.7109H29.2031V27.2109H27.7032V28.711H26.2032V30.2111V31.711V33.211V34.7109H27.7032H29.2031V36.211V37.7111H27.7032H26.2032H24.7031H23.203H21.7031H20.2031V36.211V34.7109H21.7031H23.203V33.211V31.711V30.2111V28.711H21.7031V27.2109H20.2031V25.7109H18.7032V24.211H17.2031V22.7109H15.7032H14.2031V21.211H12.7031V19.7109V18.2109V16.7108V15.2109H14.2031H15.7032H17.2031V13.7109H18.7032H20.2031H21.7031H23.203H24.7031H26.2032H27.7032H29.2031H30.7032H32.2031V15.2109H33.7031H35.2032H36.7031V16.7108V18.2109ZM14.203 19.7109V21.211H15.7031H17.203V19.7109V18.2109V16.7108H15.7031H14.203V18.2109V19.7109Z" fill="#FAB079"/>
</svg>
