<?xml version="1.0" encoding="utf-8"?>
<!-- Generator: Adobe Illustrator 24.0.1, SVG Export Plug-In . SVG Version: 6.00 Build 0)  -->
<svg version="1.1" id="Layer_1" xmlns="http://www.w3.org/2000/svg" xmlns:xlink="http://www.w3.org/1999/xlink" x="0px" y="0px"
	 viewBox="0 0 326 146" style="enable-background:new 0 0 326 146;" xml:space="preserve">
<style type="text/css">
	.st0{fill:#1D1D1D;stroke:url(#SVGID_1_);stroke-width:1.0081;}
	.st1{fill:none;}
</style>
<linearGradient id="SVGID_1_" gradientUnits="userSpaceOnUse" x1="162.8335" y1="147.7489" x2="162.8335" y2="6.6748" gradientTransform="matrix(1 0 0 -1 0 145.8898)">
	<stop  offset="0" style="stop-color:#FD8D23"/>
	<stop  offset="0.115" style="stop-color:#FAE61C"/>
	<stop  offset="0.22" style="stop-color:#EEF73B"/>
	<stop  offset="0.43" style="stop-color:#4CF038"/>
	<stop  offset="0.655" style="stop-color:#33C6F6"/>
	<stop  offset="0.81" style="stop-color:#7475FF"/>
	<stop  offset="1" style="stop-color:#D457FF"/>
</linearGradient>
<path class="st0" d="M9.6,26.2c3.2-9.8,12.1-16.5,22.3-17.7C130.5-2.4,193.6-1.9,295,8.6c10.6,1.1,19.7,8.2,22.7,18.4
	c10,34.2,9.6,58.9,0.4,92.6c-3.1,11.5-13.9,19.2-25.9,19.2H163.8H33.9c-11.3,0-21.6-6.8-25.2-17.5c-5.7-17.1-8.4-31.9-8.3-46.9
	C0.7,59.3,3.7,44.1,9.6,26.2z"/>
<g>
	<g>
		<path class="st1" d="M317.1,113.8c0,13.4-10.8,24.2-24.2,24.2H177v-22.2c0-14.5,11.7-26.2,26.2-26.2h89.7
			C306.3,89.6,317.1,100.4,317.1,113.8z"/>
	</g>
	<g>
		<path class="st1" d="M147.7,111.8c0,14.5-11.7,26.2-26.2,26.2H34.3c-14.8,0-26.7-12.2-26.7-27c0-14.5,11.7-26.5,26.2-26.5h87.7
			c14.5,0,26.2,11.7,26.2,26.2V111.8z"/>
	</g>
</g>
<rect x="121.5" y="68.4" class="st1" width="71.6" height="71.6"/>
<image style="overflow:visible;" width="319" height="62" xlink:href="do-bottom.png"  transform="matrix(1 0 0 1 3.0726 84)">
</image>
</svg>
