<svg width="110" height="14" viewBox="0 0 110 14" fill="none" xmlns="http://www.w3.org/2000/svg">
<path d="M2.75767 5.75121H0.924604V3.91815H2.75767V1.16855H4.59073V3.00161H6.4238V0.252018H8.25686V2.08508H10.0899V3.91815H8.25686V6.66774H10.0899V8.50081H8.25686V11.2504H6.4238V9.41734H4.59073V12.1669H2.75767V10.3339H0.924604V8.50081H2.75767V5.75121ZM4.59073 4.83468V7.58427H6.4238V4.83468H4.59073ZM19.2552 4.83468V0.252018H21.0883V13.0835H19.2552V11.2504H18.3387V12.1669H17.4222V13.0835H14.6726V12.1669H13.7561V11.2504H12.8395V10.3339H11.923V5.75121H12.8395V4.83468H13.7561V3.91815H14.6726V3.00161H17.4222V3.91815H18.3387V4.83468H19.2552ZM14.6726 10.3339H15.5891V11.2504H16.5057V10.3339H17.4222V9.41734H18.3387V6.66774H17.4222V5.75121H16.5057V4.83468H15.5891V5.75121H14.6726V6.66774H13.7561V9.41734H14.6726V10.3339ZM25.671 11.2504H29.3371V10.3339H30.2536V5.75121H29.3371V4.83468H25.671V5.75121H24.7544V10.3339H25.671V11.2504ZM24.7544 13.0835V12.1669H23.8379V11.2504H22.9214V4.83468H23.8379V3.91815H24.7544V3.00161H30.2536V3.91815H31.1702V4.83468H32.0867V11.2504H31.1702V12.1669H30.2536V13.0835H24.7544ZM35.7528 5.75121V13.0835H33.9198V0.252018H35.7528V3.00161H36.6694V3.91815H37.5859V4.83468H38.5024V5.75121H39.419V6.66774H40.3355V7.58427H41.252V0.252018H43.0851V13.0835H41.252V10.3339H40.3355V9.41734H39.419V8.50081H38.5024V7.58427H37.5859V6.66774H36.6694V5.75121H35.7528ZM47.6677 11.2504H51.3339V10.3339H52.2504V5.75121H51.3339V4.83468H47.6677V5.75121H46.7512V10.3339H47.6677V11.2504ZM46.7512 13.0835V12.1669H45.8347V11.2504H44.9181V4.83468H45.8347V3.91815H46.7512V3.00161H52.2504V3.91815H53.1669V4.83468H54.0835V11.2504H53.1669V12.1669H52.2504V13.0835H46.7512ZM62.3323 11.2504H63.2488V13.0835H61.4157V12.1669H60.4992V11.2504H59.5827V4.83468H57.7496V3.00161H59.5827V0.252018H61.4157V3.00161H63.2488V4.83468H61.4157V10.3339H62.3323V11.2504ZM68.748 7.58427V13.0835H66.9149V0.252018H68.748V4.83468H69.6645V3.91815H70.581V3.00161H73.3306V3.91815H74.2472V4.83468H75.1637V5.75121H76.0802V13.0835H74.2472V6.66774H73.3306V5.75121H72.4141V4.83468H71.4976V5.75121H70.581V6.66774H69.6645V7.58427H68.748ZM83.4125 1.16855V3.00161H81.5794V1.16855H83.4125ZM84.329 11.2504H85.2456V13.0835H83.4125V12.1669H82.496V11.2504H81.5794V6.66774H79.7464V4.83468H83.4125V10.3339H84.329V11.2504ZM90.7448 5.75121V13.0835H88.9117V3.00161H90.7448V3.91815H91.6613V3.00161H96.2439V3.91815H97.1605V4.83468H98.077V13.0835H96.2439V5.75121H95.3274V4.83468H91.6613V5.75121H90.7448ZM107.242 5.75121V4.83468H106.326V3.91815H102.66V4.83468H101.743V5.75121H102.66V6.66774H106.326V5.75121H107.242ZM101.743 12.1669H100.827V10.3339H102.66V11.2504H106.326V10.3339H107.242V7.58427H106.326V8.50081H101.743V7.58427H100.827V6.66774H99.9101V3.91815H100.827V3.00161H101.743V2.08508H107.242V3.00161H108.159V3.91815H109.075V11.2504H108.159V12.1669H107.242V13.0835H101.743V12.1669Z" fill="#09BD1B"/>
</svg>
