<svg width="11" height="14" viewBox="0 0 11 14" fill="none" xmlns="http://www.w3.org/2000/svg">
<path fill-rule="evenodd" clip-rule="evenodd" d="M4.60487 0L9.51095 0.868022L4.36897 5.63072L10.2933 5.30319L0.319875 13.9173L4.98754 7.66969L0 7.99552L4.60487 0Z" fill="#2E3192"/>
<path fill-rule="evenodd" clip-rule="evenodd" d="M4.73676 0.289062L0.46875 7.7025L5.53604 7.36903L1.9706 12.1428L9.53762 5.60837L3.65574 5.93165L8.94112 1.03321L4.73676 0.289062Z" fill="white"/>
<path fill-rule="evenodd" clip-rule="evenodd" d="M3.04053 11.2152L9.53164 5.60996L3.64975 5.93324L8.93513 1.03479L5.11769 0.359375L1.03125 7.45378L6.09942 7.12031L3.04053 11.2152Z" fill="#9DDCF9"/>
<path fill-rule="evenodd" clip-rule="evenodd" d="M8.33197 5.67401L3.65921 5.9311L8.94458 1.03265L8.00953 0.867188C6.80889 1.00889 5.20351 1.87352 3.7568 3.26423C3.47764 3.53236 3.21798 3.80813 2.9787 4.08644L1.26811 7.05623C1.23332 7.1886 1.20617 7.31672 1.1875 7.44145L6.10802 7.11817L5.05331 8.53009C5.7737 8.12366 6.52208 7.56704 7.23229 6.88483C7.64296 6.49113 8.01039 6.08384 8.33197 5.67401Z" fill="#00AEEF"/>
</svg>
