<svg width="243" height="165" viewBox="0 0 243 165" fill="none" xmlns="http://www.w3.org/2000/svg">
<path d="M148.794 0.550781C120.959 1.21782 41.6158 0.164412 14.3752 6.66708C3.70329 12.4881 4.24599 26.2079 2.851 36.7128C-0.641953 73.4944 -0.416131 110.87 5.58635 147.346C8.6058 158.448 20.4651 160.843 30.2992 160.941C75.7149 165.534 168.928 165.031 214.355 160.905C223.315 159.852 235.017 158.86 237.046 147.761C240.517 132.27 241.075 116.247 241.96 100.424C243.045 72.2478 242.098 43.8169 236.999 16.0566C233.258 5.31844 220.295 3.90418 210.607 3.31004C188.859 1.15221 170.633 0.583586 148.794 0.550781Z" fill="#121212"/>
</svg>
