<?xml version="1.0" encoding="utf-8"?>
<!-- Generator: Adobe Illustrator 24.0.1, SVG Export Plug-In . SVG Version: 6.00 Build 0)  -->
<svg version="1.1" id="Layer_1" xmlns="http://www.w3.org/2000/svg" xmlns:xlink="http://www.w3.org/1999/xlink" x="0px" y="0px"
	 viewBox="0 0 224 63" style="enable-background:new 0 0 224 63;" xml:space="preserve">
<style type="text/css">
	.st0{fill:url(#SVGID_1_);stroke:url(#SVGID_2_);}
	.st1{fill:url(#SVGID_3_);}
</style>
<linearGradient id="SVGID_1_" gradientUnits="userSpaceOnUse" x1="111.037" y1="72.7546" x2="112.41" y2="0.846" gradientTransform="matrix(1 0 0 -1 0 64)">
	<stop  offset="0" style="stop-color:#034807"/>
	<stop  offset="1" style="stop-color:#07AE11"/>
</linearGradient>
<linearGradient id="SVGID_2_" gradientUnits="userSpaceOnUse" x1="0.6888" y1="61.0007" x2="223.1338" y2="-0.2664" gradientTransform="matrix(1 0 0 -1 0 64)">
	<stop  offset="0" style="stop-color:#08A811"/>
	<stop  offset="1" style="stop-color:#FFFFFF"/>
</linearGradient>
<path class="st0" d="M7.2,1.2C7.7,0.8,8.3,0.5,9,0.5h186.7c0.7,0,1.4,0.3,1.9,0.9l25.3,30.1c0.4,0.5,0.6,1,0.6,1.6V60
	c0,1.4-1.1,2.5-2.5,2.5H41.9H12.6c-0.7,0-1.3-0.3-1.8-0.7L1.2,52c-0.5-0.5-0.7-1.1-0.7-1.8v-6.8V8.8c0-0.7,0.3-1.3,0.8-1.8L7.2,1.2z
	"/>
<g>
	
		<linearGradient id="SVGID_3_" gradientUnits="userSpaceOnUse" x1="157.677" y1="61.0428" x2="157.677" y2="39.1928" gradientTransform="matrix(1 0 0 -1 0 64)">
		<stop  offset="0" style="stop-color:#FAE61C"/>
		<stop  offset="1" style="stop-color:#FFC700"/>
	</linearGradient>
	<path class="st1" d="M116,20.5l-13-19h93.3c0.1,0,0.2,0,0.2,0.1l15.8,18.9H116z"/>
	<path d="M196.2,2l15.1,18h-95.1L103.9,2H196.2 M196.3,1H103H102l0.5,0.8l13,19l0.1,0.2h0.3h97.5L197,1.3C196.8,1.1,196.6,1,196.3,1
		L196.3,1z"/>
</g>
</svg>
