<svg width="39" height="39" viewBox="0 0 39 39" fill="none" xmlns="http://www.w3.org/2000/svg">
<g filter="url(#filter0_d_4491_15190)">
<g opacity="0.3">
<path d="M5.30813 38.3759L0.296875 34.0782V9.82118L5.30813 5.52344H33.443L38.4543 9.82118V34.0782L33.443 38.3759H5.30813Z" fill="black"/>
<path d="M5.30813 33.9031L0.296875 29.586V5.34833L5.30813 1.03125H33.443L38.4543 5.34833V29.586L33.443 33.9031H5.30813Z" fill="black"/>
</g>
<g opacity="0.8">
<path d="M5.30813 36.1298L0.296875 31.8321V7.57507L5.30813 3.27734H33.443L38.4543 7.57507V31.8321L33.443 36.1298H5.30813Z" fill="black"/>
<path d="M5.30813 33.9031L0.296875 29.586V5.34833L5.30813 1.03125H33.443L38.4543 5.34833V29.586L33.443 33.9031H5.30813Z" fill="black"/>
</g>
<path d="M33.2855 35.8228H5.44276C3.57759 34.216 2.52142 33.3062 0.65625 31.6994V7.71335C2.52142 6.10654 3.57759 5.19665 5.44276 3.58984H33.2855C35.1507 5.19665 36.2069 6.10654 38.072 7.71335V31.6994C36.2069 33.3062 35.1507 34.216 33.2855 35.8228Z" fill="#404043"/>
<path d="M33.2855 33.5767H5.44276C3.57759 31.9699 2.52142 31.06 0.65625 29.4532V5.46726C2.52142 3.86045 3.57759 2.95056 5.44276 1.34375H33.2855C35.1507 2.95056 36.2069 3.86045 38.072 5.46726V29.4532C36.2069 31.06 35.1507 31.9699 33.2855 33.5767Z" fill="#404043"/>
<path d="M33.4105 33.5728H5.56776C3.70259 31.966 2.64642 31.0561 0.78125 29.4493V5.46335C2.64642 3.85654 3.70259 2.94665 5.56776 1.33984H33.4105C35.2757 2.94665 36.3319 3.85654 38.197 5.46335V29.4493C36.3319 31.0561 35.2757 31.966 33.4105 33.5728Z" fill="#212121"/>
<g opacity="0.2">
<path d="M32.7237 2.52483L34.072 3.68638L36.7237 5.97077V28.9888L34.072 31.2732L32.7237 32.4347H6.00456L3.71243 30.4601L2.02703 29.0082V5.99012L3.71243 4.53819L6.00456 2.56356H32.7237M33.2855 1.36328H5.44276C3.57759 2.97009 2.52142 3.87998 0.65625 5.48679V29.4728C2.52142 31.0796 3.57759 31.9895 5.44276 33.5963H33.2855C35.1507 31.9895 36.2069 31.0796 38.072 29.4728V5.48679C36.2069 3.87998 35.1507 2.97009 33.2855 1.36328Z" fill="black"/>
</g>
<path d="M32.9113 2.19183L34.372 3.45017L37.136 5.83134V29.1204L34.372 31.5016L32.9113 32.7599H5.87754L3.76517 30.9402L1.65281 29.1204V5.83134L3.76517 4.01159L5.87754 2.19183H32.9113ZM33.2933 1.35938H5.45057C3.5854 2.96618 2.52923 3.87607 0.664062 5.48288V29.4689C2.52923 31.0757 3.5854 31.9856 5.45057 33.5924H33.2933C35.1585 31.9856 36.2147 31.0757 38.0798 29.4689V5.48288C36.2147 3.87607 35.1585 2.96618 33.2933 1.35938Z" fill="#212121"/>
</g>
<path d="M27.8916 14.202H27.0339V12.4921H26.1818V11.64H25.3241V10.7879H23.6199V9.93023H21.9101V9.07812H17.6383V9.93023H15.9285V10.7879H14.2187V11.64H13.3666V12.4921H12.5145V14.202H11.6568V15.9118H10.8047V20.1835H11.6568V21.8933H12.5145V23.5975H13.3666V24.4552H14.2187V25.3073H15.9285V26.165H17.6383V27.0172H21.9101V26.165H23.6199V25.3073H25.3241V24.4552H26.1818V23.5975H27.0339V21.8933H27.8916V20.1835H28.7437V15.9118H27.8916V14.202ZM21.9101 23.5975H21.058V24.4552H18.4904V23.5975H17.6383V21.0356H18.4904V20.1835H21.058V21.0356H21.9101V23.5975ZM24.472 15.9118H23.6199V16.7639H22.7622V17.6216H21.9101V18.4737H21.058V19.3314H18.4904V17.6216H19.3481V16.7639H20.2003V15.9118H21.058V14.202H20.2003V13.3499H18.4904V14.202H17.6383V15.9118H15.0764V13.3499H15.9285V12.4921H16.7862V11.64H17.6383V10.7879H21.9101V11.64H22.7622V12.4921H23.6199V13.3499H24.472V15.9118Z" fill="#E2E2E2"/>
<defs>
<filter id="filter0_d_4491_15190" x="0.296875" y="0.03125" width="38.1562" height="38.3438" filterUnits="userSpaceOnUse" color-interpolation-filters="sRGB">
<feFlood flood-opacity="0" result="BackgroundImageFix"/>
<feColorMatrix in="SourceAlpha" type="matrix" values="0 0 0 0 0 0 0 0 0 0 0 0 0 0 0 0 0 0 127 0" result="hardAlpha"/>
<feOffset dy="-1"/>
<feComposite in2="hardAlpha" operator="out"/>
<feColorMatrix type="matrix" values="0 0 0 0 1 0 0 0 0 1 0 0 0 0 1 0 0 0 0.28 0"/>
<feBlend mode="normal" in2="BackgroundImageFix" result="effect1_dropShadow_4491_15190"/>
<feBlend mode="normal" in="SourceGraphic" in2="effect1_dropShadow_4491_15190" result="shape"/>
</filter>
</defs>
</svg>
