<svg width="298" height="70" viewBox="0 0 298 70" fill="none" xmlns="http://www.w3.org/2000/svg">
<path d="M10.2378 69.1703L0 60.3958V18.2372C0 13.4023 4.59654 9.48828 10.2079 9.48828H287.792C293.433 9.48828 298 13.4279 298 18.2372V60.3958L287.762 69.1703H10.1781H10.2378Z" fill="#242323"/>
<path d="M287.458 64.1635H10.5897C6.79907 60.9146 4.67989 59.0983 0.859375 55.8239V13.9467C0.859375 9.52108 5.03803 5.91406 10.2315 5.91406H287.816C292.979 5.91406 297.188 9.4955 297.188 13.9467V55.8239C293.397 59.0727 291.278 60.889 287.458 64.1635Z" fill="#404043" fill-opacity="0.35"/>
<path d="M296.809 53.0676L287.381 61.1477H10.8691L1.44158 53.0676V11.4116C1.44158 7.31734 5.33389 3.85955 10.3331 3.85955H287.917C292.889 3.85955 296.809 7.29358 296.809 11.4116V53.0676Z" fill="#212121" stroke="black" stroke-width="0.96129"/>
</svg>
