<svg width="77" height="53" viewBox="0 0 77 53" fill="none" xmlns="http://www.w3.org/2000/svg">
<g opacity="0.3">
<path d="M10.5282 52.0173L0.554688 46.1103V12.7703L10.5282 6.86328H66.5231L76.4966 12.7703V46.1103L66.5231 52.0173H10.5282Z" fill="black"/>
<path d="M10.5282 45.872L0.554688 39.9384V6.625L10.5282 0.691406H66.5231L76.4966 6.625V39.9384L66.5231 45.872H10.5282Z" fill="black"/>
</g>
<g opacity="0.8">
<path d="M10.5282 48.9314L0.554688 43.0244V9.68434L10.5282 3.77734H66.5231L76.4966 9.68434V43.0244L66.5231 48.9314H10.5282Z" fill="black"/>
<path d="M10.5282 45.872L0.554688 39.9384V6.625L10.5282 0.691406H66.5231L76.4966 6.625V39.9384L66.5231 45.872H10.5282Z" fill="black"/>
</g>
<path d="M66.2053 48.5057H10.7919C7.07975 46.2972 4.97774 45.0466 1.26562 42.8382V9.87067C4.97774 7.6622 7.07975 6.4116 10.7919 4.20312H66.2053C69.9174 6.4116 72.0195 7.6622 75.7316 9.87067V42.8382C72.0195 45.0466 69.9174 46.2972 66.2053 48.5057Z" fill="#404043"/>
<path d="M66.2053 45.4197H10.7919C7.07975 43.2113 4.97774 41.9607 1.26562 39.7522V6.78473C4.97774 4.57626 7.07975 3.32566 10.7919 1.11719H66.2053C69.9174 3.32566 72.0195 4.57626 75.7316 6.78473V39.7522C72.0195 41.9607 69.9174 43.2113 66.2053 45.4197Z" fill="#404043"/>
<path d="M66.4553 45.4197H11.0419C7.32975 43.2113 5.22774 41.9607 1.51562 39.7522V6.78473C5.22774 4.57626 7.32975 3.32566 11.0419 1.11719H66.4553C70.1674 3.32566 72.2695 4.57626 75.9816 6.78473V39.7522C72.2695 41.9607 70.1674 43.2113 66.4553 45.4197Z" fill="#212121"/>
<g opacity="0.2">
<path d="M65.0872 2.74102L67.7707 4.33751L73.0482 7.47728V39.1144L67.7707 42.2541L65.0872 43.8506H11.91L7.34812 41.1366L3.9938 39.141V7.50388L7.34812 5.50827L11.91 2.79426H65.0872M66.2053 1.14453H10.7919C7.07975 3.35301 4.97774 4.6036 1.26562 6.81208V39.7796C4.97774 41.988 7.07975 43.2386 10.7919 45.4471H66.2053C69.9174 43.2386 72.0195 41.988 75.7316 39.7796V6.81208C72.0195 4.6036 69.9174 3.35301 66.2053 1.14453Z" fill="black"/>
</g>
<path d="M65.4529 2.28869L68.3599 4.01822L73.861 7.29101V39.3006L68.3599 42.5734L65.4529 44.303H11.6495L7.44536 41.8018L3.24126 39.3006V7.29101L7.44536 4.78987L11.6495 2.28869H65.4529ZM66.2131 1.14453H10.7997C7.08757 3.35301 4.98556 4.6036 1.27344 6.81208V39.7796C4.98556 41.988 7.08757 43.2386 10.7997 45.4471H66.2131C69.9253 43.2386 72.0273 41.988 75.7394 39.7796V6.81208C72.0273 4.6036 69.9253 3.35301 66.2131 1.14453Z" fill="#212121"/>
</svg>
