<svg width="27" height="25" viewBox="0 0 27 25" fill="none" xmlns="http://www.w3.org/2000/svg">
<path d="M22.0767 21.0547H22.0194C21.7973 21.0547 21.6172 21.2348 21.6172 21.4569C21.6172 21.679 21.7973 21.8591 22.0194 21.8591H22.0767C22.2988 21.8591 22.4789 21.679 22.4789 21.4569C22.4789 21.2348 22.2988 21.0547 22.0767 21.0547Z" fill="white"/>
<path d="M22.9337 18.6445H22.8788C22.6566 18.6445 22.4766 18.8246 22.4766 19.0467C22.4766 19.2689 22.6566 19.449 22.8788 19.449H22.9337C23.1558 19.449 23.3359 19.2689 23.3359 19.0467C23.3359 18.8246 23.1558 18.6445 22.9337 18.6445Z" fill="white"/>
<path d="M5.73055 10.6133H5.67565C5.45351 10.6133 5.27344 10.7934 5.27344 11.0155C5.27344 11.2376 5.45351 11.4177 5.67565 11.4177H5.73055C5.95268 11.4177 6.13276 11.2376 6.13276 11.0155C6.13276 10.7934 5.95269 10.6133 5.73055 10.6133Z" fill="#FAF1CE"/>
<path d="M25.9153 8.20312H25.0535H24.1942H24.1369C23.694 8.20312 23.3349 8.56221 23.3349 9.00517V9.80959V10.6116V11.4161V12.2181V13.0225V13.8222V14.6266V15.4311V16.2331V16.6079C23.3349 16.8452 23.1425 17.0375 22.9052 17.0375C22.6679 17.0375 22.4756 17.2299 22.4756 17.4672V17.8396V18.2119C22.4756 18.4492 22.6679 18.6416 22.9052 18.6416H22.9327C23.1548 18.6416 23.3349 18.8217 23.3349 19.0438C23.3349 19.266 23.1548 19.446 22.9327 19.446H22.8778C22.6557 19.446 22.4756 19.266 22.4756 19.0438C22.4756 18.8217 22.2955 18.6416 22.0734 18.6416H22.0161C21.7939 18.6416 21.6139 18.8217 21.6139 19.0438C21.6139 19.266 21.4338 19.446 21.2116 19.446H21.1555C20.9341 19.446 20.7545 19.6256 20.7545 19.8471C20.7545 20.0685 20.575 20.2481 20.3535 20.2481H20.3248C20.0875 20.2481 19.8952 20.4404 19.8952 20.6777V21.0525C19.8952 21.4955 19.5361 21.8545 19.0931 21.8545H19.0335H18.5764C18.3542 21.8545 18.1741 22.0346 18.1741 22.2568C18.1741 22.4789 17.9941 22.659 17.7719 22.659H17.7135C17.492 22.659 17.3124 22.8385 17.3124 23.06C17.3124 23.2815 17.1329 23.461 16.9114 23.461H16.4531H15.9948C15.7733 23.461 15.5938 23.6406 15.5938 23.862C15.5938 24.0835 15.7733 24.2631 15.9948 24.2631H16.4531H17.3124H18.1741H18.6324C18.8539 24.2631 19.0335 24.0835 19.0335 23.862C19.0335 23.6406 19.213 23.461 19.4345 23.461H19.8952H20.3535C20.575 23.461 20.7545 23.2815 20.7545 23.06C20.7545 22.8385 20.9341 22.659 21.1555 22.659H21.1842C21.4215 22.659 21.6139 22.4666 21.6139 22.2293V21.8545V21.4834C21.6139 21.2454 21.8068 21.0525 22.0447 21.0525H22.0746C22.296 21.0525 22.4756 21.232 22.4756 21.4535C22.4756 21.675 22.6551 21.8545 22.8766 21.8545H22.9052C23.1425 21.8545 23.3349 21.6622 23.3349 21.4249V21.0525V20.6777C23.3349 20.4404 23.5273 20.2481 23.7646 20.2481H23.7932C24.0147 20.2481 24.1942 20.0685 24.1942 19.8471C24.1942 19.6256 24.3738 19.446 24.5952 19.446H24.6239C24.8612 19.446 25.0535 19.2537 25.0535 19.0164V18.6416V18.2704C25.0535 18.0325 25.2465 17.8396 25.4844 17.8396C25.7224 17.8396 25.9153 17.6467 25.9153 17.4087V17.0375V16.664C25.9153 16.426 26.1082 16.2331 26.3461 16.2331C26.5841 16.2331 26.777 16.0402 26.777 15.8022V15.4311V14.6266V13.8222V13.0225V12.2181V11.4161V10.6116V9.80959V9.00517C26.777 8.56221 26.4179 8.20312 25.975 8.20312H25.9153Z" fill="white"/>
<path d="M17.322 23.4414C17.3167 23.4414 17.3124 23.4457 17.3124 23.451C17.3124 23.4562 17.3082 23.4605 17.3029 23.4605H15.9948C15.7733 23.4605 15.5938 23.64 15.5938 23.8615C15.5938 24.083 15.7733 24.2625 15.9948 24.2625H18.6324C18.8539 24.2625 19.0335 24.083 19.0335 23.8615C19.0335 23.64 19.213 23.4605 19.4345 23.4605H20.745C20.7502 23.4605 20.7545 23.4562 20.7545 23.451C20.7545 23.4457 20.7502 23.4414 20.745 23.4414H17.322Z" fill="#1D1D1B"/>
<path d="M22.0767 5.79688H22.0194C21.7973 5.79688 21.6172 5.97695 21.6172 6.19909C21.6172 6.42123 21.7973 6.60131 22.0194 6.60131H22.0767C22.2988 6.60131 22.4789 6.42123 22.4789 6.19909C22.4789 5.97695 22.2988 5.79688 22.0767 5.79688Z" fill="white"/>
<path d="M22.0415 8.20568C21.8027 8.20502 21.6094 8.01125 21.6094 7.77244V6.22565C21.6094 5.98835 21.4171 5.79598 21.1798 5.79598H21.1523C20.9302 5.79598 20.7501 5.6159 20.7501 5.39376C20.7501 5.17162 20.57 4.99155 20.3479 4.99155H20.293C20.0708 4.99155 19.8908 4.81147 19.8908 4.58933C19.8908 4.3672 19.7107 4.18712 19.4885 4.18712H19.4301C19.2086 4.18712 19.029 4.00758 19.029 3.7861C19.029 3.56462 18.8495 3.38508 18.628 3.38508H18.5707C18.3493 3.38508 18.1697 3.20553 18.1697 2.98406C18.1697 2.76258 17.9902 2.58304 17.7687 2.58304H17.7019C17.4804 2.58304 17.3008 2.40349 17.3008 2.18201C17.3008 1.96054 17.1213 1.78099 16.8998 1.78099H15.9844C15.7623 1.78099 15.5822 1.60092 15.5822 1.37878C15.5822 1.15664 15.4021 0.976562 15.18 0.976562H9.10975C8.88761 0.976562 8.70753 1.15664 8.70753 1.37878C8.70753 1.60092 8.52745 1.78099 8.30532 1.78099H7.3899C7.16843 1.78099 6.98888 1.96054 6.98888 2.18201C6.98888 2.40349 6.80934 2.58304 6.58786 2.58304H6.52816C6.30668 2.58304 6.12714 2.76258 6.12714 2.98406C6.12714 3.20553 5.9476 3.38508 5.72612 3.38508H5.66883C5.44736 3.38508 5.26781 3.56462 5.26781 3.7861C5.26781 4.00758 5.08827 4.18712 4.86679 4.18712H4.81309C4.59096 4.18712 4.41088 4.3672 4.41088 4.58933C4.41088 4.81147 4.2308 4.99155 4.00866 4.99155H3.98122C3.74392 4.99155 3.55155 5.18391 3.55155 5.42121V6.17194C3.55155 6.40989 3.35865 6.60279 3.1207 6.60279C2.88274 6.60279 2.68984 6.79569 2.68984 7.03365V7.7784C2.68984 8.01636 2.49694 8.20926 2.25898 8.20926C2.02103 8.20926 1.82812 8.40216 1.82812 8.64012V15.8084C1.82812 16.0463 2.02103 16.2392 2.25898 16.2392C2.49694 16.2392 2.68984 16.4321 2.68984 16.6701V17.4148C2.68984 17.6528 2.88274 17.8457 3.1207 17.8457C3.35865 17.8457 3.55155 18.0386 3.55155 18.2766V19.0225C3.55155 19.2598 3.74392 19.4522 3.98122 19.4522H4.00986C4.23133 19.4522 4.41088 19.6317 4.41088 19.8532C4.41088 20.0747 4.59042 20.2542 4.8119 20.2542H4.86799C5.09013 20.2542 5.2702 20.4343 5.2702 20.6564C5.2702 20.8786 5.45028 21.0586 5.67242 21.0586H5.72851C5.94998 21.0586 6.12953 21.2382 6.12953 21.4597C6.12953 21.6811 6.30907 21.8607 6.53055 21.8607H6.58906C6.81119 21.8607 6.99127 22.0408 6.99127 22.2629C6.99127 22.485 7.17135 22.6651 7.39349 22.6651H8.3089C8.53038 22.6651 8.70992 22.8447 8.70992 23.0661C8.70992 23.2876 8.88946 23.4672 9.11094 23.4672H15.1907C15.4122 23.4672 15.5917 23.2876 15.5917 23.0661C15.5917 22.8447 15.7713 22.6651 15.9927 22.6651H16.9058C17.1292 22.6651 17.3104 22.484 17.3104 22.2605C17.3104 22.0371 17.4915 21.8559 17.715 21.8559H17.7711C17.9926 21.8559 18.1721 21.6764 18.1721 21.4549C18.1721 21.2334 18.3517 21.0539 18.5731 21.0539H18.6292C18.8514 21.0539 19.0314 20.8738 19.0314 20.6517C19.0314 20.4295 19.2115 20.2494 19.4337 20.2494H19.4921C19.7136 20.2494 19.8932 20.0699 19.8932 19.8484C19.8932 19.6269 20.0727 19.4474 20.2942 19.4474H20.3503C20.5724 19.4474 20.7525 19.2673 20.7525 19.0452C20.7525 18.823 20.9326 18.643 21.1547 18.643H21.1822C21.4195 18.643 21.6118 18.4506 21.6118 18.2133V17.4697C21.6118 17.2318 21.8047 17.0389 22.0427 17.0389C22.2806 17.0389 22.4735 16.846 22.4735 16.608V8.63893C22.4735 8.40012 22.2803 8.20634 22.0415 8.20568ZM4.83935 9.00653C5.07598 9.00653 5.26781 8.8147 5.26781 8.57806V7.83211C5.26781 7.59482 5.46018 7.40245 5.69748 7.40245H5.72731C5.94813 7.40245 6.12714 7.22344 6.12714 7.00262C6.12714 6.7818 6.30615 6.60279 6.52697 6.60279H6.58786C6.80934 6.60279 6.98888 6.42325 6.98888 6.20177C6.98888 5.98029 7.16843 5.80075 7.3899 5.80075H7.44599C7.66813 5.80075 7.84821 5.62067 7.84821 5.39854C7.84821 5.1764 8.02828 4.99632 8.25042 4.99632H8.30532C8.52745 4.99632 8.70753 4.81624 8.70753 4.59411C8.70753 4.37197 8.88761 4.19189 9.10975 4.19189H15.1871C15.4093 4.19189 15.5893 4.37197 15.5893 4.59411C15.5893 4.81624 15.7694 4.99632 15.9915 4.99632H16.0465C16.2686 4.99632 16.4487 5.1764 16.4487 5.39854C16.4487 5.62067 16.6288 5.80075 16.8509 5.80075H16.907C17.1285 5.80075 17.308 5.98029 17.308 6.20177C17.308 6.42325 17.4876 6.60279 17.709 6.60279H17.7675C17.9896 6.60279 18.1697 6.78287 18.1697 7.00501C18.1697 7.22714 18.3498 7.40722 18.5719 7.40722H18.5994C18.8367 7.40722 19.029 7.59959 19.029 7.83688V8.58045C19.029 8.8184 19.2219 9.0113 19.4599 9.0113C19.6979 9.0113 19.8908 9.20421 19.8908 9.44216V15.0039C19.8908 15.2419 19.6979 15.4348 19.4599 15.4348C19.2219 15.4348 19.029 15.6277 19.029 15.8657V16.6116C19.029 16.8489 18.8367 17.0413 18.5994 17.0413H18.5707C18.3493 17.0413 18.1697 17.2208 18.1697 17.4423C18.1697 17.6638 17.9902 17.8433 17.7687 17.8433H17.7019C17.4804 17.8433 17.3008 18.0229 17.3008 18.2443C17.3008 18.4658 17.1213 18.6454 16.8998 18.6454H16.8437C16.6216 18.6454 16.4415 18.8254 16.4415 19.0476C16.4415 19.2697 16.2614 19.4498 16.0393 19.4498H15.9832C15.7617 19.4498 15.5822 19.6293 15.5822 19.8508C15.5822 20.0723 15.4026 20.2518 15.1812 20.2518H9.10855C8.88707 20.2518 8.70753 20.0723 8.70753 19.8508C8.70753 19.6293 8.52799 19.4498 8.30651 19.4498H8.25042C8.02828 19.4498 7.84821 19.2697 7.84821 19.0476C7.84821 18.8254 7.66813 18.6454 7.44599 18.6454H7.3899C7.16843 18.6454 6.98888 18.4658 6.98888 18.2443C6.98888 18.0229 6.80934 17.8433 6.58786 17.8433H6.52816C6.30668 17.8433 6.12714 17.6638 6.12714 17.4423C6.12714 17.2208 5.9476 17.0413 5.72612 17.0413H5.69748C5.46018 17.0413 5.26781 16.8489 5.26781 16.6116V15.8633C5.26781 15.6266 5.07598 15.4348 4.83935 15.4348C4.60271 15.4348 4.41088 15.243 4.41088 15.0063V9.435C4.41088 9.19836 4.60271 9.00653 4.83935 9.00653Z" fill="white"/>
<path d="M6.99456 7.77426C6.99456 8.01222 6.80165 8.20513 6.56368 8.20513C6.32572 8.20513 6.13281 8.39804 6.13281 8.636V9.00717V9.8116V10.6136V11.4181V12.2201V13.0245V13.8242V14.1978C6.13281 14.4357 6.32572 14.6286 6.56368 14.6286C6.80165 14.6286 6.99456 14.8215 6.99456 15.0595V15.4331V15.8054C6.99456 16.0427 7.18692 16.2351 7.42422 16.2351H7.45167C7.6738 16.2351 7.85388 16.4152 7.85388 16.6373C7.85388 16.8594 8.03396 17.0395 8.25609 17.0395H8.31219C8.53366 17.0395 8.71321 17.2191 8.71321 17.4405C8.71321 17.662 8.89275 17.8416 9.11422 17.8416H9.57253H10.0332C10.2547 17.8416 10.4342 18.0211 10.4342 18.2426C10.4342 18.4641 10.6138 18.6436 10.8353 18.6436H11.296H12.1529H13.0146H13.874H14.3347C14.5561 18.6436 14.7357 18.4641 14.7357 18.2426C14.7357 18.0211 14.9152 17.8416 15.1367 17.8416H15.595H16.0533C16.2748 17.8416 16.4544 17.662 16.4544 17.4405C16.4544 17.2191 16.6339 17.0395 16.8554 17.0395H16.9115C17.1336 17.0395 17.3137 16.8594 17.3137 16.6373C17.3137 16.4152 17.4938 16.2351 17.7159 16.2351H17.7445C17.9825 16.2351 18.1754 16.0422 18.1754 15.8042V15.4331V15.0583C18.1754 14.821 18.3678 14.6286 18.6051 14.6286C18.8424 14.6286 19.0347 14.4363 19.0347 14.199V13.8242V13.0245V12.2201V11.4181V10.6136V10.2413C19.0347 10.004 18.8424 9.8116 18.6051 9.8116C18.3678 9.8116 18.1754 9.61923 18.1754 9.38194V9.00717V8.20513V7.83395C18.1754 7.59599 17.9825 7.40309 17.7445 7.40309H17.7159C17.4938 7.40309 17.3137 7.22301 17.3137 7.00087C17.3137 6.77874 17.1336 6.59866 16.9115 6.59866H16.8554C16.6339 6.59866 16.4544 6.41911 16.4544 6.19764C16.4544 5.97616 16.2748 5.79662 16.0533 5.79662H15.595H15.1379C14.9158 5.79662 14.7357 5.61654 14.7357 5.3944C14.7357 5.17226 14.5556 4.99219 14.3335 4.99219H13.874H13.0146H12.1529H11.296H10.4342H9.97475C9.75261 4.99219 9.57253 5.17226 9.57253 5.3944C9.57253 5.61654 9.39245 5.79662 9.17032 5.79662H8.71321H8.2549C8.03342 5.79662 7.85388 5.97616 7.85388 6.19764C7.85388 6.41911 7.67434 6.59866 7.45286 6.59866H7.42422C7.18692 6.59866 6.99456 6.79102 6.99456 7.02832V7.40309V7.77426Z" fill="white"/>
<path d="M25.4854 5.79636C25.2474 5.79636 25.0545 5.60345 25.0545 5.3655V4.99193V4.61716C25.0545 4.37987 24.8622 4.1875 24.6249 4.1875H24.5974C24.3753 4.1875 24.1952 4.36758 24.1952 4.58971C24.1952 4.81185 24.0151 4.99193 23.793 4.99193H23.3359H23.281C22.8367 4.99193 22.4766 5.35208 22.4766 5.79636V6.5984V6.97317C22.4766 7.21046 22.6689 7.40283 22.9062 7.40283H22.9337C23.1558 7.40283 23.3359 7.22275 23.3359 7.00061C23.3359 6.77848 23.516 6.5984 23.7381 6.5984H24.1952H24.2501C24.6944 6.5984 25.0545 6.95855 25.0545 7.40283V7.77401C25.0545 8.01197 25.2474 8.20487 25.4854 8.20487C25.7233 8.20487 25.9163 8.01197 25.9163 7.77401V7.40283V6.5984V6.22721C25.9163 5.98926 25.7233 5.79636 25.4854 5.79636Z" fill="white"/>
<path d="M23.7359 3.38482C23.5144 3.38482 23.3349 3.20528 23.3349 2.9838C23.3349 2.76232 23.1554 2.58278 22.9339 2.58278H22.4756H22.0149C21.7934 2.58278 21.6139 2.40323 21.6139 2.18176C21.6139 1.96028 21.4343 1.78073 21.2128 1.78073H21.1567C20.9346 1.78073 20.7545 1.60066 20.7545 1.37852C20.7545 1.15638 20.5744 0.976303 20.3523 0.976303H19.8952H19.4357C19.2135 0.976303 19.0335 0.796226 19.0335 0.574089C19.0335 0.351952 18.8534 0.171875 18.6313 0.171875H18.1741H17.3124H16.4531H15.996C15.7738 0.171875 15.5938 0.351952 15.5938 0.574089C15.5938 0.796226 15.7738 0.976303 15.996 0.976303H16.4531H16.9102C17.1324 0.976303 17.3124 1.15638 17.3124 1.37852C17.3124 1.60066 17.4925 1.78073 17.7146 1.78073H17.7731C17.9946 1.78073 18.1741 1.96028 18.1741 2.18176C18.1741 2.40323 18.3537 2.58278 18.5752 2.58278H18.6324C18.8539 2.58278 19.0335 2.76232 19.0335 2.9838C19.0335 3.20528 19.213 3.38482 19.4345 3.38482H19.4942C19.7156 3.38482 19.8952 3.56436 19.8952 3.78584C19.8952 4.00732 20.0747 4.18686 20.2962 4.18686H20.7545H21.6139H22.4756H23.3349H23.7932C24.0147 4.18686 24.1942 4.00732 24.1942 3.78584C24.1942 3.56436 24.0147 3.38482 23.7932 3.38482H23.7359Z" fill="white"/>
<path d="M25.4854 5.79636C25.2474 5.79636 25.0545 5.60345 25.0545 5.3655V4.99193V4.61716C25.0545 4.37987 24.8622 4.1875 24.6249 4.1875H24.5974C24.3753 4.1875 24.1952 4.36758 24.1952 4.58971C24.1952 4.81185 24.0151 4.99193 23.793 4.99193H23.3359H23.281C22.8367 4.99193 22.4766 5.35208 22.4766 5.79636V6.5984V6.97317C22.4766 7.21046 22.6689 7.40283 22.9062 7.40283H22.9337C23.1558 7.40283 23.3359 7.22275 23.3359 7.00061C23.3359 6.77848 23.516 6.5984 23.7381 6.5984H24.1952H24.2501C24.6944 6.5984 25.0545 6.95855 25.0545 7.40283V7.77401C25.0545 8.01197 25.2474 8.20487 25.4854 8.20487C25.7233 8.20487 25.9163 8.01197 25.9163 7.77401V7.40283V6.5984V6.22721C25.9163 5.98926 25.7233 5.79636 25.4854 5.79636Z" fill="white"/>
<path d="M25.0546 5.79636V4.99193V4.61716C25.0546 4.37987 24.8623 4.1875 24.625 4.1875C24.3877 4.1875 24.1953 4.37987 24.1953 4.61716V4.99193C24.1953 5.4362 24.5555 5.79636 24.9997 5.79636H25.0546V6.5984V7.40283V7.77401C25.0546 8.01197 25.2475 8.20487 25.4855 8.20487C25.7235 8.20487 25.9164 8.01197 25.9164 7.77401V7.40283V6.5984C25.9164 6.15544 25.5573 5.79636 25.1143 5.79636H25.0546Z" fill="#1D1D1B"/>
<path d="M21.215 1.78125H21.16C20.9379 1.78125 20.7578 1.96133 20.7578 2.18346C20.7578 2.4056 20.9379 2.58568 21.16 2.58568H21.215C21.4371 2.58568 21.6172 2.4056 21.6172 2.18346C21.6172 1.96133 21.4371 1.78125 21.215 1.78125Z" fill="#1D1D1B"/>
<path d="M21.6172 2.98305C21.6172 3.20453 21.7967 3.38407 22.0182 3.38407H22.4789H22.9372C23.1587 3.38407 23.3382 3.20453 23.3382 2.98305C23.3382 2.76157 23.1587 2.58203 22.9372 2.58203H22.4789H22.0182C21.7967 2.58203 21.6172 2.76157 21.6172 2.98305Z" fill="#1D1D1B"/>
<path d="M19.893 1.78099H20.3501C20.5722 1.78099 20.7523 1.60092 20.7523 1.37878C20.7523 1.15664 20.5722 0.976562 20.3501 0.976562H19.893H19.4335C19.2113 0.976562 19.0312 1.15664 19.0312 1.37878C19.0312 1.60092 19.2113 1.78099 19.4335 1.78099H19.893Z" fill="#1D1D1B"/>
<path d="M23.7954 3.38672H23.7382C23.516 3.38672 23.3359 3.5668 23.3359 3.78893C23.3359 4.01107 23.516 4.19115 23.7382 4.19115H23.7954C24.0176 4.19115 24.1977 4.01107 24.1977 3.78893C24.1977 3.5668 24.0176 3.38672 23.7954 3.38672Z" fill="#1D1D1B"/>
<path d="M16.4531 0.976303H17.3124H18.1741H18.6313C18.8534 0.976303 19.0335 0.796226 19.0335 0.574089C19.0335 0.351952 18.8534 0.171875 18.6313 0.171875H18.1741H17.3124H16.4531H15.996C15.7738 0.171875 15.5938 0.351952 15.5938 0.574089C15.5938 0.796226 15.7738 0.976303 15.996 0.976303H16.4531Z" fill="#1D1D1B"/>
<path d="M22.4789 19.0467C22.4789 18.8246 22.2988 18.6445 22.0767 18.6445H22.0194C21.7973 18.6445 21.6172 18.8246 21.6172 19.0467C21.6172 19.2689 21.7973 19.449 22.0194 19.449H22.0767C22.2988 19.449 22.4789 19.2689 22.4789 19.0467Z" fill="#1D1D1B"/>
<path d="M25.9164 8.20312H25.0547H25.9164V9.00517V9.80959V10.6116V11.4161V12.2181V13.0225V13.8222V14.6266V15.4311V15.8022C25.9164 16.0402 26.1093 16.2331 26.3473 16.2331C26.5852 16.2331 26.7781 16.0402 26.7781 15.8022V15.4311V14.6266V13.8222V13.0225V12.2181V11.4161V10.6116V9.80959V9.00517C26.7781 8.56221 26.4191 8.20312 25.9761 8.20312H25.9164Z" fill="#1D1D1B"/>
<path d="M22.9062 20.25C22.6689 20.25 22.4766 20.4424 22.4766 20.6797V21.0544V21.4268C22.4766 21.6641 22.6689 21.8565 22.9062 21.8565C23.1435 21.8565 23.3359 21.6641 23.3359 21.4268V21.0544V20.6797C23.3359 20.4424 23.1435 20.25 22.9062 20.25Z" fill="#1D1D1B"/>
<path d="M23.7954 19.4453H23.7382C23.516 19.4453 23.3359 19.6254 23.3359 19.8475C23.3359 20.0697 23.516 20.2497 23.7382 20.2497H23.7954C24.0176 20.2497 24.1977 20.0697 24.1977 19.8475C24.1977 19.6254 24.0176 19.4453 23.7954 19.4453Z" fill="#1D1D1B"/>
<path d="M25.4855 16.2344C25.2475 16.2344 25.0546 16.4273 25.0546 16.6652V17.0388V17.4112C25.0546 17.6485 24.8623 17.8408 24.625 17.8408C24.3877 17.8408 24.1953 18.0332 24.1953 18.2705V18.6429V19.0177C24.1953 19.2549 24.3877 19.4473 24.625 19.4473C24.8623 19.4473 25.0546 19.2549 25.0546 19.0177V18.6429V18.2717C25.0546 18.0337 25.2475 17.8408 25.4855 17.8408C25.7235 17.8408 25.9164 17.6479 25.9164 17.41V17.0388V16.6652C25.9164 16.4273 25.7235 16.2344 25.4855 16.2344Z" fill="#1D1D1B"/>
<path d="M19.0312 23.862C19.0312 23.6405 18.8517 23.4609 18.6302 23.4609H18.5729C18.3514 23.4609 18.1719 23.6405 18.1719 23.862C18.1719 24.0834 18.3514 24.263 18.5729 24.263H18.6302C18.8517 24.263 19.0312 24.0834 19.0312 23.862Z" fill="#1D1D1B"/>
<path d="M21.6172 21.8567V21.4844C21.6172 21.2471 21.4248 21.0547 21.1875 21.0547C20.9502 21.0547 20.7578 21.2471 20.7578 21.4844V21.8567V22.2315C20.7578 22.4688 20.9502 22.6612 21.1875 22.6612C21.4248 22.6612 21.6172 22.4688 21.6172 22.2315V21.8567Z" fill="#1D1D1B"/>
<path d="M20.3579 22.6602H20.3007C20.0785 22.6602 19.8984 22.8402 19.8984 23.0624C19.8984 23.2845 20.0785 23.4646 20.3007 23.4646H20.3579C20.5801 23.4646 20.7602 23.2845 20.7602 23.0624C20.7602 22.8402 20.5801 22.6602 20.3579 22.6602Z" fill="#1D1D1B"/>
<path d="M15.9938 22.6602C15.7723 22.6602 15.5927 22.8397 15.5927 23.0612C15.5927 23.2827 15.4132 23.4622 15.1917 23.4622H14.7334H13.8717H13.0124H12.1507H11.2937H10.432H9.57026H9.11196C8.89048 23.4622 8.71094 23.6417 8.71094 23.8632C8.71094 24.0847 8.89048 24.2642 9.11196 24.2642H9.57026H10.432H11.2937H12.1507H13.0124H13.8717H14.7334H15.1917C15.4132 24.2642 15.5927 24.0847 15.5927 23.8632C15.5927 23.6417 15.7723 23.4622 15.9938 23.4622H16.4521H16.9104C17.1319 23.4622 17.3114 23.2827 17.3114 23.0612C17.3114 22.8397 17.1319 22.6602 16.9104 22.6602H16.4521H15.9938Z" fill="#1D1D1B"/>
<path d="M17.772 21.8555H17.7147C17.4926 21.8555 17.3125 22.0355 17.3125 22.2577C17.3125 22.4798 17.4926 22.6599 17.7147 22.6599H17.772C17.9941 22.6599 18.1742 22.4798 18.1742 22.2577C18.1742 22.0355 17.9941 21.8555 17.772 21.8555Z" fill="#1D1D1B"/>
<path d="M19.0312 20.6522C19.0312 20.8744 18.8511 21.0544 18.629 21.0544H18.5729C18.3514 21.0544 18.1719 21.234 18.1719 21.4554C18.1719 21.6769 18.3514 21.8565 18.5729 21.8565H19.0312H19.0909C19.5338 21.8565 19.8929 21.4974 19.8929 21.0544V20.6809C19.8929 20.4429 19.7 20.25 19.4621 20.25H19.4334C19.2113 20.25 19.0312 20.4301 19.0312 20.6522Z" fill="#1D1D1B"/>
<path d="M20.3579 19.4453H20.3007C20.0785 19.4453 19.8984 19.6254 19.8984 19.8475C19.8984 20.0697 20.0785 20.2497 20.3007 20.2497H20.3579C20.5801 20.2497 20.7602 20.0697 20.7602 19.8475C20.7602 19.6254 20.5801 19.4453 20.3579 19.4453Z" fill="#1D1D1B"/>
<path d="M21.215 18.6445H21.16C20.9379 18.6445 20.7578 18.8246 20.7578 19.0467C20.7578 19.2689 20.9379 19.449 21.16 19.449H21.215C21.4371 19.449 21.6172 19.2689 21.6172 19.0467C21.6172 18.8246 21.4371 18.6445 21.215 18.6445Z" fill="#1D1D1B"/>
<path d="M21.6172 17.8411V18.2123C21.6172 18.4502 21.8101 18.6431 22.048 18.6431C22.286 18.6431 22.4789 18.4502 22.4789 18.2123V17.8411V17.4699C22.4789 17.232 22.286 17.0391 22.048 17.0391C21.8101 17.0391 21.6172 17.232 21.6172 17.4699V17.8411Z" fill="#1D1D1B"/>
<path d="M22.9062 9.00781C22.6689 9.00781 22.4766 9.20018 22.4766 9.43747V9.81224V10.6143V11.4187V12.2208V13.0252V13.8248V14.6293V15.4337V16.2357V16.6105C22.4766 16.8478 22.6689 17.0402 22.9062 17.0402C23.1435 17.0402 23.3359 16.8478 23.3359 16.6105V16.2357V15.4337V14.6293V13.8248V13.0252V12.2208V11.4187V10.6143V9.81224V9.43747C23.3359 9.20018 23.1435 9.00781 22.9062 9.00781Z" fill="#1D1D1B"/>
<path d="M21.6172 7.40209V7.77327C21.6172 8.01123 21.8101 8.20413 22.048 8.20413C22.286 8.20413 22.4789 8.01123 22.4789 7.77327V7.40209V7.02851C22.4789 6.79056 22.286 6.59766 22.048 6.59766C21.8101 6.59766 21.6172 6.79056 21.6172 7.02851V7.40209Z" fill="#1D1D1B"/>
<path d="M21.215 4.99219H21.16C20.9379 4.99219 20.7578 5.17226 20.7578 5.3944C20.7578 5.61654 20.9379 5.79662 21.16 5.79662H21.215C21.4371 5.79662 21.6172 5.61654 21.6172 5.3944C21.6172 5.17226 21.4371 4.99219 21.215 4.99219Z" fill="#1D1D1B"/>
<path d="M16.9114 17.8398H16.8541C16.6327 17.8398 16.4531 18.0194 16.4531 18.2409C16.4531 18.4623 16.6327 18.6419 16.8541 18.6419H16.9114C17.1329 18.6419 17.3124 18.4623 17.3124 18.2409C17.3124 18.0194 17.1329 17.8398 16.9114 17.8398Z" fill="#1D1D1B"/>
<path d="M18.1742 9.00643V9.38119C18.1742 9.61849 18.3666 9.81086 18.6039 9.81086C18.8412 9.81086 19.0335 10.0032 19.0335 10.2405V10.6129V11.4173V12.2194V13.0238V13.8235V14.1982C19.0335 14.4355 18.8412 14.6279 18.6039 14.6279C18.3666 14.6279 18.1742 14.8202 18.1742 15.0575V15.4323V15.8035C18.1742 16.0415 17.9813 16.2344 17.7434 16.2344C17.5054 16.2344 17.3125 16.4273 17.3125 16.6652V17.0388V17.41C17.3125 17.6479 17.5054 17.8408 17.7434 17.8408H17.7732C17.9947 17.8408 18.1742 17.6613 18.1742 17.4398C18.1742 17.2183 18.3538 17.0388 18.5752 17.0388H18.6039C18.8412 17.0388 19.0335 16.8464 19.0335 16.6091V16.2344V15.8632C19.0335 15.6252 19.2264 15.4323 19.4644 15.4323C19.7024 15.4323 19.8953 15.2394 19.8953 15.0015V14.6279V13.8235V13.0238V12.2194V11.4173V10.6129V9.81086V9.43728C19.8953 9.19933 19.7024 9.00643 19.4644 9.00643C19.2264 9.00643 19.0335 8.81353 19.0335 8.57557V8.20439V7.83201C19.0335 7.59471 18.8412 7.40234 18.6039 7.40234C18.3666 7.40234 18.1742 7.59471 18.1742 7.83201V8.20439V9.00643Z" fill="#1D1D1B"/>
<path d="M17.772 6.59766H17.7147C17.4926 6.59766 17.3125 6.77773 17.3125 6.99987C17.3125 7.22201 17.4926 7.40209 17.7147 7.40209H17.772C17.9941 7.40209 18.1742 7.22201 18.1742 6.99987C18.1742 6.77773 17.9941 6.59766 17.772 6.59766Z" fill="#1D1D1B"/>
<path d="M16.9102 5.79688H16.8553C16.6332 5.79688 16.4531 5.97695 16.4531 6.19909C16.4531 6.42123 16.6332 6.60131 16.8553 6.60131H16.9102C17.1324 6.60131 17.3124 6.42123 17.3124 6.19909C17.3124 5.97695 17.1324 5.79688 16.9102 5.79688Z" fill="#1D1D1B"/>
<path d="M20.3579 4.1875H20.3007C20.0785 4.1875 19.8984 4.36758 19.8984 4.58971C19.8984 4.81185 20.0785 4.99193 20.3007 4.99193H20.3579C20.5801 4.99193 20.7602 4.81185 20.7602 4.58971C20.7602 4.36758 20.5801 4.1875 20.3579 4.1875Z" fill="#1D1D1B"/>
<path d="M19.4907 3.38672H19.4335C19.2113 3.38672 19.0312 3.5668 19.0312 3.78893C19.0312 4.01107 19.2113 4.19115 19.4335 4.19115H19.4908C19.7129 4.19115 19.893 4.01107 19.893 3.78893C19.893 3.5668 19.7129 3.38672 19.4907 3.38672Z" fill="#1D1D1B"/>
<path d="M18.6302 2.58203H18.5729C18.3514 2.58203 18.1719 2.76157 18.1719 2.98305C18.1719 3.20453 18.3514 3.38407 18.5729 3.38407H18.6302C18.8517 3.38407 19.0312 3.20453 19.0312 2.98305C19.0312 2.76157 18.8517 2.58203 18.6302 2.58203Z" fill="#1D1D1B"/>
<path d="M17.772 1.78125H17.7147C17.4926 1.78125 17.3125 1.96133 17.3125 2.18346C17.3125 2.4056 17.4926 2.58568 17.7147 2.58568H17.772C17.9941 2.58568 18.1742 2.4056 18.1742 2.18346C18.1742 1.96133 17.9941 1.78125 17.772 1.78125Z" fill="#1D1D1B"/>
<path d="M15.5938 1.37878C15.5938 1.60092 15.7738 1.78099 15.996 1.78099H16.4531H16.9102C17.1324 1.78099 17.3124 1.60092 17.3124 1.37878C17.3124 1.15664 17.1324 0.976562 16.9102 0.976562H16.4531H15.996C15.7738 0.976562 15.5938 1.15664 15.5938 1.37878Z" fill="#1D1D1B"/>
<path d="M7.85151 22.6602H7.39321C7.17173 22.6602 6.99219 22.8397 6.99219 23.0612C6.99219 23.2827 7.17173 23.4622 7.39321 23.4622H7.85151H8.30981C8.53129 23.4622 8.71084 23.2827 8.71084 23.0612C8.71084 22.8397 8.53129 22.6602 8.30981 22.6602H7.85151Z" fill="#1D1D1B"/>
<path d="M6.59234 21.8555H6.53503C6.31289 21.8555 6.13281 22.0355 6.13281 22.2577C6.13281 22.4798 6.31289 22.6599 6.53503 22.6599H6.59234C6.81448 22.6599 6.99456 22.4798 6.99456 22.2577C6.99456 22.0355 6.81448 21.8555 6.59234 21.8555Z" fill="#1D1D1B"/>
<path d="M5.6756 21.0544C5.45346 21.0544 5.27339 20.8744 5.27339 20.6522C5.27339 20.4301 5.09331 20.25 4.87117 20.25H4.84372C4.60643 20.25 4.41406 20.4424 4.41406 20.6797V21.0544C4.41406 21.4974 4.77315 21.8565 5.2161 21.8565H5.27339H5.73169C5.95317 21.8565 6.13271 21.6769 6.13271 21.4554C6.13271 21.234 5.95317 21.0544 5.73169 21.0544H5.6756Z" fill="#1D1D1B"/>
<path d="M4.0118 19.4453H3.9569C3.73476 19.4453 3.55469 19.6254 3.55469 19.8475C3.55469 20.0697 3.73476 20.2497 3.9569 20.2497H4.0118C4.23393 20.2497 4.41401 20.0697 4.41401 19.8475C4.41401 19.6254 4.23394 19.4453 4.0118 19.4453Z" fill="#1D1D1B"/>
<path d="M9.57021 20.251H10.4319H11.2936H12.1506H13.0123H13.8716H14.7334H15.1917C15.4131 20.251 15.5927 20.0715 15.5927 19.85C15.5927 19.6285 15.7722 19.449 15.9937 19.449H16.0498C16.272 19.449 16.452 19.2689 16.452 19.0467C16.452 18.8246 16.272 18.6445 16.0498 18.6445H15.5927H15.1356C14.9134 18.6445 14.7334 18.8246 14.7334 19.0467C14.7334 19.2689 14.5533 19.449 14.3311 19.449H13.8716H13.0123H12.1506H11.2936H10.4319H9.97243C9.75029 19.449 9.57021 19.2689 9.57021 19.0467C9.57021 18.8246 9.39013 18.6445 9.168 18.6445H8.71089H8.25378C8.03164 18.6445 7.85156 18.8246 7.85156 19.0467C7.85156 19.2689 8.03164 19.449 8.25378 19.449H8.30986C8.53134 19.449 8.71089 19.6285 8.71089 19.85C8.71089 20.0715 8.89043 20.251 9.11191 20.251H9.57021Z" fill="#1D1D1B"/>
<path d="M7.45049 17.8398H7.39321C7.17173 17.8398 6.99219 18.0194 6.99219 18.2409C6.99219 18.4623 7.17173 18.6419 7.39321 18.6419H7.45049C7.67197 18.6419 7.85151 18.4623 7.85151 18.2409C7.85151 18.0194 7.67197 17.8398 7.45049 17.8398Z" fill="#1D1D1B"/>
<path d="M3.54921 18.2707C3.54921 18.0327 3.35631 17.8398 3.11836 17.8398C2.8804 17.8398 2.6875 18.0327 2.6875 18.2707V18.6419V19.0155C2.6875 19.2534 2.8804 19.4463 3.11836 19.4463C3.35631 19.4463 3.54921 19.2534 3.54921 19.0155V18.6419V18.2707Z" fill="#1D1D1B"/>
<path d="M2.68984 16.6652C2.68984 16.4273 2.49694 16.2344 2.25898 16.2344C2.02103 16.2344 1.82812 16.4273 1.82812 16.6652V17.0388V17.41C1.82812 17.6479 2.02103 17.8408 2.25898 17.8408C2.49694 17.8408 2.68984 17.6479 2.68984 17.41V17.0388V16.6652Z" fill="#1D1D1B"/>
<path d="M1.8281 14.6293V13.8248V13.0252V12.2208V11.4187V10.6143V9.81224V9.43749C1.8281 9.20019 1.63573 9.00781 1.39843 9.00781C1.16112 9.00781 0.96875 9.20019 0.96875 9.43749V9.81224V10.6143V11.4187V12.2208V13.0252V13.8248V14.6293V15.004C0.96875 15.2413 1.16112 15.4337 1.39843 15.4337C1.63573 15.4337 1.8281 15.2413 1.8281 15.004V14.6293Z" fill="#1D1D1B"/>
<path d="M6.99446 16.665C6.99446 16.427 6.80155 16.2341 6.56358 16.2341C6.32562 16.2341 6.13271 16.0412 6.13271 15.8032V15.4321V15.0573C6.13271 14.82 5.94035 14.6276 5.70305 14.6276C5.46575 14.6276 5.27339 14.4353 5.27339 14.198V13.8232V13.0235V12.2191V11.4171V10.6126V10.2403C5.27339 10.003 5.46575 9.8106 5.70305 9.8106C5.94035 9.8106 6.13271 9.61823 6.13271 9.38094V9.00617V8.635C6.13271 8.39704 6.32562 8.20413 6.56358 8.20413C6.80155 8.20413 6.99446 8.01122 6.99446 7.77326V7.40209V7.02853C6.99446 6.79056 6.80155 6.59766 6.56358 6.59766H6.53493C6.31279 6.59766 6.13271 6.77773 6.13271 6.99987C6.13271 7.22201 5.95263 7.40209 5.7305 7.40209H5.70305C5.46575 7.40209 5.27339 7.59445 5.27339 7.83175V8.20413V8.57651C5.27339 8.81381 5.08102 9.00617 4.84372 9.00617C4.60643 9.00617 4.41406 9.19854 4.41406 9.43583V9.8106V10.6126V11.4171V12.2191V13.0235V13.8232V14.6276V15.0024C4.41406 15.2397 4.60643 15.4321 4.84372 15.4321C5.08102 15.4321 5.27339 15.6244 5.27339 15.8617V16.2341V16.6089C5.27339 16.8462 5.46575 17.0385 5.70305 17.0385H5.73169C5.95317 17.0385 6.13271 17.2181 6.13271 17.4395C6.13271 17.661 6.31225 17.8406 6.53373 17.8406H6.56358C6.80155 17.8406 6.99446 17.6477 6.99446 17.4097V17.0385V16.665Z" fill="#1D1D1B"/>
<path d="M2.68984 7.40209V7.02851C2.68984 6.79056 2.49694 6.59766 2.25898 6.59766C2.02103 6.59766 1.82812 6.79056 1.82812 7.02851V7.40209V7.77327C1.82812 8.01123 2.02103 8.20413 2.25898 8.20413C2.49694 8.20413 2.68984 8.01123 2.68984 7.77327V7.40209Z" fill="#1D1D1B"/>
<path d="M7.4493 5.79688H7.3944C7.17227 5.79688 6.99219 5.97695 6.99219 6.19909C6.99219 6.42123 7.17227 6.60131 7.3944 6.60131H7.4493C7.67143 6.60131 7.85151 6.42123 7.85151 6.19909C7.85151 5.97695 7.67143 5.79688 7.4493 5.79688Z" fill="#1D1D1B"/>
<path d="M3.54921 5.79662V5.42304C3.54921 5.18509 3.35631 4.99219 3.11836 4.99219C2.8804 4.99219 2.6875 5.18509 2.6875 5.42304V5.79662V6.1678C2.6875 6.40576 2.8804 6.59866 3.11836 6.59866C3.35631 6.59866 3.54921 6.40576 3.54921 6.1678V5.79662Z" fill="#1D1D1B"/>
<path d="M9.168 5.79636C9.39014 5.79636 9.57021 5.61628 9.57021 5.39414C9.57021 5.17201 9.75029 4.99193 9.97243 4.99193H10.4319H11.2936H12.1506H13.0123H13.8716H14.3311C14.5533 4.99193 14.7334 5.17201 14.7334 5.39414C14.7334 5.61628 14.9134 5.79636 15.1356 5.79636H15.5927H16.0498C16.272 5.79636 16.452 5.61628 16.452 5.39414C16.452 5.17201 16.272 4.99193 16.0498 4.99193H15.9949C15.7728 4.99193 15.5927 4.81185 15.5927 4.58971C15.5927 4.36758 15.4126 4.1875 15.1905 4.1875H14.7334H13.8716H13.0123H12.1506H11.2936H10.4319H9.57021H9.1131C8.89096 4.1875 8.71089 4.36758 8.71089 4.58971C8.71089 4.81185 8.53081 4.99193 8.30867 4.99193H8.25378C8.03164 4.99193 7.85156 5.17201 7.85156 5.39414C7.85156 5.61628 8.03164 5.79636 8.25378 5.79636H8.71089H9.168Z" fill="#1D1D1B"/>
<path d="M4.0118 4.1875H3.9569C3.73476 4.1875 3.55469 4.36758 3.55469 4.58971C3.55469 4.81185 3.73476 4.99193 3.9569 4.99193H4.0118C4.23393 4.99193 4.41401 4.81185 4.41401 4.58971C4.41401 4.36758 4.23394 4.1875 4.0118 4.1875Z" fill="#1D1D1B"/>
<path d="M4.87356 3.38672H4.81628C4.59414 3.38672 4.41406 3.5668 4.41406 3.78893C4.41406 4.01107 4.59414 4.19115 4.81628 4.19115H4.87356C5.0957 4.19115 5.27578 4.01107 5.27578 3.78893C5.27578 3.5668 5.0957 3.38672 4.87356 3.38672Z" fill="#1D1D1B"/>
<path d="M5.73174 2.58203H5.67446C5.45298 2.58203 5.27344 2.76157 5.27344 2.98305C5.27344 3.20453 5.45298 3.38407 5.67446 3.38407H5.73174C5.95322 3.38407 6.13276 3.20453 6.13276 2.98305C6.13276 2.76157 5.95322 2.58203 5.73174 2.58203Z" fill="#1D1D1B"/>
<path d="M6.59234 1.78125H6.53503C6.31289 1.78125 6.13281 1.96133 6.13281 2.18346C6.13281 2.4056 6.31289 2.58568 6.53503 2.58568H6.59234C6.81448 2.58568 6.99456 2.4056 6.99456 2.18346C6.99456 1.96133 6.81448 1.78125 6.59234 1.78125Z" fill="#1D1D1B"/>
<path d="M8.30862 1.78099C8.53076 1.78099 8.71084 1.60092 8.71084 1.37878C8.71084 1.15664 8.53076 0.976562 8.30862 0.976562H7.85151H7.3944C7.17227 0.976562 6.99219 1.15664 6.99219 1.37878C6.99219 1.60092 7.17227 1.78099 7.3944 1.78099H7.85151H8.30862Z" fill="#1D1D1B"/>
<path d="M10.432 0.976303H11.2937H12.1507H13.0124H13.8717H14.7334H15.1905C15.4127 0.976303 15.5927 0.796226 15.5927 0.574089C15.5927 0.351952 15.4127 0.171875 15.1905 0.171875H14.7334H13.8717H13.0124H12.1507H11.2937H10.432H9.57026H9.11315C8.89101 0.171875 8.71094 0.351952 8.71094 0.574089C8.71094 0.796226 8.89101 0.976303 9.11315 0.976303H9.57026H10.432Z" fill="#1D1D1B"/>
<path d="M24.1952 6.59766H23.7381C23.516 6.59766 23.3359 6.77773 23.3359 6.99987C23.3359 7.22201 23.1558 7.40209 22.9337 7.40209H22.9062C22.6689 7.40209 22.4766 7.59445 22.4766 7.83175V8.20413V8.57651C22.4766 8.81381 22.6689 9.00617 22.9062 9.00617H22.9349C23.1563 9.00617 23.3359 8.82663 23.3359 8.60515C23.3359 8.38367 23.5154 8.20413 23.7369 8.20413H24.1952H24.2525C24.6955 8.20413 25.0545 7.84504 25.0545 7.40209C25.0545 6.95781 24.6944 6.59766 24.2501 6.59766H24.1952Z" fill="white"/>
<path d="M23.3382 4.1875H22.4789H21.6172H21.16C20.9379 4.1875 20.7578 4.36758 20.7578 4.58971C20.7578 4.81185 20.9379 4.99193 21.16 4.99193H21.215C21.4371 4.99193 21.6172 5.17201 21.6172 5.39414C21.6172 5.61628 21.7972 5.79636 22.0194 5.79636H22.0767C22.2988 5.79636 22.4789 5.61628 22.4789 5.39414C22.4789 5.17201 22.659 4.99193 22.8811 4.99193H23.3382H23.7953C24.0175 4.99193 24.1975 4.81185 24.1975 4.58971C24.1975 4.36758 24.0175 4.1875 23.7953 4.1875H23.3382Z" fill="white"/>
<path d="M13.0123 18.6429H12.1506H11.2936H10.8329C10.6114 18.6429 10.4319 18.4633 10.4319 18.2419C10.4319 18.0204 10.2523 17.8408 10.0309 17.8408H9.57016H9.11186C8.89038 17.8408 8.71084 17.6613 8.71084 17.4398C8.71084 17.2183 8.53129 17.0388 8.30982 17.0388H8.25373C8.03159 17.0388 7.85151 16.8587 7.85151 16.6366C7.85151 16.4145 7.67143 16.2344 7.4493 16.2344H7.42185C7.18455 16.2344 6.99219 16.4267 6.99219 16.664V17.0388V17.4112C6.99219 17.6485 7.18455 17.8408 7.42185 17.8408H7.45049C7.67197 17.8408 7.85151 18.0204 7.85151 18.2419C7.85151 18.4633 8.03106 18.6429 8.25254 18.6429H8.71084H9.16795C9.39008 18.6429 9.57016 18.823 9.57016 19.0451C9.57016 19.2672 9.75024 19.4473 9.97238 19.4473H10.4319H11.2936H12.1506H13.0123H13.8716H14.3311C14.5532 19.4473 14.7333 19.2672 14.7333 19.0451C14.7333 18.823 14.5532 18.6429 14.3311 18.6429H13.8716H13.0123Z" fill="white"/>
<path d="M15.1354 17.8398C14.9139 17.8398 14.7344 18.0194 14.7344 18.2409C14.7344 18.4623 14.9139 18.6419 15.1354 18.6419H15.5937H16.052C16.2735 18.6419 16.4531 18.4623 16.4531 18.2409C16.4531 18.0194 16.2735 17.8398 16.052 17.8398H15.5937H15.1354Z" fill="white"/>
<path d="M16.9102 17.0391H16.8553C16.6332 17.0391 16.4531 17.2191 16.4531 17.4413C16.4531 17.6634 16.6332 17.8435 16.8553 17.8435H16.9102C17.1324 17.8435 17.3124 17.6634 17.3124 17.4413C17.3124 17.2191 17.1324 17.0391 16.9102 17.0391Z" fill="white"/>
<path d="M6.99456 15.0598C6.99456 14.8218 6.80165 14.6289 6.56368 14.6289C6.32572 14.6289 6.13281 14.8218 6.13281 15.0598V15.4333V15.8045C6.13281 16.0425 6.32572 16.2354 6.56368 16.2354C6.80165 16.2354 6.99456 16.0425 6.99456 15.8045V15.4333V15.0598Z" fill="white"/>
<path d="M6.13276 13.0244V12.22V11.8476C6.13276 11.6103 5.9404 11.418 5.7031 11.418C5.4658 11.418 5.27344 11.6103 5.27344 11.8476V12.22V13.0244V13.8241V14.1989C5.27344 14.4362 5.4658 14.6285 5.7031 14.6285C5.9404 14.6285 6.13276 14.4362 6.13276 14.1989V13.8241V13.0244Z" fill="white"/>
<path d="M5.73055 9.8125H5.67565C5.45351 9.8125 5.27344 9.99258 5.27344 10.2147C5.27344 10.4369 5.45351 10.6169 5.67565 10.6169H5.73055C5.95268 10.6169 6.13276 10.4369 6.13276 10.2147C6.13276 9.99258 5.95269 9.8125 5.73055 9.8125Z" fill="white"/>
<path d="M22.0767 21.0547H22.0194C21.7973 21.0547 21.6172 21.2348 21.6172 21.4569C21.6172 21.679 21.7973 21.8591 22.0194 21.8591H22.0767C22.2988 21.8591 22.4789 21.679 22.4789 21.4569C22.4789 21.2348 22.2988 21.0547 22.0767 21.0547Z" fill="white"/>
<path d="M22.9337 18.6445H22.8788C22.6566 18.6445 22.4766 18.8246 22.4766 19.0467C22.4766 19.2689 22.6566 19.449 22.8788 19.449H22.9337C23.1558 19.449 23.3359 19.2689 23.3359 19.0467C23.3359 18.8246 23.1558 18.6445 22.9337 18.6445Z" fill="white"/>
<path d="M5.73055 10.6133H5.67565C5.45351 10.6133 5.27344 10.7934 5.27344 11.0155C5.27344 11.2376 5.45351 11.4177 5.67565 11.4177H5.73055C5.95268 11.4177 6.13276 11.2376 6.13276 11.0155C6.13276 10.7934 5.95269 10.6133 5.73055 10.6133Z" fill="#FAF1CE"/>
<path d="M25.9153 8.20312H25.0535H24.1942H24.1369C23.694 8.20312 23.3349 8.56221 23.3349 9.00517V9.80959V10.6116V11.4161V12.2181V13.0225V13.8222V14.6266V15.4311V16.2331V16.6079C23.3349 16.8452 23.1425 17.0375 22.9052 17.0375C22.6679 17.0375 22.4756 17.2299 22.4756 17.4672V17.8396V18.2119C22.4756 18.4492 22.6679 18.6416 22.9052 18.6416H22.9327C23.1548 18.6416 23.3349 18.8217 23.3349 19.0438C23.3349 19.266 23.1548 19.446 22.9327 19.446H22.8778C22.6557 19.446 22.4756 19.266 22.4756 19.0438C22.4756 18.8217 22.2955 18.6416 22.0734 18.6416H22.0161C21.7939 18.6416 21.6139 18.8217 21.6139 19.0438C21.6139 19.266 21.4338 19.446 21.2116 19.446H21.1555C20.9341 19.446 20.7545 19.6256 20.7545 19.8471C20.7545 20.0685 20.575 20.2481 20.3535 20.2481H20.3248C20.0875 20.2481 19.8952 20.4404 19.8952 20.6777V21.0525C19.8952 21.4955 19.5361 21.8545 19.0931 21.8545H19.0335H18.5764C18.3542 21.8545 18.1741 22.0346 18.1741 22.2568C18.1741 22.4789 17.9941 22.659 17.7719 22.659H17.7135C17.492 22.659 17.3124 22.8385 17.3124 23.06C17.3124 23.2815 17.1329 23.461 16.9114 23.461H16.4531H15.9948C15.7733 23.461 15.5938 23.6406 15.5938 23.862C15.5938 24.0835 15.7733 24.2631 15.9948 24.2631H16.4531H17.3124H18.1741H18.6324C18.8539 24.2631 19.0335 24.0835 19.0335 23.862C19.0335 23.6406 19.213 23.461 19.4345 23.461H19.8952H20.3535C20.575 23.461 20.7545 23.2815 20.7545 23.06C20.7545 22.8385 20.9341 22.659 21.1555 22.659H21.1842C21.4215 22.659 21.6139 22.4666 21.6139 22.2293V21.8545V21.4834C21.6139 21.2454 21.8068 21.0525 22.0447 21.0525H22.0746C22.296 21.0525 22.4756 21.232 22.4756 21.4535C22.4756 21.675 22.6551 21.8545 22.8766 21.8545H22.9052C23.1425 21.8545 23.3349 21.6622 23.3349 21.4249V21.0525V20.6777C23.3349 20.4404 23.5273 20.2481 23.7646 20.2481H23.7932C24.0147 20.2481 24.1942 20.0685 24.1942 19.8471C24.1942 19.6256 24.3738 19.446 24.5952 19.446H24.6239C24.8612 19.446 25.0535 19.2537 25.0535 19.0164V18.6416V18.2704C25.0535 18.0325 25.2465 17.8396 25.4844 17.8396C25.7224 17.8396 25.9153 17.6467 25.9153 17.4087V17.0375V16.664C25.9153 16.426 26.1082 16.2331 26.3461 16.2331C26.5841 16.2331 26.777 16.0402 26.777 15.8022V15.4311V14.6266V13.8222V13.0225V12.2181V11.4161V10.6116V9.80959V9.00517C26.777 8.56221 26.4179 8.20312 25.975 8.20312H25.9153Z" fill="white"/>
<path d="M17.322 23.4414C17.3167 23.4414 17.3124 23.4457 17.3124 23.451C17.3124 23.4562 17.3082 23.4605 17.3029 23.4605H15.9948C15.7733 23.4605 15.5938 23.64 15.5938 23.8615C15.5938 24.083 15.7733 24.2625 15.9948 24.2625H18.6324C18.8539 24.2625 19.0335 24.083 19.0335 23.8615C19.0335 23.64 19.213 23.4605 19.4345 23.4605H20.745C20.7502 23.4605 20.7545 23.4562 20.7545 23.451C20.7545 23.4457 20.7502 23.4414 20.745 23.4414H17.322Z" fill="#1D1D1B"/>
<path d="M22.0767 5.79688H22.0194C21.7973 5.79688 21.6172 5.97695 21.6172 6.19909C21.6172 6.42123 21.7973 6.60131 22.0194 6.60131H22.0767C22.2988 6.60131 22.4789 6.42123 22.4789 6.19909C22.4789 5.97695 22.2988 5.79688 22.0767 5.79688Z" fill="white"/>
<path d="M22.0415 8.20568C21.8027 8.20502 21.6094 8.01125 21.6094 7.77244V6.22565C21.6094 5.98835 21.4171 5.79598 21.1798 5.79598H21.1523C20.9302 5.79598 20.7501 5.6159 20.7501 5.39376C20.7501 5.17162 20.57 4.99155 20.3479 4.99155H20.293C20.0708 4.99155 19.8908 4.81147 19.8908 4.58933C19.8908 4.3672 19.7107 4.18712 19.4885 4.18712H19.4301C19.2086 4.18712 19.029 4.00758 19.029 3.7861C19.029 3.56462 18.8495 3.38508 18.628 3.38508H18.5707C18.3493 3.38508 18.1697 3.20553 18.1697 2.98406C18.1697 2.76258 17.9902 2.58304 17.7687 2.58304H17.7019C17.4804 2.58304 17.3008 2.40349 17.3008 2.18201C17.3008 1.96054 17.1213 1.78099 16.8998 1.78099H15.9844C15.7623 1.78099 15.5822 1.60092 15.5822 1.37878C15.5822 1.15664 15.4021 0.976562 15.18 0.976562H9.10975C8.88761 0.976562 8.70753 1.15664 8.70753 1.37878C8.70753 1.60092 8.52745 1.78099 8.30532 1.78099H7.3899C7.16843 1.78099 6.98888 1.96054 6.98888 2.18201C6.98888 2.40349 6.80934 2.58304 6.58786 2.58304H6.52816C6.30668 2.58304 6.12714 2.76258 6.12714 2.98406C6.12714 3.20553 5.9476 3.38508 5.72612 3.38508H5.66883C5.44736 3.38508 5.26781 3.56462 5.26781 3.7861C5.26781 4.00758 5.08827 4.18712 4.86679 4.18712H4.81309C4.59096 4.18712 4.41088 4.3672 4.41088 4.58933C4.41088 4.81147 4.2308 4.99155 4.00866 4.99155H3.98122C3.74392 4.99155 3.55155 5.18391 3.55155 5.42121V6.17194C3.55155 6.40989 3.35865 6.60279 3.1207 6.60279C2.88274 6.60279 2.68984 6.79569 2.68984 7.03365V7.7784C2.68984 8.01636 2.49694 8.20926 2.25898 8.20926C2.02103 8.20926 1.82812 8.40216 1.82812 8.64012V15.8084C1.82812 16.0463 2.02103 16.2392 2.25898 16.2392C2.49694 16.2392 2.68984 16.4321 2.68984 16.6701V17.4148C2.68984 17.6528 2.88274 17.8457 3.1207 17.8457C3.35865 17.8457 3.55155 18.0386 3.55155 18.2766V19.0225C3.55155 19.2598 3.74392 19.4522 3.98122 19.4522H4.00986C4.23133 19.4522 4.41088 19.6317 4.41088 19.8532C4.41088 20.0747 4.59042 20.2542 4.8119 20.2542H4.86799C5.09013 20.2542 5.2702 20.4343 5.2702 20.6564C5.2702 20.8786 5.45028 21.0586 5.67242 21.0586H5.72851C5.94998 21.0586 6.12953 21.2382 6.12953 21.4597C6.12953 21.6811 6.30907 21.8607 6.53055 21.8607H6.58906C6.81119 21.8607 6.99127 22.0408 6.99127 22.2629C6.99127 22.485 7.17135 22.6651 7.39349 22.6651H8.3089C8.53038 22.6651 8.70992 22.8447 8.70992 23.0661C8.70992 23.2876 8.88946 23.4672 9.11094 23.4672H15.1907C15.4122 23.4672 15.5917 23.2876 15.5917 23.0661C15.5917 22.8447 15.7713 22.6651 15.9927 22.6651H16.9058C17.1292 22.6651 17.3104 22.484 17.3104 22.2605C17.3104 22.0371 17.4915 21.8559 17.715 21.8559H17.7711C17.9926 21.8559 18.1721 21.6764 18.1721 21.4549C18.1721 21.2334 18.3517 21.0539 18.5731 21.0539H18.6292C18.8514 21.0539 19.0314 20.8738 19.0314 20.6517C19.0314 20.4295 19.2115 20.2494 19.4337 20.2494H19.4921C19.7136 20.2494 19.8932 20.0699 19.8932 19.8484C19.8932 19.6269 20.0727 19.4474 20.2942 19.4474H20.3503C20.5724 19.4474 20.7525 19.2673 20.7525 19.0452C20.7525 18.823 20.9326 18.643 21.1547 18.643H21.1822C21.4195 18.643 21.6118 18.4506 21.6118 18.2133V17.4697C21.6118 17.2318 21.8047 17.0389 22.0427 17.0389C22.2806 17.0389 22.4735 16.846 22.4735 16.608V8.63893C22.4735 8.40012 22.2803 8.20634 22.0415 8.20568ZM4.83935 9.00653C5.07598 9.00653 5.26781 8.8147 5.26781 8.57806V7.83211C5.26781 7.59482 5.46018 7.40245 5.69748 7.40245H5.72731C5.94813 7.40245 6.12714 7.22344 6.12714 7.00262C6.12714 6.7818 6.30615 6.60279 6.52697 6.60279H6.58786C6.80934 6.60279 6.98888 6.42325 6.98888 6.20177C6.98888 5.98029 7.16843 5.80075 7.3899 5.80075H7.44599C7.66813 5.80075 7.84821 5.62067 7.84821 5.39854C7.84821 5.1764 8.02828 4.99632 8.25042 4.99632H8.30532C8.52745 4.99632 8.70753 4.81624 8.70753 4.59411C8.70753 4.37197 8.88761 4.19189 9.10975 4.19189H15.1871C15.4093 4.19189 15.5893 4.37197 15.5893 4.59411C15.5893 4.81624 15.7694 4.99632 15.9915 4.99632H16.0465C16.2686 4.99632 16.4487 5.1764 16.4487 5.39854C16.4487 5.62067 16.6288 5.80075 16.8509 5.80075H16.907C17.1285 5.80075 17.308 5.98029 17.308 6.20177C17.308 6.42325 17.4876 6.60279 17.709 6.60279H17.7675C17.9896 6.60279 18.1697 6.78287 18.1697 7.00501C18.1697 7.22714 18.3498 7.40722 18.5719 7.40722H18.5994C18.8367 7.40722 19.029 7.59959 19.029 7.83688V8.58045C19.029 8.8184 19.2219 9.0113 19.4599 9.0113C19.6979 9.0113 19.8908 9.20421 19.8908 9.44216V15.0039C19.8908 15.2419 19.6979 15.4348 19.4599 15.4348C19.2219 15.4348 19.029 15.6277 19.029 15.8657V16.6116C19.029 16.8489 18.8367 17.0413 18.5994 17.0413H18.5707C18.3493 17.0413 18.1697 17.2208 18.1697 17.4423C18.1697 17.6638 17.9902 17.8433 17.7687 17.8433H17.7019C17.4804 17.8433 17.3008 18.0229 17.3008 18.2443C17.3008 18.4658 17.1213 18.6454 16.8998 18.6454H16.8437C16.6216 18.6454 16.4415 18.8254 16.4415 19.0476C16.4415 19.2697 16.2614 19.4498 16.0393 19.4498H15.9832C15.7617 19.4498 15.5822 19.6293 15.5822 19.8508C15.5822 20.0723 15.4026 20.2518 15.1812 20.2518H9.10855C8.88707 20.2518 8.70753 20.0723 8.70753 19.8508C8.70753 19.6293 8.52799 19.4498 8.30651 19.4498H8.25042C8.02828 19.4498 7.84821 19.2697 7.84821 19.0476C7.84821 18.8254 7.66813 18.6454 7.44599 18.6454H7.3899C7.16843 18.6454 6.98888 18.4658 6.98888 18.2443C6.98888 18.0229 6.80934 17.8433 6.58786 17.8433H6.52816C6.30668 17.8433 6.12714 17.6638 6.12714 17.4423C6.12714 17.2208 5.9476 17.0413 5.72612 17.0413H5.69748C5.46018 17.0413 5.26781 16.8489 5.26781 16.6116V15.8633C5.26781 15.6266 5.07598 15.4348 4.83935 15.4348C4.60271 15.4348 4.41088 15.243 4.41088 15.0063V9.435C4.41088 9.19836 4.60271 9.00653 4.83935 9.00653Z" fill="white"/>
<path d="M6.99456 7.77426C6.99456 8.01222 6.80165 8.20513 6.56368 8.20513C6.32572 8.20513 6.13281 8.39804 6.13281 8.636V9.00717V9.8116V10.6136V11.4181V12.2201V13.0245V13.8242V14.1978C6.13281 14.4357 6.32572 14.6286 6.56368 14.6286C6.80165 14.6286 6.99456 14.8215 6.99456 15.0595V15.4331V15.8054C6.99456 16.0427 7.18692 16.2351 7.42422 16.2351H7.45167C7.6738 16.2351 7.85388 16.4152 7.85388 16.6373C7.85388 16.8594 8.03396 17.0395 8.25609 17.0395H8.31219C8.53366 17.0395 8.71321 17.2191 8.71321 17.4405C8.71321 17.662 8.89275 17.8416 9.11422 17.8416H9.57253H10.0332C10.2547 17.8416 10.4342 18.0211 10.4342 18.2426C10.4342 18.4641 10.6138 18.6436 10.8353 18.6436H11.296H12.1529H13.0146H13.874H14.3347C14.5561 18.6436 14.7357 18.4641 14.7357 18.2426C14.7357 18.0211 14.9152 17.8416 15.1367 17.8416H15.595H16.0533C16.2748 17.8416 16.4544 17.662 16.4544 17.4405C16.4544 17.2191 16.6339 17.0395 16.8554 17.0395H16.9115C17.1336 17.0395 17.3137 16.8594 17.3137 16.6373C17.3137 16.4152 17.4938 16.2351 17.7159 16.2351H17.7445C17.9825 16.2351 18.1754 16.0422 18.1754 15.8042V15.4331V15.0583C18.1754 14.821 18.3678 14.6286 18.6051 14.6286C18.8424 14.6286 19.0347 14.4363 19.0347 14.199V13.8242V13.0245V12.2201V11.4181V10.6136V10.2413C19.0347 10.004 18.8424 9.8116 18.6051 9.8116C18.3678 9.8116 18.1754 9.61923 18.1754 9.38194V9.00717V8.20513V7.83395C18.1754 7.59599 17.9825 7.40309 17.7445 7.40309H17.7159C17.4938 7.40309 17.3137 7.22301 17.3137 7.00087C17.3137 6.77874 17.1336 6.59866 16.9115 6.59866H16.8554C16.6339 6.59866 16.4544 6.41911 16.4544 6.19764C16.4544 5.97616 16.2748 5.79662 16.0533 5.79662H15.595H15.1379C14.9158 5.79662 14.7357 5.61654 14.7357 5.3944C14.7357 5.17226 14.5556 4.99219 14.3335 4.99219H13.874H13.0146H12.1529H11.296H10.4342H9.97475C9.75261 4.99219 9.57253 5.17226 9.57253 5.3944C9.57253 5.61654 9.39245 5.79662 9.17032 5.79662H8.71321H8.2549C8.03342 5.79662 7.85388 5.97616 7.85388 6.19764C7.85388 6.41911 7.67434 6.59866 7.45286 6.59866H7.42422C7.18692 6.59866 6.99456 6.79102 6.99456 7.02832V7.40309V7.77426Z" fill="white"/>
<path d="M25.4854 5.79636C25.2474 5.79636 25.0545 5.60345 25.0545 5.3655V4.99193V4.61716C25.0545 4.37987 24.8622 4.1875 24.6249 4.1875H24.5974C24.3753 4.1875 24.1952 4.36758 24.1952 4.58971C24.1952 4.81185 24.0151 4.99193 23.793 4.99193H23.3359H23.281C22.8367 4.99193 22.4766 5.35208 22.4766 5.79636V6.5984V6.97317C22.4766 7.21046 22.6689 7.40283 22.9062 7.40283H22.9337C23.1558 7.40283 23.3359 7.22275 23.3359 7.00061C23.3359 6.77848 23.516 6.5984 23.7381 6.5984H24.1952H24.2501C24.6944 6.5984 25.0545 6.95855 25.0545 7.40283V7.77401C25.0545 8.01197 25.2474 8.20487 25.4854 8.20487C25.7233 8.20487 25.9163 8.01197 25.9163 7.77401V7.40283V6.5984V6.22721C25.9163 5.98926 25.7233 5.79636 25.4854 5.79636Z" fill="white"/>
<path d="M23.7359 3.38482C23.5144 3.38482 23.3349 3.20528 23.3349 2.9838C23.3349 2.76232 23.1554 2.58278 22.9339 2.58278H22.4756H22.0149C21.7934 2.58278 21.6139 2.40323 21.6139 2.18176C21.6139 1.96028 21.4343 1.78073 21.2128 1.78073H21.1567C20.9346 1.78073 20.7545 1.60066 20.7545 1.37852C20.7545 1.15638 20.5744 0.976303 20.3523 0.976303H19.8952H19.4357C19.2135 0.976303 19.0335 0.796226 19.0335 0.574089C19.0335 0.351952 18.8534 0.171875 18.6313 0.171875H18.1741H17.3124H16.4531H15.996C15.7738 0.171875 15.5938 0.351952 15.5938 0.574089C15.5938 0.796226 15.7738 0.976303 15.996 0.976303H16.4531H16.9102C17.1324 0.976303 17.3124 1.15638 17.3124 1.37852C17.3124 1.60066 17.4925 1.78073 17.7146 1.78073H17.7731C17.9946 1.78073 18.1741 1.96028 18.1741 2.18176C18.1741 2.40323 18.3537 2.58278 18.5752 2.58278H18.6324C18.8539 2.58278 19.0335 2.76232 19.0335 2.9838C19.0335 3.20528 19.213 3.38482 19.4345 3.38482H19.4942C19.7156 3.38482 19.8952 3.56436 19.8952 3.78584C19.8952 4.00732 20.0747 4.18686 20.2962 4.18686H20.7545H21.6139H22.4756H23.3349H23.7932C24.0147 4.18686 24.1942 4.00732 24.1942 3.78584C24.1942 3.56436 24.0147 3.38482 23.7932 3.38482H23.7359Z" fill="white"/>
<path d="M25.4854 5.79636C25.2474 5.79636 25.0545 5.60345 25.0545 5.3655V4.99193V4.61716C25.0545 4.37987 24.8622 4.1875 24.6249 4.1875H24.5974C24.3753 4.1875 24.1952 4.36758 24.1952 4.58971C24.1952 4.81185 24.0151 4.99193 23.793 4.99193H23.3359H23.281C22.8367 4.99193 22.4766 5.35208 22.4766 5.79636V6.5984V6.97317C22.4766 7.21046 22.6689 7.40283 22.9062 7.40283H22.9337C23.1558 7.40283 23.3359 7.22275 23.3359 7.00061C23.3359 6.77848 23.516 6.5984 23.7381 6.5984H24.1952H24.2501C24.6944 6.5984 25.0545 6.95855 25.0545 7.40283V7.77401C25.0545 8.01197 25.2474 8.20487 25.4854 8.20487C25.7233 8.20487 25.9163 8.01197 25.9163 7.77401V7.40283V6.5984V6.22721C25.9163 5.98926 25.7233 5.79636 25.4854 5.79636Z" fill="white"/>
<path d="M25.0546 5.79636V4.99193V4.61716C25.0546 4.37987 24.8623 4.1875 24.625 4.1875C24.3877 4.1875 24.1953 4.37987 24.1953 4.61716V4.99193C24.1953 5.4362 24.5555 5.79636 24.9997 5.79636H25.0546V6.5984V7.40283V7.77401C25.0546 8.01197 25.2475 8.20487 25.4855 8.20487C25.7235 8.20487 25.9164 8.01197 25.9164 7.77401V7.40283V6.5984C25.9164 6.15544 25.5573 5.79636 25.1143 5.79636H25.0546Z" fill="#1D1D1B"/>
<path d="M21.215 1.78125H21.16C20.9379 1.78125 20.7578 1.96133 20.7578 2.18346C20.7578 2.4056 20.9379 2.58568 21.16 2.58568H21.215C21.4371 2.58568 21.6172 2.4056 21.6172 2.18346C21.6172 1.96133 21.4371 1.78125 21.215 1.78125Z" fill="#1D1D1B"/>
<path d="M21.6172 2.98305C21.6172 3.20453 21.7967 3.38407 22.0182 3.38407H22.4789H22.9372C23.1587 3.38407 23.3382 3.20453 23.3382 2.98305C23.3382 2.76157 23.1587 2.58203 22.9372 2.58203H22.4789H22.0182C21.7967 2.58203 21.6172 2.76157 21.6172 2.98305Z" fill="#1D1D1B"/>
<path d="M19.893 1.78099H20.3501C20.5722 1.78099 20.7523 1.60092 20.7523 1.37878C20.7523 1.15664 20.5722 0.976562 20.3501 0.976562H19.893H19.4335C19.2113 0.976562 19.0312 1.15664 19.0312 1.37878C19.0312 1.60092 19.2113 1.78099 19.4335 1.78099H19.893Z" fill="#1D1D1B"/>
<path d="M23.7954 3.38672H23.7382C23.516 3.38672 23.3359 3.5668 23.3359 3.78893C23.3359 4.01107 23.516 4.19115 23.7382 4.19115H23.7954C24.0176 4.19115 24.1977 4.01107 24.1977 3.78893C24.1977 3.5668 24.0176 3.38672 23.7954 3.38672Z" fill="#1D1D1B"/>
<path d="M16.4531 0.976303H17.3124H18.1741H18.6313C18.8534 0.976303 19.0335 0.796226 19.0335 0.574089C19.0335 0.351952 18.8534 0.171875 18.6313 0.171875H18.1741H17.3124H16.4531H15.996C15.7738 0.171875 15.5938 0.351952 15.5938 0.574089C15.5938 0.796226 15.7738 0.976303 15.996 0.976303H16.4531Z" fill="#1D1D1B"/>
<path d="M22.4789 19.0467C22.4789 18.8246 22.2988 18.6445 22.0767 18.6445H22.0194C21.7973 18.6445 21.6172 18.8246 21.6172 19.0467C21.6172 19.2689 21.7973 19.449 22.0194 19.449H22.0767C22.2988 19.449 22.4789 19.2689 22.4789 19.0467Z" fill="#1D1D1B"/>
<path d="M25.9164 8.20312H25.0547H25.9164V9.00517V9.80959V10.6116V11.4161V12.2181V13.0225V13.8222V14.6266V15.4311V15.8022C25.9164 16.0402 26.1093 16.2331 26.3473 16.2331C26.5852 16.2331 26.7781 16.0402 26.7781 15.8022V15.4311V14.6266V13.8222V13.0225V12.2181V11.4161V10.6116V9.80959V9.00517C26.7781 8.56221 26.4191 8.20312 25.9761 8.20312H25.9164Z" fill="#1D1D1B"/>
<path d="M22.9062 20.25C22.6689 20.25 22.4766 20.4424 22.4766 20.6797V21.0544V21.4268C22.4766 21.6641 22.6689 21.8565 22.9062 21.8565C23.1435 21.8565 23.3359 21.6641 23.3359 21.4268V21.0544V20.6797C23.3359 20.4424 23.1435 20.25 22.9062 20.25Z" fill="#1D1D1B"/>
<path d="M23.7954 19.4453H23.7382C23.516 19.4453 23.3359 19.6254 23.3359 19.8475C23.3359 20.0697 23.516 20.2497 23.7382 20.2497H23.7954C24.0176 20.2497 24.1977 20.0697 24.1977 19.8475C24.1977 19.6254 24.0176 19.4453 23.7954 19.4453Z" fill="#1D1D1B"/>
<path d="M25.4855 16.2344C25.2475 16.2344 25.0546 16.4273 25.0546 16.6652V17.0388V17.4112C25.0546 17.6485 24.8623 17.8408 24.625 17.8408C24.3877 17.8408 24.1953 18.0332 24.1953 18.2705V18.6429V19.0177C24.1953 19.2549 24.3877 19.4473 24.625 19.4473C24.8623 19.4473 25.0546 19.2549 25.0546 19.0177V18.6429V18.2717C25.0546 18.0337 25.2475 17.8408 25.4855 17.8408C25.7235 17.8408 25.9164 17.6479 25.9164 17.41V17.0388V16.6652C25.9164 16.4273 25.7235 16.2344 25.4855 16.2344Z" fill="#1D1D1B"/>
<path d="M19.0312 23.862C19.0312 23.6405 18.8517 23.4609 18.6302 23.4609H18.5729C18.3514 23.4609 18.1719 23.6405 18.1719 23.862C18.1719 24.0834 18.3514 24.263 18.5729 24.263H18.6302C18.8517 24.263 19.0312 24.0834 19.0312 23.862Z" fill="#1D1D1B"/>
<path d="M21.6172 21.8567V21.4844C21.6172 21.2471 21.4248 21.0547 21.1875 21.0547C20.9502 21.0547 20.7578 21.2471 20.7578 21.4844V21.8567V22.2315C20.7578 22.4688 20.9502 22.6612 21.1875 22.6612C21.4248 22.6612 21.6172 22.4688 21.6172 22.2315V21.8567Z" fill="#1D1D1B"/>
<path d="M20.3579 22.6602H20.3007C20.0785 22.6602 19.8984 22.8402 19.8984 23.0624C19.8984 23.2845 20.0785 23.4646 20.3007 23.4646H20.3579C20.5801 23.4646 20.7602 23.2845 20.7602 23.0624C20.7602 22.8402 20.5801 22.6602 20.3579 22.6602Z" fill="#1D1D1B"/>
<path d="M15.9938 22.6602C15.7723 22.6602 15.5927 22.8397 15.5927 23.0612C15.5927 23.2827 15.4132 23.4622 15.1917 23.4622H14.7334H13.8717H13.0124H12.1507H11.2937H10.432H9.57026H9.11196C8.89048 23.4622 8.71094 23.6417 8.71094 23.8632C8.71094 24.0847 8.89048 24.2642 9.11196 24.2642H9.57026H10.432H11.2937H12.1507H13.0124H13.8717H14.7334H15.1917C15.4132 24.2642 15.5927 24.0847 15.5927 23.8632C15.5927 23.6417 15.7723 23.4622 15.9938 23.4622H16.4521H16.9104C17.1319 23.4622 17.3114 23.2827 17.3114 23.0612C17.3114 22.8397 17.1319 22.6602 16.9104 22.6602H16.4521H15.9938Z" fill="#1D1D1B"/>
<path d="M17.772 21.8555H17.7147C17.4926 21.8555 17.3125 22.0355 17.3125 22.2577C17.3125 22.4798 17.4926 22.6599 17.7147 22.6599H17.772C17.9941 22.6599 18.1742 22.4798 18.1742 22.2577C18.1742 22.0355 17.9941 21.8555 17.772 21.8555Z" fill="#1D1D1B"/>
<path d="M19.0312 20.6522C19.0312 20.8744 18.8511 21.0544 18.629 21.0544H18.5729C18.3514 21.0544 18.1719 21.234 18.1719 21.4554C18.1719 21.6769 18.3514 21.8565 18.5729 21.8565H19.0312H19.0909C19.5338 21.8565 19.8929 21.4974 19.8929 21.0544V20.6809C19.8929 20.4429 19.7 20.25 19.4621 20.25H19.4334C19.2113 20.25 19.0312 20.4301 19.0312 20.6522Z" fill="#1D1D1B"/>
<path d="M20.3579 19.4453H20.3007C20.0785 19.4453 19.8984 19.6254 19.8984 19.8475C19.8984 20.0697 20.0785 20.2497 20.3007 20.2497H20.3579C20.5801 20.2497 20.7602 20.0697 20.7602 19.8475C20.7602 19.6254 20.5801 19.4453 20.3579 19.4453Z" fill="#1D1D1B"/>
<path d="M21.215 18.6445H21.16C20.9379 18.6445 20.7578 18.8246 20.7578 19.0467C20.7578 19.2689 20.9379 19.449 21.16 19.449H21.215C21.4371 19.449 21.6172 19.2689 21.6172 19.0467C21.6172 18.8246 21.4371 18.6445 21.215 18.6445Z" fill="#1D1D1B"/>
<path d="M21.6172 17.8411V18.2123C21.6172 18.4502 21.8101 18.6431 22.048 18.6431C22.286 18.6431 22.4789 18.4502 22.4789 18.2123V17.8411V17.4699C22.4789 17.232 22.286 17.0391 22.048 17.0391C21.8101 17.0391 21.6172 17.232 21.6172 17.4699V17.8411Z" fill="#1D1D1B"/>
<path d="M22.9062 9.00781C22.6689 9.00781 22.4766 9.20018 22.4766 9.43747V9.81224V10.6143V11.4187V12.2208V13.0252V13.8248V14.6293V15.4337V16.2357V16.6105C22.4766 16.8478 22.6689 17.0402 22.9062 17.0402C23.1435 17.0402 23.3359 16.8478 23.3359 16.6105V16.2357V15.4337V14.6293V13.8248V13.0252V12.2208V11.4187V10.6143V9.81224V9.43747C23.3359 9.20018 23.1435 9.00781 22.9062 9.00781Z" fill="#1D1D1B"/>
<path d="M21.6172 7.40209V7.77327C21.6172 8.01123 21.8101 8.20413 22.048 8.20413C22.286 8.20413 22.4789 8.01123 22.4789 7.77327V7.40209V7.02851C22.4789 6.79056 22.286 6.59766 22.048 6.59766C21.8101 6.59766 21.6172 6.79056 21.6172 7.02851V7.40209Z" fill="#1D1D1B"/>
<path d="M21.215 4.99219H21.16C20.9379 4.99219 20.7578 5.17226 20.7578 5.3944C20.7578 5.61654 20.9379 5.79662 21.16 5.79662H21.215C21.4371 5.79662 21.6172 5.61654 21.6172 5.3944C21.6172 5.17226 21.4371 4.99219 21.215 4.99219Z" fill="#1D1D1B"/>
<path d="M16.9114 17.8398H16.8541C16.6327 17.8398 16.4531 18.0194 16.4531 18.2409C16.4531 18.4623 16.6327 18.6419 16.8541 18.6419H16.9114C17.1329 18.6419 17.3124 18.4623 17.3124 18.2409C17.3124 18.0194 17.1329 17.8398 16.9114 17.8398Z" fill="#1D1D1B"/>
<path d="M18.1742 9.00643V9.38119C18.1742 9.61849 18.3666 9.81086 18.6039 9.81086C18.8412 9.81086 19.0335 10.0032 19.0335 10.2405V10.6129V11.4173V12.2194V13.0238V13.8235V14.1982C19.0335 14.4355 18.8412 14.6279 18.6039 14.6279C18.3666 14.6279 18.1742 14.8202 18.1742 15.0575V15.4323V15.8035C18.1742 16.0415 17.9813 16.2344 17.7434 16.2344C17.5054 16.2344 17.3125 16.4273 17.3125 16.6652V17.0388V17.41C17.3125 17.6479 17.5054 17.8408 17.7434 17.8408H17.7732C17.9947 17.8408 18.1742 17.6613 18.1742 17.4398C18.1742 17.2183 18.3538 17.0388 18.5752 17.0388H18.6039C18.8412 17.0388 19.0335 16.8464 19.0335 16.6091V16.2344V15.8632C19.0335 15.6252 19.2264 15.4323 19.4644 15.4323C19.7024 15.4323 19.8953 15.2394 19.8953 15.0015V14.6279V13.8235V13.0238V12.2194V11.4173V10.6129V9.81086V9.43728C19.8953 9.19933 19.7024 9.00643 19.4644 9.00643C19.2264 9.00643 19.0335 8.81353 19.0335 8.57557V8.20439V7.83201C19.0335 7.59471 18.8412 7.40234 18.6039 7.40234C18.3666 7.40234 18.1742 7.59471 18.1742 7.83201V8.20439V9.00643Z" fill="#1D1D1B"/>
<path d="M17.772 6.59766H17.7147C17.4926 6.59766 17.3125 6.77773 17.3125 6.99987C17.3125 7.22201 17.4926 7.40209 17.7147 7.40209H17.772C17.9941 7.40209 18.1742 7.22201 18.1742 6.99987C18.1742 6.77773 17.9941 6.59766 17.772 6.59766Z" fill="#1D1D1B"/>
<path d="M16.9102 5.79688H16.8553C16.6332 5.79688 16.4531 5.97695 16.4531 6.19909C16.4531 6.42123 16.6332 6.60131 16.8553 6.60131H16.9102C17.1324 6.60131 17.3124 6.42123 17.3124 6.19909C17.3124 5.97695 17.1324 5.79688 16.9102 5.79688Z" fill="#1D1D1B"/>
<path d="M20.3579 4.1875H20.3007C20.0785 4.1875 19.8984 4.36758 19.8984 4.58971C19.8984 4.81185 20.0785 4.99193 20.3007 4.99193H20.3579C20.5801 4.99193 20.7602 4.81185 20.7602 4.58971C20.7602 4.36758 20.5801 4.1875 20.3579 4.1875Z" fill="#1D1D1B"/>
<path d="M19.4907 3.38672H19.4335C19.2113 3.38672 19.0312 3.5668 19.0312 3.78893C19.0312 4.01107 19.2113 4.19115 19.4335 4.19115H19.4908C19.7129 4.19115 19.893 4.01107 19.893 3.78893C19.893 3.5668 19.7129 3.38672 19.4907 3.38672Z" fill="#1D1D1B"/>
<path d="M18.6302 2.58203H18.5729C18.3514 2.58203 18.1719 2.76157 18.1719 2.98305C18.1719 3.20453 18.3514 3.38407 18.5729 3.38407H18.6302C18.8517 3.38407 19.0312 3.20453 19.0312 2.98305C19.0312 2.76157 18.8517 2.58203 18.6302 2.58203Z" fill="#1D1D1B"/>
<path d="M17.772 1.78125H17.7147C17.4926 1.78125 17.3125 1.96133 17.3125 2.18346C17.3125 2.4056 17.4926 2.58568 17.7147 2.58568H17.772C17.9941 2.58568 18.1742 2.4056 18.1742 2.18346C18.1742 1.96133 17.9941 1.78125 17.772 1.78125Z" fill="#1D1D1B"/>
<path d="M15.5938 1.37878C15.5938 1.60092 15.7738 1.78099 15.996 1.78099H16.4531H16.9102C17.1324 1.78099 17.3124 1.60092 17.3124 1.37878C17.3124 1.15664 17.1324 0.976562 16.9102 0.976562H16.4531H15.996C15.7738 0.976562 15.5938 1.15664 15.5938 1.37878Z" fill="#1D1D1B"/>
<path d="M7.85151 22.6602H7.39321C7.17173 22.6602 6.99219 22.8397 6.99219 23.0612C6.99219 23.2827 7.17173 23.4622 7.39321 23.4622H7.85151H8.30981C8.53129 23.4622 8.71084 23.2827 8.71084 23.0612C8.71084 22.8397 8.53129 22.6602 8.30981 22.6602H7.85151Z" fill="#1D1D1B"/>
<path d="M6.59234 21.8555H6.53503C6.31289 21.8555 6.13281 22.0355 6.13281 22.2577C6.13281 22.4798 6.31289 22.6599 6.53503 22.6599H6.59234C6.81448 22.6599 6.99456 22.4798 6.99456 22.2577C6.99456 22.0355 6.81448 21.8555 6.59234 21.8555Z" fill="#1D1D1B"/>
<path d="M5.6756 21.0544C5.45346 21.0544 5.27339 20.8744 5.27339 20.6522C5.27339 20.4301 5.09331 20.25 4.87117 20.25H4.84372C4.60643 20.25 4.41406 20.4424 4.41406 20.6797V21.0544C4.41406 21.4974 4.77315 21.8565 5.2161 21.8565H5.27339H5.73169C5.95317 21.8565 6.13271 21.6769 6.13271 21.4554C6.13271 21.234 5.95317 21.0544 5.73169 21.0544H5.6756Z" fill="#1D1D1B"/>
<path d="M4.0118 19.4453H3.9569C3.73476 19.4453 3.55469 19.6254 3.55469 19.8475C3.55469 20.0697 3.73476 20.2497 3.9569 20.2497H4.0118C4.23393 20.2497 4.41401 20.0697 4.41401 19.8475C4.41401 19.6254 4.23394 19.4453 4.0118 19.4453Z" fill="#1D1D1B"/>
<path d="M9.57021 20.251H10.4319H11.2936H12.1506H13.0123H13.8716H14.7334H15.1917C15.4131 20.251 15.5927 20.0715 15.5927 19.85C15.5927 19.6285 15.7722 19.449 15.9937 19.449H16.0498C16.272 19.449 16.452 19.2689 16.452 19.0467C16.452 18.8246 16.272 18.6445 16.0498 18.6445H15.5927H15.1356C14.9134 18.6445 14.7334 18.8246 14.7334 19.0467C14.7334 19.2689 14.5533 19.449 14.3311 19.449H13.8716H13.0123H12.1506H11.2936H10.4319H9.97243C9.75029 19.449 9.57021 19.2689 9.57021 19.0467C9.57021 18.8246 9.39013 18.6445 9.168 18.6445H8.71089H8.25378C8.03164 18.6445 7.85156 18.8246 7.85156 19.0467C7.85156 19.2689 8.03164 19.449 8.25378 19.449H8.30986C8.53134 19.449 8.71089 19.6285 8.71089 19.85C8.71089 20.0715 8.89043 20.251 9.11191 20.251H9.57021Z" fill="#1D1D1B"/>
<path d="M7.45049 17.8398H7.39321C7.17173 17.8398 6.99219 18.0194 6.99219 18.2409C6.99219 18.4623 7.17173 18.6419 7.39321 18.6419H7.45049C7.67197 18.6419 7.85151 18.4623 7.85151 18.2409C7.85151 18.0194 7.67197 17.8398 7.45049 17.8398Z" fill="#1D1D1B"/>
<path d="M3.54921 18.2707C3.54921 18.0327 3.35631 17.8398 3.11836 17.8398C2.8804 17.8398 2.6875 18.0327 2.6875 18.2707V18.6419V19.0155C2.6875 19.2534 2.8804 19.4463 3.11836 19.4463C3.35631 19.4463 3.54921 19.2534 3.54921 19.0155V18.6419V18.2707Z" fill="#1D1D1B"/>
<path d="M2.68984 16.6652C2.68984 16.4273 2.49694 16.2344 2.25898 16.2344C2.02103 16.2344 1.82812 16.4273 1.82812 16.6652V17.0388V17.41C1.82812 17.6479 2.02103 17.8408 2.25898 17.8408C2.49694 17.8408 2.68984 17.6479 2.68984 17.41V17.0388V16.6652Z" fill="#1D1D1B"/>
<path d="M1.8281 14.6293V13.8248V13.0252V12.2208V11.4187V10.6143V9.81224V9.43749C1.8281 9.20019 1.63573 9.00781 1.39843 9.00781C1.16112 9.00781 0.96875 9.20019 0.96875 9.43749V9.81224V10.6143V11.4187V12.2208V13.0252V13.8248V14.6293V15.004C0.96875 15.2413 1.16112 15.4337 1.39843 15.4337C1.63573 15.4337 1.8281 15.2413 1.8281 15.004V14.6293Z" fill="#1D1D1B"/>
<path d="M6.99446 16.665C6.99446 16.427 6.80155 16.2341 6.56358 16.2341C6.32562 16.2341 6.13271 16.0412 6.13271 15.8032V15.4321V15.0573C6.13271 14.82 5.94035 14.6276 5.70305 14.6276C5.46575 14.6276 5.27339 14.4353 5.27339 14.198V13.8232V13.0235V12.2191V11.4171V10.6126V10.2403C5.27339 10.003 5.46575 9.8106 5.70305 9.8106C5.94035 9.8106 6.13271 9.61823 6.13271 9.38094V9.00617V8.635C6.13271 8.39704 6.32562 8.20413 6.56358 8.20413C6.80155 8.20413 6.99446 8.01122 6.99446 7.77326V7.40209V7.02853C6.99446 6.79056 6.80155 6.59766 6.56358 6.59766H6.53493C6.31279 6.59766 6.13271 6.77773 6.13271 6.99987C6.13271 7.22201 5.95263 7.40209 5.7305 7.40209H5.70305C5.46575 7.40209 5.27339 7.59445 5.27339 7.83175V8.20413V8.57651C5.27339 8.81381 5.08102 9.00617 4.84372 9.00617C4.60643 9.00617 4.41406 9.19854 4.41406 9.43583V9.8106V10.6126V11.4171V12.2191V13.0235V13.8232V14.6276V15.0024C4.41406 15.2397 4.60643 15.4321 4.84372 15.4321C5.08102 15.4321 5.27339 15.6244 5.27339 15.8617V16.2341V16.6089C5.27339 16.8462 5.46575 17.0385 5.70305 17.0385H5.73169C5.95317 17.0385 6.13271 17.2181 6.13271 17.4395C6.13271 17.661 6.31225 17.8406 6.53373 17.8406H6.56358C6.80155 17.8406 6.99446 17.6477 6.99446 17.4097V17.0385V16.665Z" fill="#1D1D1B"/>
<path d="M2.68984 7.40209V7.02851C2.68984 6.79056 2.49694 6.59766 2.25898 6.59766C2.02103 6.59766 1.82812 6.79056 1.82812 7.02851V7.40209V7.77327C1.82812 8.01123 2.02103 8.20413 2.25898 8.20413C2.49694 8.20413 2.68984 8.01123 2.68984 7.77327V7.40209Z" fill="#1D1D1B"/>
<path d="M7.4493 5.79688H7.3944C7.17227 5.79688 6.99219 5.97695 6.99219 6.19909C6.99219 6.42123 7.17227 6.60131 7.3944 6.60131H7.4493C7.67143 6.60131 7.85151 6.42123 7.85151 6.19909C7.85151 5.97695 7.67143 5.79688 7.4493 5.79688Z" fill="#1D1D1B"/>
<path d="M3.54921 5.79662V5.42304C3.54921 5.18509 3.35631 4.99219 3.11836 4.99219C2.8804 4.99219 2.6875 5.18509 2.6875 5.42304V5.79662V6.1678C2.6875 6.40576 2.8804 6.59866 3.11836 6.59866C3.35631 6.59866 3.54921 6.40576 3.54921 6.1678V5.79662Z" fill="#1D1D1B"/>
<path d="M9.168 5.79636C9.39014 5.79636 9.57021 5.61628 9.57021 5.39414C9.57021 5.17201 9.75029 4.99193 9.97243 4.99193H10.4319H11.2936H12.1506H13.0123H13.8716H14.3311C14.5533 4.99193 14.7334 5.17201 14.7334 5.39414C14.7334 5.61628 14.9134 5.79636 15.1356 5.79636H15.5927H16.0498C16.272 5.79636 16.452 5.61628 16.452 5.39414C16.452 5.17201 16.272 4.99193 16.0498 4.99193H15.9949C15.7728 4.99193 15.5927 4.81185 15.5927 4.58971C15.5927 4.36758 15.4126 4.1875 15.1905 4.1875H14.7334H13.8716H13.0123H12.1506H11.2936H10.4319H9.57021H9.1131C8.89096 4.1875 8.71089 4.36758 8.71089 4.58971C8.71089 4.81185 8.53081 4.99193 8.30867 4.99193H8.25378C8.03164 4.99193 7.85156 5.17201 7.85156 5.39414C7.85156 5.61628 8.03164 5.79636 8.25378 5.79636H8.71089H9.168Z" fill="#1D1D1B"/>
<path d="M4.0118 4.1875H3.9569C3.73476 4.1875 3.55469 4.36758 3.55469 4.58971C3.55469 4.81185 3.73476 4.99193 3.9569 4.99193H4.0118C4.23393 4.99193 4.41401 4.81185 4.41401 4.58971C4.41401 4.36758 4.23394 4.1875 4.0118 4.1875Z" fill="#1D1D1B"/>
<path d="M4.87356 3.38672H4.81628C4.59414 3.38672 4.41406 3.5668 4.41406 3.78893C4.41406 4.01107 4.59414 4.19115 4.81628 4.19115H4.87356C5.0957 4.19115 5.27578 4.01107 5.27578 3.78893C5.27578 3.5668 5.0957 3.38672 4.87356 3.38672Z" fill="#1D1D1B"/>
<path d="M5.73174 2.58203H5.67446C5.45298 2.58203 5.27344 2.76157 5.27344 2.98305C5.27344 3.20453 5.45298 3.38407 5.67446 3.38407H5.73174C5.95322 3.38407 6.13276 3.20453 6.13276 2.98305C6.13276 2.76157 5.95322 2.58203 5.73174 2.58203Z" fill="#1D1D1B"/>
<path d="M6.59234 1.78125H6.53503C6.31289 1.78125 6.13281 1.96133 6.13281 2.18346C6.13281 2.4056 6.31289 2.58568 6.53503 2.58568H6.59234C6.81448 2.58568 6.99456 2.4056 6.99456 2.18346C6.99456 1.96133 6.81448 1.78125 6.59234 1.78125Z" fill="#1D1D1B"/>
<path d="M8.30862 1.78099C8.53076 1.78099 8.71084 1.60092 8.71084 1.37878C8.71084 1.15664 8.53076 0.976562 8.30862 0.976562H7.85151H7.3944C7.17227 0.976562 6.99219 1.15664 6.99219 1.37878C6.99219 1.60092 7.17227 1.78099 7.3944 1.78099H7.85151H8.30862Z" fill="#1D1D1B"/>
<path d="M10.432 0.976303H11.2937H12.1507H13.0124H13.8717H14.7334H15.1905C15.4127 0.976303 15.5927 0.796226 15.5927 0.574089C15.5927 0.351952 15.4127 0.171875 15.1905 0.171875H14.7334H13.8717H13.0124H12.1507H11.2937H10.432H9.57026H9.11315C8.89101 0.171875 8.71094 0.351952 8.71094 0.574089C8.71094 0.796226 8.89101 0.976303 9.11315 0.976303H9.57026H10.432Z" fill="#1D1D1B"/>
<path d="M24.1952 6.59766H23.7381C23.516 6.59766 23.3359 6.77773 23.3359 6.99987C23.3359 7.22201 23.1558 7.40209 22.9337 7.40209H22.9062C22.6689 7.40209 22.4766 7.59445 22.4766 7.83175V8.20413V8.57651C22.4766 8.81381 22.6689 9.00617 22.9062 9.00617H22.9349C23.1563 9.00617 23.3359 8.82663 23.3359 8.60515C23.3359 8.38367 23.5154 8.20413 23.7369 8.20413H24.1952H24.2525C24.6955 8.20413 25.0545 7.84504 25.0545 7.40209C25.0545 6.95781 24.6944 6.59766 24.2501 6.59766H24.1952Z" fill="white"/>
<path d="M23.3382 4.1875H22.4789H21.6172H21.16C20.9379 4.1875 20.7578 4.36758 20.7578 4.58971C20.7578 4.81185 20.9379 4.99193 21.16 4.99193H21.215C21.4371 4.99193 21.6172 5.17201 21.6172 5.39414C21.6172 5.61628 21.7972 5.79636 22.0194 5.79636H22.0767C22.2988 5.79636 22.4789 5.61628 22.4789 5.39414C22.4789 5.17201 22.659 4.99193 22.8811 4.99193H23.3382H23.7953C24.0175 4.99193 24.1975 4.81185 24.1975 4.58971C24.1975 4.36758 24.0175 4.1875 23.7953 4.1875H23.3382Z" fill="white"/>
<path d="M13.0123 18.6429H12.1506H11.2936H10.8329C10.6114 18.6429 10.4319 18.4633 10.4319 18.2419C10.4319 18.0204 10.2523 17.8408 10.0309 17.8408H9.57016H9.11186C8.89038 17.8408 8.71084 17.6613 8.71084 17.4398C8.71084 17.2183 8.53129 17.0388 8.30982 17.0388H8.25373C8.03159 17.0388 7.85151 16.8587 7.85151 16.6366C7.85151 16.4145 7.67143 16.2344 7.4493 16.2344H7.42185C7.18455 16.2344 6.99219 16.4267 6.99219 16.664V17.0388V17.4112C6.99219 17.6485 7.18455 17.8408 7.42185 17.8408H7.45049C7.67197 17.8408 7.85151 18.0204 7.85151 18.2419C7.85151 18.4633 8.03106 18.6429 8.25254 18.6429H8.71084H9.16795C9.39008 18.6429 9.57016 18.823 9.57016 19.0451C9.57016 19.2672 9.75024 19.4473 9.97238 19.4473H10.4319H11.2936H12.1506H13.0123H13.8716H14.3311C14.5532 19.4473 14.7333 19.2672 14.7333 19.0451C14.7333 18.823 14.5532 18.6429 14.3311 18.6429H13.8716H13.0123Z" fill="white"/>
<path d="M15.1354 17.8398C14.9139 17.8398 14.7344 18.0194 14.7344 18.2409C14.7344 18.4623 14.9139 18.6419 15.1354 18.6419H15.5937H16.052C16.2735 18.6419 16.4531 18.4623 16.4531 18.2409C16.4531 18.0194 16.2735 17.8398 16.052 17.8398H15.5937H15.1354Z" fill="white"/>
<path d="M16.9102 17.0391H16.8553C16.6332 17.0391 16.4531 17.2191 16.4531 17.4413C16.4531 17.6634 16.6332 17.8435 16.8553 17.8435H16.9102C17.1324 17.8435 17.3124 17.6634 17.3124 17.4413C17.3124 17.2191 17.1324 17.0391 16.9102 17.0391Z" fill="white"/>
<path d="M6.99456 15.0598C6.99456 14.8218 6.80165 14.6289 6.56368 14.6289C6.32572 14.6289 6.13281 14.8218 6.13281 15.0598V15.4333V15.8045C6.13281 16.0425 6.32572 16.2354 6.56368 16.2354C6.80165 16.2354 6.99456 16.0425 6.99456 15.8045V15.4333V15.0598Z" fill="white"/>
<path d="M6.13276 13.0244V12.22V11.8476C6.13276 11.6103 5.9404 11.418 5.7031 11.418C5.4658 11.418 5.27344 11.6103 5.27344 11.8476V12.22V13.0244V13.8241V14.1989C5.27344 14.4362 5.4658 14.6285 5.7031 14.6285C5.9404 14.6285 6.13276 14.4362 6.13276 14.1989V13.8241V13.0244Z" fill="white"/>
<path d="M5.73055 9.8125H5.67565C5.45351 9.8125 5.27344 9.99258 5.27344 10.2147C5.27344 10.4369 5.45351 10.6169 5.67565 10.6169H5.73055C5.95268 10.6169 6.13276 10.4369 6.13276 10.2147C6.13276 9.99258 5.95269 9.8125 5.73055 9.8125Z" fill="white"/>
<path d="M9.20926 15.6634V9.01418H11.109V9.96407H12.0589V10.914H13.0088V9.96407H13.9587V9.01418H15.8585V15.6634H13.9587V11.8638H13.0088V13.7636H12.0589V11.8638H11.109V15.6634H9.20926Z" fill="black"/>
</svg>
