<svg width="64" height="98" viewBox="0 0 64 98" fill="none" xmlns="http://www.w3.org/2000/svg">
<path d="M0.5 33.0652C0.5 29.9723 2.28286 27.1565 5.07865 25.8338L37.5498 10.471C42.3127 8.21765 47.9154 11.104 48.8455 16.2903L61.7279 88.1193C62.6351 93.1776 58.6061 97.767 53.473 97.5225L8.11948 95.3628C3.85397 95.1597 0.5 91.6422 0.5 87.3719V33.0652Z" fill="#1B1717"/>
<path d="M0.75 30.0652C0.75 27.069 2.47714 24.3411 5.18557 23.0597L37.6568 7.69703C42.2708 5.51406 47.6984 8.31023 48.5995 13.3344L61.4818 85.1635C62.3607 90.0636 58.4576 94.5096 53.4849 94.2728L8.13137 92.1131C3.99916 91.9163 0.75 88.5088 0.75 84.3719V30.0652Z" fill="#404043" stroke="black" stroke-width="0.5"/>
<path d="M1 27.0652C1 24.1656 2.67143 21.5258 5.29249 20.2857L37.7637 4.92301C42.2288 2.81046 47.4814 5.51643 48.3534 10.3785L61.2358 82.2076C62.0863 86.9497 58.3091 91.2523 53.4968 91.0231L8.14326 88.8634C4.14435 88.673 1 85.3753 1 81.3719V27.0652Z" fill="#232222" stroke="black"/>
<path d="M3.25 28.5973C3.25 25.6176 4.95829 22.9018 7.64413 21.6116L36.4103 7.79264C41.0361 5.57046 46.5054 8.3767 47.398 13.4303L59.0111 79.1774C59.876 84.0739 55.9715 88.5066 51.005 88.2664L10.6257 86.3141C6.49584 86.1144 3.25 82.7078 3.25 78.5731V28.5973Z" fill="#232222" stroke="#4CF038" stroke-width="0.5"/>
</svg>
