<svg width="24" height="22" viewBox="0 0 24 22" fill="none" xmlns="http://www.w3.org/2000/svg">
<path d="M19.5976 19.0234H18.8125V19.7563H19.5976V19.0234Z" fill="url(#paint0_linear_4605_11693)"/>
<path d="M20.3766 16.8281H19.5938V17.561H20.3766V16.8281Z" fill="url(#paint1_linear_4605_11693)"/>
<path d="M4.70475 9.51172H3.92188V10.2446H4.70475V9.51172Z" fill="#FAF1CE"/>
<path d="M22.7236 7.32031H21.9386H21.1557H20.3728V8.051V8.78387V9.51456V10.2474V10.9781V11.711V12.4395V13.1724V13.9052V14.6359V15.3688H19.5899V16.0995V16.8302H20.3728V17.563H19.5899V16.8302H18.8049V17.563H18.022V18.2937H17.2391V19.0266V19.7573H16.454H15.6712V20.4901H14.8861V21.2208H14.1032H13.3203V21.9515H14.1032H14.8861H15.6712H16.454V21.2208H17.2391H18.022V20.4901H18.8049V19.7573V19.0266H19.5899V19.7573H20.3728V19.0266V18.2937H21.1557V17.563H21.9386V16.8302V16.0995H22.7236V15.3688V14.6359H23.5087V13.9052V13.1724V12.4395V11.711V10.9781V10.2474V9.51456V8.78387V8.051V7.32031H22.7236Z" fill="url(#paint2_linear_4605_11693)"/>
<path d="M14.8861 21.1992V21.2166H13.3203V21.9473H16.454V21.2166H18.022V21.1992H14.8861Z" fill="#1D1D1B"/>
<path d="M19.5976 5.125H18.8125V5.85787H19.5976V5.125Z" fill="white"/>
<path d="M18.8028 7.3193V5.12505H18.0199V4.39218H17.237V3.65932H16.452V2.92863H15.6691V2.19793H14.8775V1.46724H13.3117V0.734375H7.04866V1.46724H5.4829V2.19793H4.69782V2.92863H3.91494V3.65932H3.13424V4.39218H2.35136V5.86009H1.56631V7.32365H0.78125V14.6393H1.56631V16.1028H2.35136V17.5664H3.13424V18.2971H3.91712V19.0299H4.69999V19.7606H5.48508V20.4935H7.05083V21.2242H13.3204V20.4935H14.8862V19.7563H15.6713V19.0256H16.4541V18.2927H17.2392V17.562H18.0221V16.8292H18.805V15.3678H19.59V7.32147L18.8028 7.3193ZM3.91494 8.04999V6.58861H4.69782V5.86009H5.4829V5.1294H6.26578V4.39653H7.04866V3.66366H13.3182V4.39653H14.1011V5.1294H14.884V5.86009H15.6691V6.59295H16.452V8.05434H17.237V13.9064H16.452V15.37H15.6691V16.1006H14.8775V16.8313H14.0946V17.5642H13.3117V18.2949H7.04866V17.5642H6.26578V16.8313H5.4829V16.1006H4.69782V15.37H3.91494V13.9064H3.13424V8.04999H3.91494Z" fill="url(#paint3_linear_4605_11693)"/>
<path d="M5.48821 7.31774H4.70312V8.04843V8.7813V9.51199V10.2449V10.9755V11.7084V12.4369V13.1698H5.48821V13.9027V14.6334H6.27108V15.3662H7.05396V16.0969H7.83684H8.6219V16.8276H9.40695H10.1877H10.9727H11.7556H12.5407V16.0969H13.3235H14.1065V15.3662H14.8893V14.6334H15.6744V13.9027V13.1698H16.4573V12.4369V11.7084V10.9755V10.2449V9.51199V8.7813H15.6744V8.04843V7.31774V6.58705H14.8893V5.85418H14.1065V5.12349H13.3235H12.5407V4.39062H11.7556H10.9727H10.1877H9.40695H8.6219H7.83684V5.12349H7.05396H6.27108V5.85418H5.48821V6.58705V7.31774Z" fill="url(#paint4_linear_4605_11693)"/>
<path d="M21.9424 5.12589V4.39302V3.66016H21.1595V4.39302H20.3766H19.5938V5.12589V5.85658V6.58945H20.3766V5.85658H21.1595H21.9424V6.58945V7.32014H22.7274V6.58945V5.85658V5.12589H21.9424Z" fill="url(#paint5_linear_4605_11693)"/>
<path d="M20.3728 2.92712V2.19642H19.5899H18.8049V1.46573H18.022V0.732865H17.2391H16.454V0H15.6712H14.8861H14.1032H13.3203V0.732865H14.1032H14.8861V1.46573H15.6712V2.19642H16.454V2.92712H17.2391V3.65781H18.022H18.8049H19.5899H20.3728H21.1557V2.92712H20.3728Z" fill="url(#paint6_linear_4605_11693)"/>
<path d="M21.9424 5.12589V4.39302V3.66016H21.1595V4.39302H20.3766H19.5938V5.12589V5.85658V6.58945H20.3766V5.85658H21.1595H21.9424V6.58945V7.32014H22.7274V6.58945V5.85658V5.12589H21.9424Z" fill="url(#paint7_linear_4605_11693)"/>
<path d="M21.9391 5.12589V4.39302V3.66016H21.1562V4.39302V5.12589H21.9391V5.85658V6.58945V7.32014H22.7242V6.58945V5.85658V5.12589H21.9391Z" fill="#1D1D1B"/>
<path d="M18.8063 1.46484H18.0234V2.19771H18.8063V1.46484Z" fill="#1D1D1B"/>
<path d="M18.8125 2.926H19.5976H20.3804V2.19531H19.5976H18.8125V2.926Z" fill="#1D1D1B"/>
<path d="M17.2382 1.46724H18.0211V0.734375H17.2382H16.4531V1.46724H17.2382Z" fill="#1D1D1B"/>
<path d="M21.1679 2.92578H20.3828V3.65865H21.1679V2.92578Z" fill="#1D1D1B"/>
<path d="M14.1032 0.732865H14.8861H15.6712H16.454V0H15.6712H14.8861H14.1032H13.3203V0.732865H14.1032Z" fill="#1D1D1B"/>
<path d="M19.5976 16.8281H18.8125V17.561H19.5976V16.8281Z" fill="#1D1D1B"/>
<path d="M22.7304 7.32031H21.9453H22.7304V8.051V8.78387V9.51456V10.2474V10.9781V11.711V12.4395V13.1724V13.9052V14.6359H23.5154V13.9052V13.1724V12.4395V11.711V10.9781V10.2474V9.51456V8.78387V8.051V7.32031H22.7304Z" fill="#1D1D1B"/>
<path d="M19.5938 18.293V19.0258V19.7565H20.3766V19.0258V18.293H19.5938Z" fill="#1D1D1B"/>
<path d="M21.1679 17.5625H20.3828V18.2954H21.1679V17.5625Z" fill="#1D1D1B"/>
<path d="M21.9391 14.6328V15.3657V16.0964H21.1562V16.8271V17.5599H21.9391V16.8271V16.0964H22.7242V15.3657V14.6328H21.9391Z" fill="#1D1D1B"/>
<path d="M16.4548 21.2188H15.6719V21.9494H16.4548V21.2188Z" fill="#1D1D1B"/>
<path d="M18.8063 19.7541V19.0234H18.0234V19.7541V20.487H18.8063V19.7541Z" fill="#1D1D1B"/>
<path d="M18.0272 20.4883H17.2422V21.2212H18.0272V20.4883Z" fill="#1D1D1B"/>
<path d="M13.3243 20.4883V21.219H12.5414H11.7563H10.9735H10.1884H9.40768H8.62262H7.83757H7.05469V21.9497H7.83757H8.62262H9.40768H10.1884H10.9735H11.7563H12.5414H13.3243V21.219H14.1072H14.8901V20.4883H14.1072H13.3243Z" fill="#1D1D1B"/>
<path d="M15.6757 19.7578H14.8906V20.4907H15.6757V19.7578Z" fill="#1D1D1B"/>
<path d="M16.4548 19.0258H15.6719V19.7565H16.4548H17.2398V19.0258V18.293H16.4548V19.0258Z" fill="#1D1D1B"/>
<path d="M18.0272 17.5625H17.2422V18.2954H18.0272V17.5625Z" fill="#1D1D1B"/>
<path d="M18.8063 16.8281H18.0234V17.561H18.8063V16.8281Z" fill="#1D1D1B"/>
<path d="M18.8125 16.0979V16.8286H19.5976V16.0979V15.3672H18.8125V16.0979Z" fill="#1D1D1B"/>
<path d="M19.5938 8.04688V8.77974V9.51043V10.2433V10.974V11.7069V12.4354V13.1682V13.9011V14.6318V15.3647H20.3766V14.6318V13.9011V13.1682V12.4354V11.7069V10.974V10.2433V9.51043V8.77974V8.04688H19.5938Z" fill="#1D1D1B"/>
<path d="M18.8125 6.58834V7.31903H19.5976V6.58834V5.85547H18.8125V6.58834Z" fill="#1D1D1B"/>
<path d="M18.8063 4.39062H18.0234V5.12349H18.8063V4.39062Z" fill="#1D1D1B"/>
<path d="M14.8844 16.0977H14.1016V16.8284H14.8844V16.0977Z" fill="#1D1D1B"/>
<path d="M15.6757 8.04732V8.78019H16.4586V9.51088V10.2437V10.9744V11.7073V12.4358V13.1687H15.6757V13.9015V14.6322H14.8906V15.3651V16.0958H15.6757V15.3651H16.4586V14.6322V13.9015H17.2436V13.1687V12.4358V11.7073V10.9744V10.2437V9.51088V8.78019V8.04732H16.4586V7.31663V6.58594H15.6757V7.31663V8.04732Z" fill="#1D1D1B"/>
<path d="M15.6757 5.85547H14.8906V6.58834H15.6757V5.85547Z" fill="#1D1D1B"/>
<path d="M14.8844 5.125H14.1016V5.85787H14.8844V5.125Z" fill="#1D1D1B"/>
<path d="M18.0272 3.66016H17.2422V4.39302H18.0272V3.66016Z" fill="#1D1D1B"/>
<path d="M17.246 2.92578H16.4609V3.65865H17.246V2.92578Z" fill="#1D1D1B"/>
<path d="M16.4548 2.19531H15.6719V2.926H16.4548V2.19531Z" fill="#1D1D1B"/>
<path d="M15.6757 1.46484H14.8906V2.19771H15.6757V1.46484Z" fill="#1D1D1B"/>
<path d="M13.3203 1.46724H14.1032H14.8861V0.734375H14.1032H13.3203V1.46724Z" fill="#1D1D1B"/>
<path d="M6.26725 20.4883H5.48438V21.219H6.26725H7.05013V20.4883H6.26725Z" fill="#1D1D1B"/>
<path d="M5.48821 19.7578H4.70312V20.4907H5.48821V19.7578Z" fill="#1D1D1B"/>
<path d="M3.9235 19.0258V18.293H3.14062V19.0258V19.7565H3.9235H4.70638V19.0258H3.9235Z" fill="#1D1D1B"/>
<path d="M3.13444 17.5625H2.35156V18.2954H3.13444V17.5625Z" fill="#1D1D1B"/>
<path d="M7.83919 18.2917H8.62425H9.4093H10.19H10.9751H11.758H12.543H13.3259V17.561H14.1088V16.8281H13.3259H12.543V17.561H11.758H10.9751H10.19H9.4093H8.62425H7.83919V16.8281H7.05632H6.27344V17.561H7.05632V18.2917H7.83919Z" fill="#1D1D1B"/>
<path d="M6.26725 16.0977H5.48438V16.8284H6.26725V16.0977Z" fill="#1D1D1B"/>
<path d="M2.34755 16.0977H1.5625V16.8284V17.5612H2.34755V16.8284V16.0977Z" fill="#1D1D1B"/>
<path d="M1.5663 14.6328H0.78125V15.3657V16.0964H1.5663V15.3657V14.6328Z" fill="#1D1D1B"/>
<path d="M0.782905 13.1682V12.4354V11.7069V10.974V10.2433V9.51043V8.77974V8.04688H0V8.77974V9.51043V10.2433V10.974V11.7069V12.4354V13.1682V13.9011H0.782905V13.1682Z" fill="#1D1D1B"/>
<path d="M5.49146 14.6346H4.70638V13.9039V13.1711H3.9235V12.4382V11.7097V10.9768V10.2461V9.51328V8.78258H4.70638V8.04972V7.31903H5.49146V6.58834V5.85547H4.70638V6.58834H3.9235V7.31903V8.04972H3.14062V8.78258V9.51328V10.2461V10.9768V11.7097V12.4382V13.1711V13.9039H3.9235V14.6346V15.3675H4.70638V16.0982H5.49146V15.3675V14.6346Z" fill="#1D1D1B"/>
<path d="M1.5663 6.58834V5.85547H0.78125V6.58834V7.31903H1.5663V6.58834Z" fill="#1D1D1B"/>
<path d="M6.26725 5.125H5.48438V5.85787H6.26725V5.125Z" fill="#1D1D1B"/>
<path d="M2.34755 5.12349V4.39062H1.5625V5.12349V5.85418H2.34755V5.12349Z" fill="#1D1D1B"/>
<path d="M7.83919 5.12589V4.39302H8.62425H9.4093H10.19H10.9751H11.758H12.543V5.12589H13.3259H14.1088V4.39302H13.3259V3.66016H12.543H11.758H10.9751H10.19H9.4093H8.62425H7.83919H7.05632V4.39302H6.27344V5.12589H7.05632H7.83919Z" fill="#1D1D1B"/>
<path d="M3.13444 3.66016H2.35156V4.39302H3.13444V3.66016Z" fill="#1D1D1B"/>
<path d="M3.92568 2.92578H3.14062V3.65865H3.92568V2.92578Z" fill="#1D1D1B"/>
<path d="M4.70475 2.19531H3.92188V2.926H4.70475V2.19531Z" fill="#1D1D1B"/>
<path d="M5.48821 1.46484H4.70312V2.19771H5.48821V1.46484Z" fill="#1D1D1B"/>
<path d="M7.05013 1.46724V0.734375H6.26725H5.48438V1.46724H6.26725H7.05013Z" fill="#1D1D1B"/>
<path d="M8.62262 0.732865H9.40768H10.1884H10.9735H11.7563H12.5414H13.3243V0H12.5414H11.7563H10.9735H10.1884H9.40768H8.62262H7.83757H7.05469V0.732865H7.83757H8.62262Z" fill="#1D1D1B"/>
<path d="M21.1595 5.85547H20.3766V6.58834H19.5938V7.31903V8.04972H20.3766V7.31903H21.1595H21.9424V6.58834V5.85547H21.1595Z" fill="white"/>
<path d="M20.3743 3.66016H19.5914H18.8063H18.0234V4.39302H18.8063V5.12589H19.5914V4.39302H20.3743H21.1572V3.66016H20.3743Z" fill="white"/>
<path d="M10.9689 16.8271H10.1838H9.40312H8.61806V16.0964H7.83301H7.05013V15.3657H6.26725V14.6328H5.48438V15.3657V16.0964H6.26725V16.8271H7.05013H7.83301V17.5599H8.61806H9.40312H10.1838H10.9689H11.7518H12.5368V16.8271H11.7518H10.9689Z" fill="white"/>
<path d="M12.5391 16.0977V16.8284H13.3219H14.1048V16.0977H13.3219H12.5391Z" fill="white"/>
<path d="M14.8844 15.3672H14.1016V16.1001H14.8844V15.3672Z" fill="white"/>
<path d="M5.48821 13.1719H4.70312V13.9047V14.6354H5.48821V13.9047V13.1719Z" fill="white"/>
<path d="M4.70475 11.7057V10.9729V10.2422H3.92188V10.9729V11.7057V12.4343V13.1671H4.70475V12.4343V11.7057Z" fill="white"/>
<path d="M4.70475 8.78125H3.92188V9.51411H4.70475V8.78125Z" fill="white"/>
<path d="M19.5976 19.0234H18.8125V19.7563H19.5976V19.0234Z" fill="url(#paint8_linear_4605_11693)"/>
<path d="M20.3766 16.8281H19.5938V17.561H20.3766V16.8281Z" fill="url(#paint9_linear_4605_11693)"/>
<path d="M4.70475 9.51172H3.92188V10.2446H4.70475V9.51172Z" fill="#FAF1CE"/>
<path d="M22.7236 7.32031H21.9386H21.1557H20.3728V8.051V8.78387V9.51456V10.2474V10.9781V11.711V12.4395V13.1724V13.9052V14.6359V15.3688H19.5899V16.0995V16.8302H20.3728V17.563H19.5899V16.8302H18.8049V17.563H18.022V18.2937H17.2391V19.0266V19.7573H16.454H15.6712V20.4901H14.8861V21.2208H14.1032H13.3203V21.9515H14.1032H14.8861H15.6712H16.454V21.2208H17.2391H18.022V20.4901H18.8049V19.7573V19.0266H19.5899V19.7573H20.3728V19.0266V18.2937H21.1557V17.563H21.9386V16.8302V16.0995H22.7236V15.3688V14.6359H23.5087V13.9052V13.1724V12.4395V11.711V10.9781V10.2474V9.51456V8.78387V8.051V7.32031H22.7236Z" fill="url(#paint10_linear_4605_11693)"/>
<path d="M14.8861 21.1992V21.2166H13.3203V21.9473H16.454V21.2166H18.022V21.1992H14.8861Z" fill="#1D1D1B"/>
<path d="M19.5976 5.125H18.8125V5.85787H19.5976V5.125Z" fill="white"/>
<path d="M18.8028 7.3193V5.12505H18.0199V4.39218H17.237V3.65932H16.452V2.92863H15.6691V2.19793H14.8775V1.46724H13.3117V0.734375H7.04866V1.46724H5.4829V2.19793H4.69782V2.92863H3.91494V3.65932H3.13424V4.39218H2.35136V5.86009H1.56631V7.32365H0.78125V14.6393H1.56631V16.1028H2.35136V17.5664H3.13424V18.2971H3.91712V19.0299H4.69999V19.7606H5.48508V20.4935H7.05083V21.2242H13.3204V20.4935H14.8862V19.7563H15.6713V19.0256H16.4541V18.2927H17.2392V17.562H18.0221V16.8292H18.805V15.3678H19.59V7.32147L18.8028 7.3193ZM3.91494 8.04999V6.58861H4.69782V5.86009H5.4829V5.1294H6.26578V4.39653H7.04866V3.66366H13.3182V4.39653H14.1011V5.1294H14.884V5.86009H15.6691V6.59295H16.452V8.05434H17.237V13.9064H16.452V15.37H15.6691V16.1006H14.8775V16.8313H14.0946V17.5642H13.3117V18.2949H7.04866V17.5642H6.26578V16.8313H5.4829V16.1006H4.69782V15.37H3.91494V13.9064H3.13424V8.04999H3.91494Z" fill="url(#paint11_linear_4605_11693)"/>
<path d="M5.48821 7.31774H4.70312V8.04843V8.7813V9.51199V10.2449V10.9755V11.7084V12.4369V13.1698H5.48821V13.9027V14.6334H6.27108V15.3662H7.05396V16.0969H7.83684H8.6219V16.8276H9.40695H10.1877H10.9727H11.7556H12.5407V16.0969H13.3235H14.1065V15.3662H14.8893V14.6334H15.6744V13.9027V13.1698H16.4573V12.4369V11.7084V10.9755V10.2449V9.51199V8.7813H15.6744V8.04843V7.31774V6.58705H14.8893V5.85418H14.1065V5.12349H13.3235H12.5407V4.39062H11.7556H10.9727H10.1877H9.40695H8.6219H7.83684V5.12349H7.05396H6.27108V5.85418H5.48821V6.58705V7.31774Z" fill="url(#paint12_linear_4605_11693)"/>
<path d="M21.9424 5.12589V4.39302V3.66016H21.1595V4.39302H20.3766H19.5938V5.12589V5.85658V6.58945H20.3766V5.85658H21.1595H21.9424V6.58945V7.32014H22.7274V6.58945V5.85658V5.12589H21.9424Z" fill="url(#paint13_linear_4605_11693)"/>
<path d="M20.3728 2.92712V2.19642H19.5899H18.8049V1.46573H18.022V0.732865H17.2391H16.454V0H15.6712H14.8861H14.1032H13.3203V0.732865H14.1032H14.8861V1.46573H15.6712V2.19642H16.454V2.92712H17.2391V3.65781H18.022H18.8049H19.5899H20.3728H21.1557V2.92712H20.3728Z" fill="url(#paint14_linear_4605_11693)"/>
<path d="M21.9424 5.12589V4.39302V3.66016H21.1595V4.39302H20.3766H19.5938V5.12589V5.85658V6.58945H20.3766V5.85658H21.1595H21.9424V6.58945V7.32014H22.7274V6.58945V5.85658V5.12589H21.9424Z" fill="url(#paint15_linear_4605_11693)"/>
<path d="M21.9391 5.12589V4.39302V3.66016H21.1562V4.39302V5.12589H21.9391V5.85658V6.58945V7.32014H22.7242V6.58945V5.85658V5.12589H21.9391Z" fill="#1D1D1B"/>
<path d="M18.8063 1.46484H18.0234V2.19771H18.8063V1.46484Z" fill="#1D1D1B"/>
<path d="M18.8125 2.926H19.5976H20.3804V2.19531H19.5976H18.8125V2.926Z" fill="#1D1D1B"/>
<path d="M17.2382 1.46724H18.0211V0.734375H17.2382H16.4531V1.46724H17.2382Z" fill="#1D1D1B"/>
<path d="M21.1679 2.92578H20.3828V3.65865H21.1679V2.92578Z" fill="#1D1D1B"/>
<path d="M14.1032 0.732865H14.8861H15.6712H16.454V0H15.6712H14.8861H14.1032H13.3203V0.732865H14.1032Z" fill="#1D1D1B"/>
<path d="M19.5976 16.8281H18.8125V17.561H19.5976V16.8281Z" fill="#1D1D1B"/>
<path d="M22.7304 7.32031H21.9453H22.7304V8.051V8.78387V9.51456V10.2474V10.9781V11.711V12.4395V13.1724V13.9052V14.6359H23.5154V13.9052V13.1724V12.4395V11.711V10.9781V10.2474V9.51456V8.78387V8.051V7.32031H22.7304Z" fill="#1D1D1B"/>
<path d="M19.5938 18.293V19.0258V19.7565H20.3766V19.0258V18.293H19.5938Z" fill="#1D1D1B"/>
<path d="M21.1679 17.5625H20.3828V18.2954H21.1679V17.5625Z" fill="#1D1D1B"/>
<path d="M21.9391 14.6328V15.3657V16.0964H21.1562V16.8271V17.5599H21.9391V16.8271V16.0964H22.7242V15.3657V14.6328H21.9391Z" fill="#1D1D1B"/>
<path d="M16.4548 21.2188H15.6719V21.9494H16.4548V21.2188Z" fill="#1D1D1B"/>
<path d="M18.8063 19.7541V19.0234H18.0234V19.7541V20.487H18.8063V19.7541Z" fill="#1D1D1B"/>
<path d="M18.0272 20.4883H17.2422V21.2212H18.0272V20.4883Z" fill="#1D1D1B"/>
<path d="M13.3243 20.4883V21.219H12.5414H11.7563H10.9735H10.1884H9.40768H8.62262H7.83757H7.05469V21.9497H7.83757H8.62262H9.40768H10.1884H10.9735H11.7563H12.5414H13.3243V21.219H14.1072H14.8901V20.4883H14.1072H13.3243Z" fill="#1D1D1B"/>
<path d="M15.6757 19.7578H14.8906V20.4907H15.6757V19.7578Z" fill="#1D1D1B"/>
<path d="M16.4548 19.0258H15.6719V19.7565H16.4548H17.2398V19.0258V18.293H16.4548V19.0258Z" fill="#1D1D1B"/>
<path d="M18.0272 17.5625H17.2422V18.2954H18.0272V17.5625Z" fill="#1D1D1B"/>
<path d="M18.8063 16.8281H18.0234V17.561H18.8063V16.8281Z" fill="#1D1D1B"/>
<path d="M18.8125 16.0979V16.8286H19.5976V16.0979V15.3672H18.8125V16.0979Z" fill="#1D1D1B"/>
<path d="M19.5938 8.04688V8.77974V9.51043V10.2433V10.974V11.7069V12.4354V13.1682V13.9011V14.6318V15.3647H20.3766V14.6318V13.9011V13.1682V12.4354V11.7069V10.974V10.2433V9.51043V8.77974V8.04688H19.5938Z" fill="#1D1D1B"/>
<path d="M18.8125 6.58834V7.31903H19.5976V6.58834V5.85547H18.8125V6.58834Z" fill="#1D1D1B"/>
<path d="M18.8063 4.39062H18.0234V5.12349H18.8063V4.39062Z" fill="#1D1D1B"/>
<path d="M14.8844 16.0977H14.1016V16.8284H14.8844V16.0977Z" fill="#1D1D1B"/>
<path d="M15.6757 8.04732V8.78019H16.4586V9.51088V10.2437V10.9744V11.7073V12.4358V13.1687H15.6757V13.9015V14.6322H14.8906V15.3651V16.0958H15.6757V15.3651H16.4586V14.6322V13.9015H17.2436V13.1687V12.4358V11.7073V10.9744V10.2437V9.51088V8.78019V8.04732H16.4586V7.31663V6.58594H15.6757V7.31663V8.04732Z" fill="#1D1D1B"/>
<path d="M15.6757 5.85547H14.8906V6.58834H15.6757V5.85547Z" fill="#1D1D1B"/>
<path d="M14.8844 5.125H14.1016V5.85787H14.8844V5.125Z" fill="#1D1D1B"/>
<path d="M18.0272 3.66016H17.2422V4.39302H18.0272V3.66016Z" fill="#1D1D1B"/>
<path d="M17.246 2.92578H16.4609V3.65865H17.246V2.92578Z" fill="#1D1D1B"/>
<path d="M16.4548 2.19531H15.6719V2.926H16.4548V2.19531Z" fill="#1D1D1B"/>
<path d="M15.6757 1.46484H14.8906V2.19771H15.6757V1.46484Z" fill="#1D1D1B"/>
<path d="M13.3203 1.46724H14.1032H14.8861V0.734375H14.1032H13.3203V1.46724Z" fill="#1D1D1B"/>
<path d="M6.26725 20.4883H5.48438V21.219H6.26725H7.05013V20.4883H6.26725Z" fill="#1D1D1B"/>
<path d="M5.48821 19.7578H4.70312V20.4907H5.48821V19.7578Z" fill="#1D1D1B"/>
<path d="M3.9235 19.0258V18.293H3.14062V19.0258V19.7565H3.9235H4.70638V19.0258H3.9235Z" fill="#1D1D1B"/>
<path d="M3.13444 17.5625H2.35156V18.2954H3.13444V17.5625Z" fill="#1D1D1B"/>
<path d="M7.83919 18.2917H8.62425H9.4093H10.19H10.9751H11.758H12.543H13.3259V17.561H14.1088V16.8281H13.3259H12.543V17.561H11.758H10.9751H10.19H9.4093H8.62425H7.83919V16.8281H7.05632H6.27344V17.561H7.05632V18.2917H7.83919Z" fill="#1D1D1B"/>
<path d="M6.26725 16.0977H5.48438V16.8284H6.26725V16.0977Z" fill="#1D1D1B"/>
<path d="M2.34755 16.0977H1.5625V16.8284V17.5612H2.34755V16.8284V16.0977Z" fill="#1D1D1B"/>
<path d="M1.5663 14.6328H0.78125V15.3657V16.0964H1.5663V15.3657V14.6328Z" fill="#1D1D1B"/>
<path d="M0.782905 13.1682V12.4354V11.7069V10.974V10.2433V9.51043V8.77974V8.04688H0V8.77974V9.51043V10.2433V10.974V11.7069V12.4354V13.1682V13.9011H0.782905V13.1682Z" fill="#1D1D1B"/>
<path d="M5.49146 14.6346H4.70638V13.9039V13.1711H3.9235V12.4382V11.7097V10.9768V10.2461V9.51328V8.78258H4.70638V8.04972V7.31903H5.49146V6.58834V5.85547H4.70638V6.58834H3.9235V7.31903V8.04972H3.14062V8.78258V9.51328V10.2461V10.9768V11.7097V12.4382V13.1711V13.9039H3.9235V14.6346V15.3675H4.70638V16.0982H5.49146V15.3675V14.6346Z" fill="#1D1D1B"/>
<path d="M1.5663 6.58834V5.85547H0.78125V6.58834V7.31903H1.5663V6.58834Z" fill="#1D1D1B"/>
<path d="M6.26725 5.125H5.48438V5.85787H6.26725V5.125Z" fill="#1D1D1B"/>
<path d="M2.34755 5.12349V4.39062H1.5625V5.12349V5.85418H2.34755V5.12349Z" fill="#1D1D1B"/>
<path d="M7.83919 5.12589V4.39302H8.62425H9.4093H10.19H10.9751H11.758H12.543V5.12589H13.3259H14.1088V4.39302H13.3259V3.66016H12.543H11.758H10.9751H10.19H9.4093H8.62425H7.83919H7.05632V4.39302H6.27344V5.12589H7.05632H7.83919Z" fill="#1D1D1B"/>
<path d="M3.13444 3.66016H2.35156V4.39302H3.13444V3.66016Z" fill="#1D1D1B"/>
<path d="M3.92568 2.92578H3.14062V3.65865H3.92568V2.92578Z" fill="#1D1D1B"/>
<path d="M4.70475 2.19531H3.92188V2.926H4.70475V2.19531Z" fill="#1D1D1B"/>
<path d="M5.48821 1.46484H4.70312V2.19771H5.48821V1.46484Z" fill="#1D1D1B"/>
<path d="M7.05013 1.46724V0.734375H6.26725H5.48438V1.46724H6.26725H7.05013Z" fill="#1D1D1B"/>
<path d="M8.62262 0.732865H9.40768H10.1884H10.9735H11.7563H12.5414H13.3243V0H12.5414H11.7563H10.9735H10.1884H9.40768H8.62262H7.83757H7.05469V0.732865H7.83757H8.62262Z" fill="#1D1D1B"/>
<path d="M21.1595 5.85547H20.3766V6.58834H19.5938V7.31903V8.04972H20.3766V7.31903H21.1595H21.9424V6.58834V5.85547H21.1595Z" fill="white"/>
<path d="M20.3743 3.66016H19.5914H18.8063H18.0234V4.39302H18.8063V5.12589H19.5914V4.39302H20.3743H21.1572V3.66016H20.3743Z" fill="white"/>
<path d="M10.9689 16.8271H10.1838H9.40312H8.61806V16.0964H7.83301H7.05013V15.3657H6.26725V14.6328H5.48438V15.3657V16.0964H6.26725V16.8271H7.05013H7.83301V17.5599H8.61806H9.40312H10.1838H10.9689H11.7518H12.5368V16.8271H11.7518H10.9689Z" fill="white"/>
<path d="M12.5391 16.0977V16.8284H13.3219H14.1048V16.0977H13.3219H12.5391Z" fill="white"/>
<path d="M14.8844 15.3672H14.1016V16.1001H14.8844V15.3672Z" fill="white"/>
<path d="M5.48821 13.1719H4.70312V13.9047V14.6354H5.48821V13.9047V13.1719Z" fill="white"/>
<path d="M4.70475 11.7057V10.9729V10.2422H3.92188V10.9729V11.7057V12.4343V13.1671H4.70475V12.4343V11.7057Z" fill="white"/>
<path d="M4.70475 8.78125H3.92188V9.51411H4.70475V8.78125Z" fill="white"/>
<path d="M7.51076 13.0916V7.03395H9.24153V7.89934H10.1069V8.76472H10.9723V7.89934H11.8377V7.03395H13.5685V13.0916H11.8377V9.63011H10.9723V11.3609H10.1069V9.63011H9.24153V13.0916H7.51076Z" fill="black"/>
<defs>
<linearGradient id="paint0_linear_4605_11693" x1="19.205" y1="19.0136" x2="19.205" y2="19.7563" gradientUnits="userSpaceOnUse">
<stop stop-color="#FD8D23"/>
<stop offset="0.115" stop-color="#FAE61C"/>
<stop offset="0.22" stop-color="#EEF73B"/>
<stop offset="0.43" stop-color="#4CF038"/>
<stop offset="0.655" stop-color="#33C6F6"/>
<stop offset="0.81" stop-color="#7475FF"/>
<stop offset="1" stop-color="#D457FF"/>
</linearGradient>
<linearGradient id="paint1_linear_4605_11693" x1="19.9852" y1="16.8183" x2="19.9852" y2="17.561" gradientUnits="userSpaceOnUse">
<stop stop-color="#FD8D23"/>
<stop offset="0.115" stop-color="#FAE61C"/>
<stop offset="0.22" stop-color="#EEF73B"/>
<stop offset="0.43" stop-color="#4CF038"/>
<stop offset="0.655" stop-color="#33C6F6"/>
<stop offset="0.81" stop-color="#7475FF"/>
<stop offset="1" stop-color="#D457FF"/>
</linearGradient>
<linearGradient id="paint2_linear_4605_11693" x1="18.4145" y1="7.12367" x2="18.4145" y2="21.9515" gradientUnits="userSpaceOnUse">
<stop stop-color="#FD8D23"/>
<stop offset="0.115" stop-color="#FAE61C"/>
<stop offset="0.22" stop-color="#EEF73B"/>
<stop offset="0.43" stop-color="#4CF038"/>
<stop offset="0.655" stop-color="#33C6F6"/>
<stop offset="0.81" stop-color="#7475FF"/>
<stop offset="1" stop-color="#D457FF"/>
</linearGradient>
<linearGradient id="paint3_linear_4605_11693" x1="10.1856" y1="0.458991" x2="10.1856" y2="21.2242" gradientUnits="userSpaceOnUse">
<stop stop-color="#FD8D23"/>
<stop offset="0.115" stop-color="#FAE61C"/>
<stop offset="0.22" stop-color="#EEF73B"/>
<stop offset="0.43" stop-color="#4CF038"/>
<stop offset="0.655" stop-color="#33C6F6"/>
<stop offset="0.81" stop-color="#7475FF"/>
<stop offset="1" stop-color="#D457FF"/>
</linearGradient>
<linearGradient id="paint4_linear_4605_11693" x1="10.5802" y1="4.22347" x2="10.5802" y2="16.8276" gradientUnits="userSpaceOnUse">
<stop stop-color="#FD8D23"/>
<stop offset="0.115" stop-color="#FAE61C"/>
<stop offset="0.22" stop-color="#EEF73B"/>
<stop offset="0.43" stop-color="#4CF038"/>
<stop offset="0.655" stop-color="#33C6F6"/>
<stop offset="0.81" stop-color="#7475FF"/>
<stop offset="1" stop-color="#D457FF"/>
</linearGradient>
<linearGradient id="paint5_linear_4605_11693" x1="21.1606" y1="3.61097" x2="21.1606" y2="7.32014" gradientUnits="userSpaceOnUse">
<stop stop-color="#FD8D23"/>
<stop offset="0.115" stop-color="#FAE61C"/>
<stop offset="0.22" stop-color="#EEF73B"/>
<stop offset="0.43" stop-color="#4CF038"/>
<stop offset="0.655" stop-color="#33C6F6"/>
<stop offset="0.81" stop-color="#7475FF"/>
<stop offset="1" stop-color="#D457FF"/>
</linearGradient>
<linearGradient id="paint6_linear_4605_11693" x1="17.238" y1="-0.0491611" x2="17.238" y2="3.65781" gradientUnits="userSpaceOnUse">
<stop stop-color="#FD8D23"/>
<stop offset="0.115" stop-color="#FAE61C"/>
<stop offset="0.22" stop-color="#EEF73B"/>
<stop offset="0.43" stop-color="#4CF038"/>
<stop offset="0.655" stop-color="#33C6F6"/>
<stop offset="0.81" stop-color="#7475FF"/>
<stop offset="1" stop-color="#D457FF"/>
</linearGradient>
<linearGradient id="paint7_linear_4605_11693" x1="21.1606" y1="3.61097" x2="21.1606" y2="7.32014" gradientUnits="userSpaceOnUse">
<stop stop-color="#FD8D23"/>
<stop offset="0.115" stop-color="#FAE61C"/>
<stop offset="0.22" stop-color="#EEF73B"/>
<stop offset="0.43" stop-color="#4CF038"/>
<stop offset="0.655" stop-color="#33C6F6"/>
<stop offset="0.81" stop-color="#7475FF"/>
<stop offset="1" stop-color="#D457FF"/>
</linearGradient>
<linearGradient id="paint8_linear_4605_11693" x1="19.205" y1="19.0136" x2="19.205" y2="19.7563" gradientUnits="userSpaceOnUse">
<stop stop-color="#FD8D23"/>
<stop offset="0.115" stop-color="#FAE61C"/>
<stop offset="0.22" stop-color="#EEF73B"/>
<stop offset="0.43" stop-color="#4CF038"/>
<stop offset="0.655" stop-color="#33C6F6"/>
<stop offset="0.81" stop-color="#7475FF"/>
<stop offset="1" stop-color="#D457FF"/>
</linearGradient>
<linearGradient id="paint9_linear_4605_11693" x1="19.9852" y1="16.8183" x2="19.9852" y2="17.561" gradientUnits="userSpaceOnUse">
<stop stop-color="#FD8D23"/>
<stop offset="0.115" stop-color="#FAE61C"/>
<stop offset="0.22" stop-color="#EEF73B"/>
<stop offset="0.43" stop-color="#4CF038"/>
<stop offset="0.655" stop-color="#33C6F6"/>
<stop offset="0.81" stop-color="#7475FF"/>
<stop offset="1" stop-color="#D457FF"/>
</linearGradient>
<linearGradient id="paint10_linear_4605_11693" x1="18.4145" y1="7.12367" x2="18.4145" y2="21.9515" gradientUnits="userSpaceOnUse">
<stop stop-color="#FD8D23"/>
<stop offset="0.115" stop-color="#FAE61C"/>
<stop offset="0.22" stop-color="#EEF73B"/>
<stop offset="0.43" stop-color="#4CF038"/>
<stop offset="0.655" stop-color="#33C6F6"/>
<stop offset="0.81" stop-color="#7475FF"/>
<stop offset="1" stop-color="#D457FF"/>
</linearGradient>
<linearGradient id="paint11_linear_4605_11693" x1="10.1856" y1="0.458991" x2="10.1856" y2="21.2242" gradientUnits="userSpaceOnUse">
<stop stop-color="#FD8D23"/>
<stop offset="0.115" stop-color="#FAE61C"/>
<stop offset="0.22" stop-color="#EEF73B"/>
<stop offset="0.43" stop-color="#4CF038"/>
<stop offset="0.655" stop-color="#33C6F6"/>
<stop offset="0.81" stop-color="#7475FF"/>
<stop offset="1" stop-color="#D457FF"/>
</linearGradient>
<linearGradient id="paint12_linear_4605_11693" x1="10.5802" y1="4.22347" x2="10.5802" y2="16.8276" gradientUnits="userSpaceOnUse">
<stop stop-color="#FD8D23"/>
<stop offset="0.115" stop-color="#FAE61C"/>
<stop offset="0.22" stop-color="#EEF73B"/>
<stop offset="0.43" stop-color="#4CF038"/>
<stop offset="0.655" stop-color="#33C6F6"/>
<stop offset="0.81" stop-color="#7475FF"/>
<stop offset="1" stop-color="#D457FF"/>
</linearGradient>
<linearGradient id="paint13_linear_4605_11693" x1="21.1606" y1="3.61097" x2="21.1606" y2="7.32014" gradientUnits="userSpaceOnUse">
<stop stop-color="#FD8D23"/>
<stop offset="0.115" stop-color="#FAE61C"/>
<stop offset="0.22" stop-color="#EEF73B"/>
<stop offset="0.43" stop-color="#4CF038"/>
<stop offset="0.655" stop-color="#33C6F6"/>
<stop offset="0.81" stop-color="#7475FF"/>
<stop offset="1" stop-color="#D457FF"/>
</linearGradient>
<linearGradient id="paint14_linear_4605_11693" x1="17.238" y1="-0.0491611" x2="17.238" y2="3.65781" gradientUnits="userSpaceOnUse">
<stop stop-color="#FD8D23"/>
<stop offset="0.115" stop-color="#FAE61C"/>
<stop offset="0.22" stop-color="#EEF73B"/>
<stop offset="0.43" stop-color="#4CF038"/>
<stop offset="0.655" stop-color="#33C6F6"/>
<stop offset="0.81" stop-color="#7475FF"/>
<stop offset="1" stop-color="#D457FF"/>
</linearGradient>
<linearGradient id="paint15_linear_4605_11693" x1="21.1606" y1="3.61097" x2="21.1606" y2="7.32014" gradientUnits="userSpaceOnUse">
<stop stop-color="#FD8D23"/>
<stop offset="0.115" stop-color="#FAE61C"/>
<stop offset="0.22" stop-color="#EEF73B"/>
<stop offset="0.43" stop-color="#4CF038"/>
<stop offset="0.655" stop-color="#33C6F6"/>
<stop offset="0.81" stop-color="#7475FF"/>
<stop offset="1" stop-color="#D457FF"/>
</linearGradient>
</defs>
</svg>
