<svg width="39" height="39" viewBox="0 0 39 39" fill="none" xmlns="http://www.w3.org/2000/svg">
<g filter="url(#filter0_d_4493_15207)">
<g opacity="0.3">
<path d="M5.46438 38.4189L0.453125 34.1212V9.86415L5.46438 5.56641H33.5992L38.6105 9.86415V34.1212L33.5992 38.4189H5.46438Z" fill="black"/>
<path d="M5.46438 33.946L0.453125 29.629V5.3913L5.46438 1.07422H33.5992L38.6105 5.3913V29.629L33.5992 33.946H5.46438Z" fill="black"/>
</g>
<g opacity="0.8">
<path d="M5.46438 36.1728L0.453125 31.8751V7.61804L5.46438 3.32031H33.5992L38.6105 7.61804V31.8751L33.5992 36.1728H5.46438Z" fill="black"/>
<path d="M5.46438 33.946L0.453125 29.629V5.3913L5.46438 1.07422H33.5992L38.6105 5.3913V29.629L33.5992 33.946H5.46438Z" fill="black"/>
</g>
<path d="M33.4417 35.8658H5.59901C3.73384 34.259 2.67767 33.3491 0.8125 31.7423V7.75632C2.67767 6.14951 3.73384 5.23962 5.59901 3.63281H33.4417C35.3069 5.23962 36.3631 6.14951 38.2283 7.75632V31.7423C36.3631 33.3491 35.3069 34.259 33.4417 35.8658Z" fill="#404043"/>
<path d="M33.4417 33.6197H5.59901C3.73384 32.0129 2.67767 31.103 0.8125 29.4962V5.51023C2.67767 3.90342 3.73384 2.99353 5.59901 1.38672H33.4417C35.3069 2.99353 36.3631 3.90342 38.2283 5.51023V29.4962C36.3631 31.103 35.3069 32.0129 33.4417 33.6197Z" fill="#404043"/>
<path d="M33.5589 33.6197H5.71619C3.85102 32.0129 2.79486 31.103 0.929688 29.4962V5.51023C2.79486 3.90342 3.85102 2.99353 5.71619 1.38672H33.5589C35.4241 2.99353 36.4803 3.90342 38.3455 5.51023V29.4962C36.4803 31.103 35.4241 32.0129 33.5589 33.6197Z" fill="#212121"/>
<g opacity="0.2">
<path d="M32.88 2.5678L34.2283 3.72935L36.88 6.01374V29.0318L34.2283 31.3161L32.88 32.4777H6.16081L3.86868 30.5031L2.18328 29.0511V6.03309L3.86868 4.58116L6.16081 2.60653H32.88M33.4417 1.40625H5.59901C3.73384 3.01306 2.67767 3.92295 0.8125 5.52976V29.5158C2.67767 31.1226 3.73384 32.0324 5.59901 33.6392H33.4417C35.3069 32.0324 36.3631 31.1226 38.2283 29.5158V5.52976C36.3631 3.92295 35.3069 3.01306 33.4417 1.40625Z" fill="black"/>
</g>
<path d="M33.0597 2.2387L34.5204 3.49705L37.2844 5.87821V29.1673L34.5204 31.5485L33.0597 32.8068H6.02598L3.91361 30.987L1.80124 29.1673V5.87821L3.91361 4.05847L6.02598 2.2387H33.0597ZM33.4417 1.40625H5.59901C3.73384 3.01306 2.67767 3.92295 0.8125 5.52976V29.5158C2.67767 31.1226 3.73384 32.0324 5.59901 33.6392H33.4417C35.3069 32.0324 36.3631 31.1226 38.2283 29.5158V5.52976C36.3631 3.92295 35.3069 3.01306 33.4417 1.40625Z" fill="#212121"/>
</g>
<g clip-path="url(#clip0_4493_15207)">
<path d="M27.69 17.2046V16.3924H26.8778V14.7679H27.69V13.1435H26.8778V12.3312H26.0655V11.519H24.4411V12.3312H22.8166V11.519H22.0044V9.89453H18.7554V11.519H17.9432V12.3312H16.3187V11.519H14.6943V12.3312H13.882V13.1435H13.0698V14.7679H13.882V16.3924H13.0698V17.2046H11.4453V20.4536H13.0698V21.2658H13.882V22.8903H13.0698V24.5148H13.882V25.327H14.6943V26.1392H16.3187V25.327H17.9432V26.1392H18.7554V27.7637H22.0044V26.1392H22.8166V25.327H24.4411V26.1392H26.0655V25.327H26.8778V24.5148H27.69V22.8903H26.8778V21.2658H27.69V20.4536H29.3145V17.2046H27.69ZM18.7554 17.2046V16.3924H22.0044V17.2046H22.8166V20.4536H22.0044V21.2658H18.7554V20.4536H17.9432V17.2046H18.7554Z" fill="#ECECEC"/>
</g>
<defs>
<filter id="filter0_d_4493_15207" x="0.453125" y="0.0742188" width="38.1562" height="38.3438" filterUnits="userSpaceOnUse" color-interpolation-filters="sRGB">
<feFlood flood-opacity="0" result="BackgroundImageFix"/>
<feColorMatrix in="SourceAlpha" type="matrix" values="0 0 0 0 0 0 0 0 0 0 0 0 0 0 0 0 0 0 127 0" result="hardAlpha"/>
<feOffset dy="-1"/>
<feComposite in2="hardAlpha" operator="out"/>
<feColorMatrix type="matrix" values="0 0 0 0 0.278431 0 0 0 0 0.278431 0 0 0 0 0.278431 0 0 0 1 0"/>
<feBlend mode="normal" in2="BackgroundImageFix" result="effect1_dropShadow_4493_15207"/>
<feBlend mode="normal" in="SourceGraphic" in2="effect1_dropShadow_4493_15207" result="shape"/>
</filter>
<clipPath id="clip0_4493_15207">
<rect width="19.4936" height="19.4936" fill="white" transform="translate(10.6328 9.08203)"/>
</clipPath>
</defs>
</svg>
