<svg width="20" height="19" viewBox="0 0 20 19" fill="none" xmlns="http://www.w3.org/2000/svg">
<path d="M16.3481 16.1797H16.3038C16.1317 16.1797 15.9922 16.3192 15.9922 16.4913C15.9922 16.6635 16.1317 16.803 16.3038 16.803H16.3481C16.5203 16.803 16.6598 16.6635 16.6598 16.4913C16.6598 16.3192 16.5203 16.1797 16.3481 16.1797Z" fill="#656565"/>
<path d="M17.0182 14.3164H16.9757C16.8036 14.3164 16.6641 14.4559 16.6641 14.6281C16.6641 14.8002 16.8036 14.9397 16.9757 14.9397H17.0182C17.1903 14.9397 17.3298 14.8002 17.3298 14.6281C17.3298 14.4559 17.1903 14.3164 17.0182 14.3164Z" fill="#656565"/>
<path d="M3.69005 8.08984H3.6476C3.47547 8.08984 3.33594 8.22938 3.33594 8.4015C3.33594 8.57363 3.47547 8.71317 3.6476 8.71317H3.69005C3.86217 8.71317 4.00171 8.57363 4.00171 8.4015C4.00171 8.22938 3.86217 8.08984 3.69005 8.08984Z" fill="#8D8D8D"/>
<path d="M19.3326 6.22656H18.665H17.9992H17.9549C17.6117 6.22656 17.3335 6.50481 17.3335 6.84804V7.47136V8.09283V8.71615V9.33763V9.96095V10.5806V11.2039V11.8272V12.4487V12.7391C17.3335 12.923 17.1844 13.072 17.0006 13.072C16.8167 13.072 16.6677 13.2211 16.6677 13.4049V13.6935V13.9821C16.6677 14.1659 16.8167 14.315 17.0006 14.315H17.0218C17.1939 14.315 17.3335 14.4545 17.3335 14.6266C17.3335 14.7987 17.1939 14.9383 17.0218 14.9383H16.9794C16.8072 14.9383 16.6677 14.7987 16.6677 14.6266C16.6677 14.4545 16.5282 14.315 16.356 14.315H16.3117C16.1396 14.315 16.0001 14.4545 16.0001 14.6266C16.0001 14.7987 15.8605 14.9383 15.6884 14.9383H15.645C15.4734 14.9383 15.3343 15.0774 15.3343 15.249C15.3343 15.4206 15.1952 15.5598 15.0235 15.5598H15.0014C14.8176 15.5598 14.6685 15.7088 14.6685 15.8926V16.1831C14.6685 16.5263 14.3903 16.8045 14.047 16.8045H14.0009H13.6468C13.4747 16.8045 13.3351 16.9441 13.3351 17.1162C13.3351 17.2883 13.1956 17.4279 13.0235 17.4279H12.9782C12.8066 17.4279 12.6675 17.567 12.6675 17.7386C12.6675 17.9102 12.5284 18.0493 12.3568 18.0493H12.0017H11.6467C11.4751 18.0493 11.3359 18.1885 11.3359 18.3601C11.3359 18.5317 11.4751 18.6708 11.6467 18.6708H12.0017H12.6675H13.3351H13.6902C13.8618 18.6708 14.0009 18.5317 14.0009 18.3601C14.0009 18.1885 14.14 18.0493 14.3116 18.0493H14.6685H15.0235C15.1952 18.0493 15.3343 17.9102 15.3343 17.7386C15.3343 17.567 15.4734 17.4279 15.645 17.4279H15.6672C15.851 17.4279 16.0001 17.2788 16.0001 17.095V16.8045V16.5169C16.0001 16.3325 16.1495 16.1831 16.3339 16.1831H16.357C16.5286 16.1831 16.6677 16.3222 16.6677 16.4938C16.6677 16.6654 16.8068 16.8045 16.9784 16.8045H17.0006C17.1844 16.8045 17.3335 16.6555 17.3335 16.4717V16.1831V15.8926C17.3335 15.7088 17.4825 15.5598 17.6664 15.5598H17.6885C17.8601 15.5598 17.9992 15.4206 17.9992 15.249C17.9992 15.0774 18.1384 14.9383 18.31 14.9383H18.3321C18.516 14.9383 18.665 14.7892 18.665 14.6054V14.315V14.0273C18.665 13.8429 18.8145 13.6935 18.9988 13.6935C19.1832 13.6935 19.3326 13.544 19.3326 13.3597V13.072V12.7825C19.3326 12.5981 19.4821 12.4487 19.6665 12.4487C19.8508 12.4487 20.0003 12.2992 20.0003 12.1149V11.8272V11.2039V10.5806V9.96095V9.33763V8.71615V8.09283V7.47136V6.84804C20.0003 6.50481 19.722 6.22656 19.3788 6.22656H19.3326Z" fill="#656565"/>
<path d="M12.6749 18.0312C12.6708 18.0312 12.6675 18.0346 12.6675 18.0387C12.6675 18.0427 12.6642 18.0461 12.6601 18.0461H11.6467C11.4751 18.0461 11.3359 18.1852 11.3359 18.3568C11.3359 18.5284 11.4751 18.6675 11.6467 18.6675H13.6902C13.8618 18.6675 14.0009 18.5284 14.0009 18.3568C14.0009 18.1852 14.14 18.0461 14.3116 18.0461H15.3269C15.331 18.0461 15.3343 18.0427 15.3343 18.0387C15.3343 18.0346 15.331 18.0312 15.3269 18.0312H12.6749Z" fill="#1D1D1B"/>
<path d="M16.3481 4.35938H16.3038C16.1317 4.35938 15.9922 4.49891 15.9922 4.67104C15.9922 4.84316 16.1317 4.9827 16.3038 4.9827H16.3481C16.5203 4.9827 16.6598 4.84316 16.6598 4.67104C16.6598 4.49891 16.5203 4.35938 16.3481 4.35938Z" fill="#757575"/>
<path d="M16.3246 6.22658C16.1395 6.22607 15.9898 6.07594 15.9898 5.89092V4.69228C15.9898 4.50843 15.8408 4.35939 15.6569 4.35939H15.6357C15.4636 4.35939 15.324 4.21985 15.324 4.04773C15.324 3.8756 15.1845 3.73607 15.0124 3.73607H14.9699C14.7978 3.73607 14.6583 3.59653 14.6583 3.4244C14.6583 3.25228 14.5187 3.11274 14.3466 3.11274H14.3014C14.1298 3.11274 13.9906 2.97362 13.9906 2.80201C13.9906 2.63039 13.8515 2.49127 13.6799 2.49127H13.6356C13.464 2.49127 13.3249 2.35215 13.3249 2.18053C13.3249 2.00892 13.1857 1.8698 13.0141 1.8698H12.9624C12.7908 1.8698 12.6517 1.73068 12.6517 1.55906C12.6517 1.38745 12.5126 1.24832 12.341 1.24832H11.6318C11.4597 1.24832 11.3202 1.10879 11.3202 0.936662C11.3202 0.764536 11.1806 0.625 11.0085 0.625H6.30561C6.13348 0.625 5.99395 0.764536 5.99395 0.936662C5.99395 1.10879 5.85441 1.24832 5.68229 1.24832H4.97315C4.80153 1.24832 4.66241 1.38745 4.66241 1.55906C4.66241 1.73068 4.52329 1.8698 4.35167 1.8698H4.3055C4.13389 1.8698 3.99476 2.00892 3.99476 2.18053C3.99476 2.35215 3.85564 2.49127 3.68403 2.49127H3.63973C3.46812 2.49127 3.32899 2.63039 3.32899 2.80201C3.32899 2.97362 3.18987 3.11274 3.01826 3.11274H2.97674C2.80461 3.11274 2.66508 3.25228 2.66508 3.4244C2.66508 3.59653 2.52554 3.73607 2.35341 3.73607H2.33219C2.14834 3.73607 1.99931 3.8851 1.99931 4.06895V4.65075C1.99931 4.83511 1.84985 4.98456 1.66549 4.98456C1.48114 4.98456 1.33168 5.13401 1.33168 5.31837V5.89555C1.33168 6.0799 1.18223 6.22936 0.997873 6.22936C0.813515 6.22936 0.664062 6.37881 0.664062 6.56317V12.1177C0.664062 12.302 0.813515 12.4515 0.997873 12.4515C1.18223 12.4515 1.33168 12.6009 1.33168 12.7853V13.3625C1.33168 13.5468 1.48114 13.6963 1.66549 13.6963C1.84985 13.6963 1.99931 13.8457 1.99931 14.0301V14.6082C1.99931 14.792 2.14834 14.9411 2.33219 14.9411H2.35434C2.52595 14.9411 2.66508 15.0802 2.66508 15.2518C2.66508 15.4234 2.8042 15.5626 2.97581 15.5626H3.01918C3.19131 15.5626 3.33085 15.7021 3.33085 15.8742C3.33085 16.0463 3.47038 16.1859 3.64251 16.1859H3.68588C3.85749 16.1859 3.99662 16.325 3.99662 16.4966C3.99662 16.6682 4.13574 16.8073 4.30735 16.8073H4.3526C4.52472 16.8073 4.66426 16.9469 4.66426 17.119C4.66426 17.2911 4.80379 17.4307 4.97592 17.4307H5.68506C5.85668 17.4307 5.9958 17.5698 5.9958 17.7414C5.9958 17.913 6.13492 18.0521 6.30654 18.0521H11.0168C11.1884 18.0521 11.3275 17.913 11.3275 17.7414C11.3275 17.5698 11.4667 17.4307 11.6383 17.4307H12.3456C12.5187 17.4307 12.6591 17.2903 12.6591 17.1172C12.6591 16.944 12.7995 16.8036 12.9726 16.8036H13.016C13.1876 16.8036 13.3267 16.6645 13.3267 16.4929C13.3267 16.3213 13.4658 16.1822 13.6375 16.1822H13.6808C13.853 16.1822 13.9925 16.0426 13.9925 15.8705C13.9925 15.6984 14.132 15.5589 14.3042 15.5589H14.3494C14.521 15.5589 14.6601 15.4197 14.6601 15.2481C14.6601 15.0765 14.7992 14.9374 14.9709 14.9374H15.0142C15.1863 14.9374 15.3259 14.7978 15.3259 14.6257C15.3259 14.4536 15.4654 14.3141 15.6375 14.3141H15.6588C15.8426 14.3141 15.9917 14.165 15.9917 13.9812V13.4049C15.9917 13.2206 16.1411 13.0711 16.3255 13.0711C16.5098 13.0711 16.6593 12.9217 16.6593 12.7373V6.56224C16.6593 6.37722 16.5096 6.22709 16.3246 6.22658ZM2.99704 6.84713C3.18037 6.84713 3.32899 6.69851 3.32899 6.51517V5.93707C3.32899 5.75322 3.47803 5.60419 3.66188 5.60419H3.68495C3.85606 5.60419 3.99476 5.46548 3.99476 5.29437C3.99476 5.12327 4.13347 4.98456 4.30458 4.98456H4.35167C4.52329 4.98456 4.66241 4.84544 4.66241 4.67382C4.66241 4.50221 4.80153 4.36309 4.97315 4.36309H5.01652C5.18864 4.36309 5.32818 4.22355 5.32818 4.05143C5.32818 3.8793 5.46771 3.73977 5.63984 3.73977H5.68229C5.85441 3.73977 5.99395 3.60023 5.99395 3.4281C5.99395 3.25598 6.13348 3.11644 6.30561 3.11644H11.014C11.1862 3.11644 11.3257 3.25598 11.3257 3.4281C11.3257 3.60023 11.4652 3.73977 11.6373 3.73977H11.6798C11.8519 3.73977 11.9915 3.8793 11.9915 4.05143C11.9915 4.22355 12.131 4.36309 12.3031 4.36309H12.3465C12.5181 4.36309 12.6572 4.50221 12.6572 4.67382C12.6572 4.84544 12.7964 4.98456 12.968 4.98456H13.0132C13.1853 4.98456 13.3249 5.1241 13.3249 5.29622C13.3249 5.46835 13.4644 5.60788 13.6365 5.60788H13.6578C13.8416 5.60788 13.9906 5.75692 13.9906 5.94077V6.51702C13.9906 6.70138 14.1401 6.85083 14.3245 6.85083C14.5088 6.85083 14.6583 7.00028 14.6583 7.18464V11.4944C14.6583 11.6787 14.5088 11.8282 14.3245 11.8282C14.1401 11.8282 13.9906 11.9776 13.9906 12.162V12.7401C13.9906 12.9239 13.8416 13.073 13.6578 13.073H13.6356C13.464 13.073 13.3249 13.2121 13.3249 13.3837C13.3249 13.5553 13.1858 13.6944 13.0141 13.6944H12.9624C12.7908 13.6944 12.6517 13.8336 12.6517 14.0052C12.6517 14.1768 12.5126 14.3159 12.341 14.3159H12.2976C12.1255 14.3159 11.9859 14.4554 11.9859 14.6276C11.9859 14.7997 11.8464 14.9392 11.6743 14.9392H11.6309C11.4593 14.9392 11.3202 15.0783 11.3202 15.25C11.3202 15.4216 11.181 15.5607 11.0094 15.5607H6.30468C6.13307 15.5607 5.99395 15.4216 5.99395 15.25C5.99395 15.0783 5.85483 14.9392 5.68321 14.9392H5.63984C5.46771 14.9392 5.32818 14.7997 5.32818 14.6276C5.32818 14.4554 5.18864 14.3159 5.01652 14.3159H4.97315C4.80153 14.3159 4.66241 14.1768 4.66241 14.0052C4.66241 13.8336 4.52329 13.6944 4.35167 13.6944H4.3055C4.13389 13.6944 3.99476 13.5553 3.99476 13.3837C3.99476 13.2121 3.85564 13.073 3.68403 13.073H3.66188C3.47803 13.073 3.32899 12.9239 3.32899 12.7401V12.1601C3.32899 11.9768 3.18037 11.8282 2.99704 11.8282C2.8137 11.8282 2.66508 11.6795 2.66508 11.4962V7.17909C2.66508 6.99575 2.8137 6.84713 2.99704 6.84713Z" fill="#656565"/>
<path d="M4.66764 5.89015C4.66764 6.07451 4.51819 6.22397 4.33382 6.22397C4.14946 6.22397 4 6.37342 4 6.55779V6.84544V7.46876V8.09024V8.71356V9.33503V9.95835V10.578V10.8675C4 11.0518 4.14946 11.2013 4.33382 11.2013C4.51819 11.2013 4.66764 11.3508 4.66764 11.5351V11.8246V12.1132C4.66764 12.2971 4.81668 12.4461 5.00053 12.4461H5.02175C5.19388 12.4461 5.33341 12.5856 5.33341 12.7578C5.33341 12.9299 5.47295 13.0694 5.64507 13.0694H5.68845C5.86006 13.0694 5.99918 13.2085 5.99918 13.3802C5.99918 13.5518 6.13831 13.6909 6.30992 13.6909H6.66495H7.02184C7.19345 13.6909 7.33258 13.83 7.33258 14.0016C7.33258 14.1732 7.4717 14.3124 7.64331 14.3124H8.0002H8.66414H9.33176H9.99753H10.3544C10.526 14.3124 10.6652 14.1732 10.6652 14.0016C10.6652 13.83 10.8043 13.6909 10.9759 13.6909H11.3309H11.686C11.8576 13.6909 11.9967 13.5518 11.9967 13.3802C11.9967 13.2085 12.1358 13.0694 12.3074 13.0694H12.3508C12.5229 13.0694 12.6625 12.9299 12.6625 12.7578C12.6625 12.5856 12.802 12.4461 12.9741 12.4461H12.9963C13.1807 12.4461 13.3301 12.2966 13.3301 12.1123V11.8246V11.5342C13.3301 11.3503 13.4791 11.2013 13.663 11.2013C13.8468 11.2013 13.9959 11.0523 13.9959 10.8684V10.578V9.95835V9.33503V8.71356V8.09024V7.80165C13.9959 7.6178 13.8468 7.46876 13.663 7.46876C13.4791 7.46876 13.3301 7.31972 13.3301 7.13588V6.84544V6.22397V5.93631C13.3301 5.75195 13.1807 5.60249 12.9963 5.60249H12.9741C12.802 5.60249 12.6625 5.46296 12.6625 5.29083C12.6625 5.11871 12.5229 4.97917 12.3508 4.97917H12.3075C12.1358 4.97917 11.9967 4.84005 11.9967 4.66843C11.9967 4.49682 11.8576 4.3577 11.686 4.3577H11.3309H10.9768C10.8047 4.3577 10.6652 4.21816 10.6652 4.04604C10.6652 3.87391 10.5256 3.73438 10.3535 3.73438H9.99753H9.33176H8.66414H8.0002H7.33258H6.97662C6.80449 3.73438 6.66495 3.87391 6.66495 4.04604C6.66495 4.21816 6.52542 4.3577 6.35329 4.3577H5.99918H5.64415C5.47254 4.3577 5.33341 4.49682 5.33341 4.66843C5.33341 4.84005 5.19429 4.97917 5.02268 4.97917H5.00053C4.81668 4.97917 4.66764 5.12821 4.66764 5.31205V5.60249V5.89015Z" fill="#656565"/>
<path d="M18.9952 4.35602C18.8108 4.35602 18.6614 4.20657 18.6614 4.02221V3.7327V3.44226C18.6614 3.25841 18.5123 3.10938 18.3285 3.10938H18.3073C18.1351 3.10938 17.9956 3.24891 17.9956 3.42104C17.9956 3.59316 17.8561 3.7327 17.6839 3.7327H17.3298H17.2874C16.9431 3.7327 16.6641 4.01177 16.6641 4.35602V4.97749V5.26793C16.6641 5.45178 16.8131 5.60082 16.9969 5.60082H17.0182C17.1903 5.60082 17.3298 5.46128 17.3298 5.28915C17.3298 5.11703 17.4694 4.97749 17.6415 4.97749H17.9956H18.038C18.3823 4.97749 18.6614 5.25656 18.6614 5.60082V5.88848C18.6614 6.07284 18.8108 6.22229 18.9952 6.22229C19.1795 6.22229 19.329 6.07284 19.329 5.88848V5.60082V4.97749V4.68983C19.329 4.50547 19.1795 4.35602 18.9952 4.35602Z" fill="#656565"/>
<path d="M17.6442 2.48959C17.4726 2.48959 17.3335 2.35047 17.3335 2.17886C17.3335 2.00724 17.1943 1.86812 17.0227 1.86812H16.6677H16.3108C16.1392 1.86812 16.0001 1.729 16.0001 1.55738C16.0001 1.38577 15.861 1.24665 15.6893 1.24665H15.6459C15.4738 1.24665 15.3343 1.10711 15.3343 0.934984C15.3343 0.762858 15.1947 0.623322 15.0226 0.623322H14.6685H14.3126C14.1404 0.623322 14.0009 0.483786 14.0009 0.311661C14.0009 0.139535 13.8614 0 13.6892 0H13.3351H12.6675H12.0017H11.6476C11.4755 0 11.3359 0.139535 11.3359 0.311661C11.3359 0.483786 11.4755 0.623322 11.6476 0.623322H12.0017H12.3558C12.528 0.623322 12.6675 0.762858 12.6675 0.934984C12.6675 1.10711 12.807 1.24665 12.9792 1.24665H13.0244C13.196 1.24665 13.3351 1.38577 13.3351 1.55738C13.3351 1.729 13.4742 1.86812 13.6459 1.86812H13.6902C13.8618 1.86812 14.0009 2.00724 14.0009 2.17886C14.0009 2.35047 14.14 2.48959 14.3116 2.48959H14.3578C14.5294 2.48959 14.6685 2.62871 14.6685 2.80033C14.6685 2.97194 14.8076 3.11107 14.9792 3.11107H15.3343H16.0001H16.6677H17.3335H17.6885C17.8601 3.11107 17.9992 2.97194 17.9992 2.80033C17.9992 2.62871 17.8601 2.48959 17.6885 2.48959H17.6442Z" fill="#656565"/>
<path d="M18.9952 4.35602C18.8108 4.35602 18.6614 4.20657 18.6614 4.02221V3.7327V3.44226C18.6614 3.25841 18.5123 3.10938 18.3285 3.10938H18.3073C18.1351 3.10938 17.9956 3.24891 17.9956 3.42104C17.9956 3.59316 17.8561 3.7327 17.6839 3.7327H17.3298H17.2874C16.9431 3.7327 16.6641 4.01177 16.6641 4.35602V4.97749V5.26793C16.6641 5.45178 16.8131 5.60082 16.9969 5.60082H17.0182C17.1903 5.60082 17.3298 5.46128 17.3298 5.28915C17.3298 5.11703 17.4694 4.97749 17.6415 4.97749H17.9956H18.038C18.3823 4.97749 18.6614 5.25656 18.6614 5.60082V5.88848C18.6614 6.07284 18.8108 6.22229 18.9952 6.22229C19.1795 6.22229 19.329 6.07284 19.329 5.88848V5.60082V4.97749V4.68983C19.329 4.50547 19.1795 4.35602 18.9952 4.35602Z" fill="#656565"/>
<path d="M18.658 4.35602V3.7327V3.44226C18.658 3.25841 18.5089 3.10938 18.3251 3.10938C18.1412 3.10938 17.9922 3.25841 17.9922 3.44226V3.7327C17.9922 4.07695 18.2713 4.35602 18.6155 4.35602H18.658V4.97749V5.60082V5.88848C18.658 6.07284 18.8074 6.22229 18.9918 6.22229C19.1761 6.22229 19.3256 6.07284 19.3256 5.88848V5.60082V4.97749C19.3256 4.63426 19.0473 4.35602 18.7041 4.35602H18.658Z" fill="#1D1D1B"/>
<path d="M15.6823 1.24609H15.6398C15.4677 1.24609 15.3281 1.38563 15.3281 1.55775C15.3281 1.72988 15.4677 1.86942 15.6398 1.86942H15.6823C15.8544 1.86942 15.9939 1.72988 15.9939 1.55775C15.9939 1.38563 15.8544 1.24609 15.6823 1.24609Z" fill="#1D1D1B"/>
<path d="M15.9922 2.17402C15.9922 2.34563 16.1313 2.48475 16.3029 2.48475H16.6598H17.0148C17.1865 2.48475 17.3256 2.34563 17.3256 2.17402C17.3256 2.0024 17.1865 1.86328 17.0148 1.86328H16.6598H16.3029C16.1313 1.86328 15.9922 2.0024 15.9922 2.17402Z" fill="#1D1D1B"/>
<path d="M14.6598 1.24832H15.0139C15.186 1.24832 15.3256 1.10879 15.3256 0.936662C15.3256 0.764536 15.186 0.625 15.0139 0.625H14.6598H14.3038C14.1317 0.625 13.9922 0.764536 13.9922 0.936662C13.9922 1.10879 14.1317 1.24832 14.3038 1.24832H14.6598Z" fill="#1D1D1B"/>
<path d="M17.6841 2.48828H17.6398C17.4677 2.48828 17.3281 2.62782 17.3281 2.79994C17.3281 2.97207 17.4677 3.1116 17.6398 3.1116H17.6841C17.8562 3.1116 17.9957 2.97207 17.9957 2.79994C17.9957 2.62782 17.8562 2.48828 17.6841 2.48828Z" fill="#1D1D1B"/>
<path d="M12.0017 0.623322H12.6675H13.3351H13.6892C13.8614 0.623322 14.0009 0.483786 14.0009 0.311661C14.0009 0.139535 13.8614 0 13.6892 0H13.3351H12.6675H12.0017H11.6476C11.4755 0 11.3359 0.139535 11.3359 0.311661C11.3359 0.483786 11.4755 0.623322 11.6476 0.623322H12.0017Z" fill="#1D1D1B"/>
<path d="M16.6598 14.6281C16.6598 14.4559 16.5203 14.3164 16.3481 14.3164H16.3038C16.1317 14.3164 15.9922 14.4559 15.9922 14.6281C15.9922 14.8002 16.1317 14.9397 16.3038 14.9397H16.3481C16.5203 14.9397 16.6598 14.8002 16.6598 14.6281Z" fill="#1D1D1B"/>
<path d="M19.3239 6.22656H18.6562H19.3239V6.84804V7.47136V8.09283V8.71615V9.33763V9.96095V10.5806V11.2039V11.8272V12.1149C19.3239 12.2992 19.4733 12.4487 19.6577 12.4487C19.8421 12.4487 19.9915 12.2992 19.9915 12.1149V11.8272V11.2039V10.5806V9.96095V9.33763V8.71615V8.09283V7.47136V6.84804C19.9915 6.50481 19.7133 6.22656 19.37 6.22656H19.3239Z" fill="#1D1D1B"/>
<path d="M16.9969 15.5547C16.8131 15.5547 16.6641 15.7037 16.6641 15.8876V16.178V16.4666C16.6641 16.6504 16.8131 16.7995 16.9969 16.7995C17.1808 16.7995 17.3298 16.6504 17.3298 16.4666V16.178V15.8876C17.3298 15.7037 17.1808 15.5547 16.9969 15.5547Z" fill="#1D1D1B"/>
<path d="M17.6841 14.9375H17.6398C17.4677 14.9375 17.3281 15.077 17.3281 15.2492C17.3281 15.4213 17.4677 15.5608 17.6398 15.5608H17.6841C17.8562 15.5608 17.9957 15.4213 17.9957 15.2492C17.9957 15.077 17.8562 14.9375 17.6841 14.9375Z" fill="#1D1D1B"/>
<path d="M18.9918 12.4453C18.8074 12.4453 18.658 12.5948 18.658 12.7791V13.0686V13.3572C18.658 13.5411 18.5089 13.6901 18.3251 13.6901C18.1412 13.6901 17.9922 13.8391 17.9922 14.023V14.3116V14.602C17.9922 14.7859 18.1412 14.9349 18.3251 14.9349C18.5089 14.9349 18.658 14.7859 18.658 14.602V14.3116V14.0239C18.658 13.8396 18.8074 13.6901 18.9918 13.6901C19.1761 13.6901 19.3256 13.5407 19.3256 13.3563V13.0686V12.7791C19.3256 12.5948 19.1761 12.4453 18.9918 12.4453Z" fill="#1D1D1B"/>
<path d="M13.9939 18.3576C13.9939 18.186 13.8548 18.0469 13.6832 18.0469H13.6389C13.4672 18.0469 13.3281 18.186 13.3281 18.3576C13.3281 18.5292 13.4672 18.6683 13.6389 18.6683H13.6832C13.8548 18.6683 13.9939 18.5292 13.9939 18.3576Z" fill="#1D1D1B"/>
<path d="M15.9939 16.8012V16.5126C15.9939 16.3287 15.8449 16.1797 15.661 16.1797C15.4772 16.1797 15.3281 16.3287 15.3281 16.5126V16.8012V17.0916C15.3281 17.2754 15.4772 17.4245 15.661 17.4245C15.8449 17.4245 15.9939 17.2754 15.9939 17.0916V16.8012Z" fill="#1D1D1B"/>
<path d="M15.02 17.4258H14.9757C14.8036 17.4258 14.6641 17.5653 14.6641 17.7374C14.6641 17.9096 14.8036 18.0491 14.9757 18.0491H15.02C15.1921 18.0491 15.3317 17.9096 15.3317 17.7374C15.3317 17.5653 15.1921 17.4258 15.02 17.4258Z" fill="#1D1D1B"/>
<path d="M11.6347 17.4258C11.463 17.4258 11.3239 17.5649 11.3239 17.7365C11.3239 17.9081 11.1848 18.0473 11.0132 18.0473H10.6582H9.99053H9.32476H8.65714H7.9932H7.32558H6.65796H6.30292C6.13131 18.0473 5.99219 18.1864 5.99219 18.358C5.99219 18.5296 6.13131 18.6687 6.30292 18.6687H6.65796H7.32558H7.9932H8.65714H9.32476H9.99053H10.6582H11.0132C11.1848 18.6687 11.3239 18.5296 11.3239 18.358C11.3239 18.1864 11.463 18.0473 11.6347 18.0473H11.9897H12.3447C12.5164 18.0473 12.6555 17.9081 12.6555 17.7365C12.6555 17.5649 12.5164 17.4258 12.3447 17.4258H11.9897H11.6347Z" fill="#1D1D1B"/>
<path d="M13.02 16.8008H12.9757C12.8036 16.8008 12.6641 16.9403 12.6641 17.1124C12.6641 17.2846 12.8036 17.4241 12.9757 17.4241H13.02C13.1921 17.4241 13.3317 17.2846 13.3317 17.1124C13.3317 16.9403 13.1921 16.8008 13.02 16.8008Z" fill="#1D1D1B"/>
<path d="M13.9939 15.8663C13.9939 16.0385 13.8544 16.178 13.6822 16.178H13.6389C13.4672 16.178 13.3281 16.3171 13.3281 16.4887C13.3281 16.6604 13.4672 16.7995 13.6389 16.7995H13.9939H14.04C14.3833 16.7995 14.6615 16.5212 14.6615 16.178V15.8885C14.6615 15.7041 14.5121 15.5547 14.3277 15.5547H14.3056C14.1334 15.5547 13.9939 15.6942 13.9939 15.8663Z" fill="#1D1D1B"/>
<path d="M15.02 14.9375H14.9757C14.8036 14.9375 14.6641 15.077 14.6641 15.2492C14.6641 15.4213 14.8036 15.5608 14.9757 15.5608H15.02C15.1921 15.5608 15.3317 15.4213 15.3317 15.2492C15.3317 15.077 15.1921 14.9375 15.02 14.9375Z" fill="#1D1D1B"/>
<path d="M15.6823 14.3164H15.6398C15.4677 14.3164 15.3281 14.4559 15.3281 14.6281C15.3281 14.8002 15.4677 14.9397 15.6398 14.9397H15.6823C15.8544 14.9397 15.9939 14.8002 15.9939 14.6281C15.9939 14.4559 15.8544 14.3164 15.6823 14.3164Z" fill="#1D1D1B"/>
<path d="M15.9922 13.6918V13.9794C15.9922 14.1638 16.1416 14.3133 16.326 14.3133C16.5104 14.3133 16.6598 14.1638 16.6598 13.9794V13.6918V13.4041C16.6598 13.2198 16.5104 13.0703 16.326 13.0703C16.1416 13.0703 15.9922 13.2198 15.9922 13.4041V13.6918Z" fill="#1D1D1B"/>
<path d="M16.9969 6.84375C16.8131 6.84375 16.6641 6.99279 16.6641 7.17664V7.46707V8.08854V8.71187V9.33334V9.95666V10.5763V11.1996V11.8229V12.4444V12.7348C16.6641 12.9187 16.8131 13.0677 16.9969 13.0677C17.1808 13.0677 17.3298 12.9187 17.3298 12.7348V12.4444V11.8229V11.1996V10.5763V9.95666V9.33334V8.71187V8.08854V7.46707V7.17664C17.3298 6.99279 17.1808 6.84375 16.9969 6.84375Z" fill="#1D1D1B"/>
<path d="M15.9922 5.60379V5.89146C15.9922 6.07581 16.1416 6.22527 16.326 6.22527C16.5104 6.22527 16.6598 6.07581 16.6598 5.89146V5.60379V5.31428C16.6598 5.12992 16.5104 4.98047 16.326 4.98047C16.1416 4.98047 15.9922 5.12992 15.9922 5.31428V5.60379Z" fill="#1D1D1B"/>
<path d="M15.6823 3.73438H15.6398C15.4677 3.73438 15.3281 3.87391 15.3281 4.04604C15.3281 4.21816 15.4677 4.3577 15.6398 4.3577H15.6823C15.8544 4.3577 15.9939 4.21816 15.9939 4.04604C15.9939 3.87391 15.8544 3.73438 15.6823 3.73438Z" fill="#1D1D1B"/>
<path d="M12.355 13.6914H12.3107C12.1391 13.6914 12 13.8305 12 14.0021C12 14.1738 12.1391 14.3129 12.3107 14.3129H12.355C12.5266 14.3129 12.6658 14.1738 12.6658 14.0021C12.6658 13.8305 12.5266 13.6914 12.355 13.6914Z" fill="#1D1D1B"/>
<path d="M13.3317 6.84451V7.13495C13.3317 7.31879 13.4807 7.46783 13.6646 7.46783C13.8484 7.46783 13.9975 7.61687 13.9975 7.80072V8.0893V8.71263V9.3341V9.95742V10.577V10.8675C13.9975 11.0513 13.8484 11.2004 13.6646 11.2004C13.4807 11.2004 13.3317 11.3494 13.3317 11.5333V11.8237V12.1114C13.3317 12.2957 13.1822 12.4452 12.9979 12.4452C12.8135 12.4452 12.6641 12.5946 12.6641 12.779V13.0685V13.3561C12.6641 13.5405 12.8135 13.69 12.9979 13.69H13.0209C13.1926 13.69 13.3317 13.5508 13.3317 13.3792C13.3317 13.2076 13.4708 13.0685 13.6424 13.0685H13.6646C13.8484 13.0685 13.9975 12.9194 13.9975 12.7356V12.4452V12.1575C13.9975 11.9731 14.1469 11.8237 14.3313 11.8237C14.5156 11.8237 14.6651 11.6742 14.6651 11.4899V11.2004V10.577V9.95742V9.3341V8.71263V8.0893V7.46783V7.17832C14.6651 6.99396 14.5156 6.84451 14.3313 6.84451C14.1469 6.84451 13.9975 6.69506 13.9975 6.5107V6.22304V5.93445C13.9975 5.7506 13.8484 5.60156 13.6646 5.60156C13.4807 5.60156 13.3317 5.7506 13.3317 5.93445V6.22304V6.84451Z" fill="#1D1D1B"/>
<path d="M13.02 4.98047H12.9757C12.8036 4.98047 12.6641 5.12 12.6641 5.29213C12.6641 5.46426 12.8036 5.60379 12.9757 5.60379H13.02C13.1921 5.60379 13.3317 5.46426 13.3317 5.29213C13.3317 5.12 13.1921 4.98047 13.02 4.98047Z" fill="#1D1D1B"/>
<path d="M12.3541 4.35938H12.3117C12.1395 4.35938 12 4.49891 12 4.67104C12 4.84316 12.1395 4.9827 12.3117 4.9827H12.3541C12.5262 4.9827 12.6658 4.84316 12.6658 4.67104C12.6658 4.49891 12.5262 4.35938 12.3541 4.35938Z" fill="#1D1D1B"/>
<path d="M15.02 3.10938H14.9757C14.8036 3.10938 14.6641 3.24891 14.6641 3.42104C14.6641 3.59316 14.8036 3.7327 14.9757 3.7327H15.02C15.1921 3.7327 15.3317 3.59316 15.3317 3.42104C15.3317 3.24891 15.1921 3.10938 15.02 3.10938Z" fill="#1D1D1B"/>
<path d="M14.3481 2.48828H14.3038C14.1317 2.48828 13.9922 2.62782 13.9922 2.79994C13.9922 2.97207 14.1317 3.1116 14.3038 3.1116H14.3481C14.5203 3.1116 14.6598 2.97207 14.6598 2.79994C14.6598 2.62782 14.5203 2.48828 14.3481 2.48828Z" fill="#1D1D1B"/>
<path d="M13.6832 1.86328H13.6389C13.4672 1.86328 13.3281 2.0024 13.3281 2.17402C13.3281 2.34563 13.4672 2.48475 13.6389 2.48475H13.6832C13.8548 2.48475 13.9939 2.34563 13.9939 2.17402C13.9939 2.0024 13.8548 1.86328 13.6832 1.86328Z" fill="#1D1D1B"/>
<path d="M13.02 1.24609H12.9757C12.8036 1.24609 12.6641 1.38563 12.6641 1.55775C12.6641 1.72988 12.8036 1.86942 12.9757 1.86942H13.02C13.1921 1.86942 13.3317 1.72988 13.3317 1.55775C13.3317 1.38563 13.1921 1.24609 13.02 1.24609Z" fill="#1D1D1B"/>
<path d="M11.3359 0.936662C11.3359 1.10879 11.4755 1.24832 11.6476 1.24832H12.0017H12.3558C12.528 1.24832 12.6675 1.10879 12.6675 0.936662C12.6675 0.764536 12.528 0.625 12.3558 0.625H12.0017H11.6476C11.4755 0.625 11.3359 0.764536 11.3359 0.936662Z" fill="#1D1D1B"/>
<path d="M5.32983 17.4258H4.9748C4.80318 17.4258 4.66406 17.5649 4.66406 17.7365C4.66406 17.9081 4.80318 18.0473 4.9748 18.0473H5.32983H5.68486C5.85648 18.0473 5.9956 17.9081 5.9956 17.7365C5.9956 17.5649 5.85648 17.4258 5.68486 17.4258H5.32983Z" fill="#1D1D1B"/>
<path d="M4.35598 16.8008H4.31166C4.13954 16.8008 4 16.9403 4 17.1124C4 17.2846 4.13954 17.4241 4.31166 17.4241H4.35598C4.52811 17.4241 4.66764 17.2846 4.66764 17.1124C4.66764 16.9403 4.52811 16.8008 4.35598 16.8008Z" fill="#1D1D1B"/>
<path d="M3.64149 16.178C3.46937 16.178 3.32983 16.0385 3.32983 15.8663C3.32983 15.6942 3.1903 15.5547 3.01817 15.5547H2.99695C2.8131 15.5547 2.66406 15.7037 2.66406 15.8876V16.178C2.66406 16.5212 2.9423 16.7995 3.28553 16.7995H3.32983H3.68487C3.85648 16.7995 3.9956 16.6604 3.9956 16.4887C3.9956 16.3171 3.85648 16.178 3.68487 16.178H3.64149Z" fill="#1D1D1B"/>
<path d="M2.35411 14.9375H2.31166C2.13954 14.9375 2 15.077 2 15.2492C2 15.4213 2.13954 15.5608 2.31166 15.5608H2.35411C2.52623 15.5608 2.66577 15.4213 2.66577 15.2492C2.66577 15.077 2.52623 14.9375 2.35411 14.9375Z" fill="#1D1D1B"/>
<path d="M6.65967 15.5612H7.32729H7.99491H8.65885H9.32647H9.99224H10.6599H11.0149C11.1865 15.5612 11.3256 15.4221 11.3256 15.2505C11.3256 15.0789 11.4648 14.9397 11.6364 14.9397H11.6798C11.8519 14.9397 11.9914 14.8002 11.9914 14.6281C11.9914 14.4559 11.8519 14.3164 11.6798 14.3164H11.3256H10.9715C10.7994 14.3164 10.6599 14.4559 10.6599 14.6281C10.6599 14.8002 10.5203 14.9397 10.3482 14.9397H9.99224H9.32647H8.65885H7.99491H7.32729H6.97133C6.7992 14.9397 6.65967 14.8002 6.65967 14.6281C6.65967 14.4559 6.52013 14.3164 6.348 14.3164H5.9939H5.63979C5.46766 14.3164 5.32812 14.4559 5.32812 14.6281C5.32812 14.8002 5.46766 14.9397 5.63979 14.9397H5.68316C5.85477 14.9397 5.9939 15.0789 5.9939 15.2505C5.9939 15.4221 6.13302 15.5612 6.30463 15.5612H6.65967Z" fill="#1D1D1B"/>
<path d="M5.01909 13.6914H4.9748C4.80318 13.6914 4.66406 13.8305 4.66406 14.0021C4.66406 14.1738 4.80318 14.3129 4.9748 14.3129H5.01909C5.19071 14.3129 5.32983 14.1738 5.32983 14.0021C5.32983 13.8305 5.19071 13.6914 5.01909 13.6914Z" fill="#1D1D1B"/>
<path d="M1.99575 14.0252C1.99575 13.8409 1.84629 13.6914 1.66194 13.6914C1.47758 13.6914 1.32812 13.8409 1.32812 14.0252V14.3129V14.6024C1.32812 14.7868 1.47758 14.9362 1.66194 14.9362C1.84629 14.9362 1.99575 14.7868 1.99575 14.6024V14.3129V14.0252Z" fill="#1D1D1B"/>
<path d="M1.33168 12.7791C1.33168 12.5948 1.18223 12.4453 0.997873 12.4453C0.813515 12.4453 0.664062 12.5948 0.664062 12.7791V13.0686V13.3563C0.664062 13.5407 0.813515 13.6901 0.997873 13.6901C1.18223 13.6901 1.33168 13.5407 1.33168 13.3563V13.0686V12.7791Z" fill="#1D1D1B"/>
<path d="M0.665793 11.1996V10.5763V9.95666V9.33334V8.71187V8.08854V7.46707V7.17665C0.665793 6.99279 0.51675 6.84375 0.332896 6.84375C0.149043 6.84375 0 6.99279 0 7.17665V7.46707V8.08854V8.71187V9.33334V9.95666V10.5763V11.1996V11.49C0 11.6739 0.149043 11.8229 0.332896 11.8229C0.51675 11.8229 0.665793 11.6739 0.665793 11.49V11.1996Z" fill="#1D1D1B"/>
<path d="M4.66325 12.7812C4.66325 12.5969 4.51379 12.4474 4.32943 12.4474C4.14506 12.4474 3.9956 12.2979 3.9956 12.1136V11.8259V11.5355C3.9956 11.3516 3.84657 11.2026 3.66272 11.2026C3.47887 11.2026 3.32983 11.0536 3.32983 10.8697V10.5793V9.95965V9.33633V8.71486V8.09153V7.80295C3.32983 7.6191 3.47887 7.47006 3.66272 7.47006C3.84657 7.47006 3.9956 7.32102 3.9956 7.13718V6.84674V6.55909C3.9956 6.37472 4.14506 6.22527 4.32943 6.22527C4.51379 6.22527 4.66325 6.07581 4.66325 5.89144V5.60379V5.31429C4.66325 5.12993 4.51379 4.98047 4.32942 4.98047H4.30727C4.13514 4.98047 3.9956 5.12 3.9956 5.29213C3.9956 5.46426 3.85607 5.60379 3.68394 5.60379H3.66272C3.47887 5.60379 3.32983 5.75283 3.32983 5.93668V6.22527V6.51385C3.32983 6.6977 3.1808 6.84674 2.99695 6.84674C2.8131 6.84674 2.66406 6.99578 2.66406 7.17962V7.47006V8.09153V8.71486V9.33633V9.95965V10.5793V11.2026V11.493C2.66406 11.6769 2.8131 11.8259 2.99695 11.8259C3.1808 11.8259 3.32983 11.975 3.32983 12.1588V12.4474V12.7378C3.32983 12.9217 3.47887 13.0707 3.66272 13.0707H3.68487C3.85648 13.0707 3.9956 13.2098 3.9956 13.3815C3.9956 13.5531 4.13472 13.6922 4.30634 13.6922H4.32943C4.51379 13.6922 4.66325 13.5427 4.66325 13.3584V13.0707V12.7812Z" fill="#1D1D1B"/>
<path d="M1.33168 5.60379V5.31428C1.33168 5.12992 1.18223 4.98047 0.997873 4.98047C0.813515 4.98047 0.664062 5.12992 0.664062 5.31428V5.60379V5.89146C0.664062 6.07581 0.813515 6.22527 0.997873 6.22527C1.18223 6.22527 1.33168 6.07581 1.33168 5.89146V5.60379Z" fill="#1D1D1B"/>
<path d="M5.01817 4.35938H4.97572C4.8036 4.35938 4.66406 4.49891 4.66406 4.67104C4.66406 4.84316 4.8036 4.9827 4.97572 4.9827H5.01817C5.1903 4.9827 5.32983 4.84316 5.32983 4.67104C5.32983 4.49891 5.1903 4.35938 5.01817 4.35938Z" fill="#1D1D1B"/>
<path d="M1.99575 4.3577V4.06819C1.99575 3.88383 1.84629 3.73438 1.66194 3.73438C1.47758 3.73438 1.32812 3.88383 1.32812 4.06819V4.3577V4.64536C1.32812 4.82972 1.47758 4.97917 1.66194 4.97917C1.84629 4.97917 1.99575 4.82972 1.99575 4.64536V4.3577Z" fill="#1D1D1B"/>
<path d="M6.348 4.35602C6.52013 4.35602 6.65967 4.21648 6.65967 4.04436C6.65967 3.87223 6.7992 3.7327 6.97133 3.7327H7.32729H7.99491H8.65885H9.32647H9.99224H10.3482C10.5203 3.7327 10.6599 3.87223 10.6599 4.04436C10.6599 4.21648 10.7994 4.35602 10.9715 4.35602H11.3256H11.6798C11.8519 4.35602 11.9914 4.21648 11.9914 4.04436C11.9914 3.87223 11.8519 3.7327 11.6798 3.7327H11.6373C11.4652 3.7327 11.3256 3.59316 11.3256 3.42104C11.3256 3.24891 11.1861 3.10938 11.014 3.10938H10.6599H9.99224H9.32647H8.65885H7.99491H7.32729H6.65967H6.30556C6.13343 3.10938 5.9939 3.24891 5.9939 3.42104C5.9939 3.59316 5.85436 3.7327 5.68223 3.7327H5.63979C5.46766 3.7327 5.32812 3.87223 5.32812 4.04436C5.32812 4.21648 5.46766 4.35602 5.63979 4.35602H5.9939H6.348Z" fill="#1D1D1B"/>
<path d="M2.35411 3.10938H2.31166C2.13954 3.10938 2 3.24891 2 3.42104C2 3.59316 2.13954 3.7327 2.31166 3.7327H2.35411C2.52623 3.7327 2.66577 3.59316 2.66577 3.42104C2.66577 3.24891 2.52623 3.10938 2.35411 3.10938Z" fill="#1D1D1B"/>
<path d="M3.02002 2.48828H2.97572C2.8036 2.48828 2.66406 2.62782 2.66406 2.79994C2.66406 2.97207 2.8036 3.1116 2.97572 3.1116H3.02002C3.19215 3.1116 3.33168 2.97207 3.33168 2.79994C3.33168 2.62782 3.19215 2.48828 3.02002 2.48828Z" fill="#1D1D1B"/>
<path d="M3.69097 1.86328H3.64667C3.47506 1.86328 3.33594 2.0024 3.33594 2.17402C3.33594 2.34563 3.47506 2.48475 3.64667 2.48475H3.69097C3.86259 2.48475 4.00171 2.34563 4.00171 2.17402C4.00171 2.0024 3.86259 1.86328 3.69097 1.86328Z" fill="#1D1D1B"/>
<path d="M4.35598 1.24609H4.31166C4.13954 1.24609 4 1.38563 4 1.55775C4 1.72988 4.13954 1.86942 4.31166 1.86942H4.35598C4.52811 1.86942 4.66764 1.72988 4.66764 1.55775C4.66764 1.38563 4.52811 1.24609 4.35598 1.24609Z" fill="#1D1D1B"/>
<path d="M5.68394 1.24832C5.85607 1.24832 5.9956 1.10879 5.9956 0.936662C5.9956 0.764536 5.85607 0.625 5.68394 0.625H5.32983H4.97572C4.8036 0.625 4.66406 0.764536 4.66406 0.936662C4.66406 1.10879 4.8036 1.24832 4.97572 1.24832H5.32983H5.68394Z" fill="#1D1D1B"/>
<path d="M7.32558 0.623322H7.9932H8.65714H9.32476H9.99053H10.6582H11.0123C11.1844 0.623322 11.3239 0.483786 11.3239 0.311661C11.3239 0.139535 11.1844 0 11.0123 0H10.6582H9.99053H9.32476H8.65714H7.9932H7.32558H6.65796H6.30385C6.13172 0 5.99219 0.139535 5.99219 0.311661C5.99219 0.483786 6.13172 0.623322 6.30385 0.623322H6.65796H7.32558Z" fill="#1D1D1B"/>
<path d="M17.9956 4.98047H17.6415C17.4694 4.98047 17.3298 5.12 17.3298 5.29213C17.3298 5.46426 17.1903 5.60379 17.0182 5.60379H16.9969C16.8131 5.60379 16.6641 5.75283 16.6641 5.93668V6.22527V6.51385C16.6641 6.6977 16.8131 6.84674 16.9969 6.84674H17.0191C17.1907 6.84674 17.3298 6.70762 17.3298 6.536C17.3298 6.36439 17.469 6.22527 17.6406 6.22527H17.9956H18.0399C18.3831 6.22527 18.6614 5.94702 18.6614 5.60379C18.6614 5.25954 18.3823 4.98047 18.038 4.98047H17.9956Z" fill="#757575"/>
<path d="M17.3273 3.10938H16.6615H15.9939H15.6398C15.4677 3.10938 15.3281 3.24891 15.3281 3.42104C15.3281 3.59316 15.4677 3.7327 15.6398 3.7327H15.6823C15.8544 3.7327 15.9939 3.87223 15.9939 4.04436C15.9939 4.21648 16.1335 4.35602 16.3056 4.35602H16.3499C16.522 4.35602 16.6615 4.21648 16.6615 4.04436C16.6615 3.87223 16.8011 3.7327 16.9732 3.7327H17.3273H17.6814C17.8535 3.7327 17.9931 3.59316 17.9931 3.42104C17.9931 3.24891 17.8535 3.10938 17.6814 3.10938H17.3273Z" fill="#757575"/>
<path d="M9.32818 14.3116H8.66056H7.99662H7.63973C7.46812 14.3116 7.32899 14.1725 7.32899 14.0008C7.32899 13.8292 7.18987 13.6901 7.01826 13.6901H6.66137H6.30634C6.13472 13.6901 5.9956 13.551 5.9956 13.3794C5.9956 13.2078 5.85648 13.0686 5.68487 13.0686H5.64149C5.46937 13.0686 5.32983 12.9291 5.32983 12.757C5.32983 12.5848 5.1903 12.4453 5.01817 12.4453H4.99695C4.8131 12.4453 4.66406 12.5944 4.66406 12.7782V13.0686V13.3572C4.66406 13.5411 4.8131 13.6901 4.99695 13.6901H5.01909C5.19071 13.6901 5.32983 13.8292 5.32983 14.0008C5.32983 14.1725 5.46895 14.3116 5.64057 14.3116H5.9956H6.34971C6.52184 14.3116 6.66137 14.4511 6.66137 14.6232C6.66137 14.7954 6.80091 14.9349 6.97303 14.9349H7.32899H7.99662H8.66056H9.32818H9.99395H10.3499C10.522 14.9349 10.6616 14.7954 10.6616 14.6232C10.6616 14.4511 10.522 14.3116 10.3499 14.3116H9.99395H9.32818Z" fill="#757575"/>
<path d="M10.9748 13.6914C10.8032 13.6914 10.6641 13.8305 10.6641 14.0021C10.6641 14.1738 10.8032 14.3129 10.9748 14.3129H11.3298H11.6849C11.8565 14.3129 11.9956 14.1738 11.9956 14.0021C11.9956 13.8305 11.8565 13.6914 11.6849 13.6914H11.3298H10.9748Z" fill="#757575"/>
<path d="M12.3541 13.0703H12.3117C12.1395 13.0703 12 13.2098 12 13.382C12 13.5541 12.1395 13.6936 12.3117 13.6936H12.3541C12.5262 13.6936 12.6658 13.5541 12.6658 13.382C12.6658 13.2098 12.5262 13.0703 12.3541 13.0703Z" fill="#757575"/>
<path d="M4.66764 11.533C4.66764 11.3487 4.51819 11.1992 4.33382 11.1992C4.14946 11.1992 4 11.3487 4 11.533V11.8225V12.1102C4 12.2946 4.14946 12.444 4.33382 12.444C4.51819 12.444 4.66764 12.2946 4.66764 12.1102V11.8225V11.533Z" fill="#757575"/>
<path d="M4.00171 9.95964V9.33632V9.04773C4.00171 8.86388 3.85267 8.71484 3.66882 8.71484C3.48498 8.71484 3.33594 8.86388 3.33594 9.04773V9.33632V9.95964V10.5793V10.8697C3.33594 11.0535 3.48498 11.2026 3.66882 11.2026C3.85267 11.2026 4.00171 11.0535 4.00171 10.8697V10.5793V9.95964Z" fill="#757575"/>
<path d="M3.69005 7.46875H3.6476C3.47547 7.46875 3.33594 7.60829 3.33594 7.78041C3.33594 7.95254 3.47547 8.09207 3.6476 8.09207H3.69005C3.86217 8.09207 4.00171 7.95254 4.00171 7.78041C4.00171 7.60829 3.86217 7.46875 3.69005 7.46875Z" fill="#757575"/>
<path d="M16.3481 16.1797H16.3038C16.1317 16.1797 15.9922 16.3192 15.9922 16.4913C15.9922 16.6635 16.1317 16.803 16.3038 16.803H16.3481C16.5203 16.803 16.6598 16.6635 16.6598 16.4913C16.6598 16.3192 16.5203 16.1797 16.3481 16.1797Z" fill="#656565"/>
<path d="M17.0182 14.3164H16.9757C16.8036 14.3164 16.6641 14.4559 16.6641 14.6281C16.6641 14.8002 16.8036 14.9397 16.9757 14.9397H17.0182C17.1903 14.9397 17.3298 14.8002 17.3298 14.6281C17.3298 14.4559 17.1903 14.3164 17.0182 14.3164Z" fill="#656565"/>
<path d="M3.69005 8.08984H3.6476C3.47547 8.08984 3.33594 8.22938 3.33594 8.4015C3.33594 8.57363 3.47547 8.71317 3.6476 8.71317H3.69005C3.86217 8.71317 4.00171 8.57363 4.00171 8.4015C4.00171 8.22938 3.86217 8.08984 3.69005 8.08984Z" fill="#8D8D8D"/>
<path d="M19.3326 6.22656H18.665H17.9992H17.9549C17.6117 6.22656 17.3335 6.50481 17.3335 6.84804V7.47136V8.09283V8.71615V9.33763V9.96095V10.5806V11.2039V11.8272V12.4487V12.7391C17.3335 12.923 17.1844 13.072 17.0006 13.072C16.8167 13.072 16.6677 13.2211 16.6677 13.4049V13.6935V13.9821C16.6677 14.1659 16.8167 14.315 17.0006 14.315H17.0218C17.1939 14.315 17.3335 14.4545 17.3335 14.6266C17.3335 14.7987 17.1939 14.9383 17.0218 14.9383H16.9794C16.8072 14.9383 16.6677 14.7987 16.6677 14.6266C16.6677 14.4545 16.5282 14.315 16.356 14.315H16.3117C16.1396 14.315 16.0001 14.4545 16.0001 14.6266C16.0001 14.7987 15.8605 14.9383 15.6884 14.9383H15.645C15.4734 14.9383 15.3343 15.0774 15.3343 15.249C15.3343 15.4206 15.1952 15.5598 15.0235 15.5598H15.0014C14.8176 15.5598 14.6685 15.7088 14.6685 15.8926V16.1831C14.6685 16.5263 14.3903 16.8045 14.047 16.8045H14.0009H13.6468C13.4747 16.8045 13.3351 16.9441 13.3351 17.1162C13.3351 17.2883 13.1956 17.4279 13.0235 17.4279H12.9782C12.8066 17.4279 12.6675 17.567 12.6675 17.7386C12.6675 17.9102 12.5284 18.0493 12.3568 18.0493H12.0017H11.6467C11.4751 18.0493 11.3359 18.1885 11.3359 18.3601C11.3359 18.5317 11.4751 18.6708 11.6467 18.6708H12.0017H12.6675H13.3351H13.6902C13.8618 18.6708 14.0009 18.5317 14.0009 18.3601C14.0009 18.1885 14.14 18.0493 14.3116 18.0493H14.6685H15.0235C15.1952 18.0493 15.3343 17.9102 15.3343 17.7386C15.3343 17.567 15.4734 17.4279 15.645 17.4279H15.6672C15.851 17.4279 16.0001 17.2788 16.0001 17.095V16.8045V16.5169C16.0001 16.3325 16.1495 16.1831 16.3339 16.1831H16.357C16.5286 16.1831 16.6677 16.3222 16.6677 16.4938C16.6677 16.6654 16.8068 16.8045 16.9784 16.8045H17.0006C17.1844 16.8045 17.3335 16.6555 17.3335 16.4717V16.1831V15.8926C17.3335 15.7088 17.4825 15.5598 17.6664 15.5598H17.6885C17.8601 15.5598 17.9992 15.4206 17.9992 15.249C17.9992 15.0774 18.1384 14.9383 18.31 14.9383H18.3321C18.516 14.9383 18.665 14.7892 18.665 14.6054V14.315V14.0273C18.665 13.8429 18.8145 13.6935 18.9988 13.6935C19.1832 13.6935 19.3326 13.544 19.3326 13.3597V13.072V12.7825C19.3326 12.5981 19.4821 12.4487 19.6665 12.4487C19.8508 12.4487 20.0003 12.2992 20.0003 12.1149V11.8272V11.2039V10.5806V9.96095V9.33763V8.71615V8.09283V7.47136V6.84804C20.0003 6.50481 19.722 6.22656 19.3788 6.22656H19.3326Z" fill="#656565"/>
<path d="M12.6749 18.0312C12.6708 18.0312 12.6675 18.0346 12.6675 18.0387C12.6675 18.0427 12.6642 18.0461 12.6601 18.0461H11.6467C11.4751 18.0461 11.3359 18.1852 11.3359 18.3568C11.3359 18.5284 11.4751 18.6675 11.6467 18.6675H13.6902C13.8618 18.6675 14.0009 18.5284 14.0009 18.3568C14.0009 18.1852 14.14 18.0461 14.3116 18.0461H15.3269C15.331 18.0461 15.3343 18.0427 15.3343 18.0387C15.3343 18.0346 15.331 18.0312 15.3269 18.0312H12.6749Z" fill="#1D1D1B"/>
<path d="M16.3481 4.35938H16.3038C16.1317 4.35938 15.9922 4.49891 15.9922 4.67104C15.9922 4.84316 16.1317 4.9827 16.3038 4.9827H16.3481C16.5203 4.9827 16.6598 4.84316 16.6598 4.67104C16.6598 4.49891 16.5203 4.35938 16.3481 4.35938Z" fill="#757575"/>
<path d="M16.3246 6.22658C16.1395 6.22607 15.9898 6.07594 15.9898 5.89092V4.69228C15.9898 4.50843 15.8408 4.35939 15.6569 4.35939H15.6357C15.4636 4.35939 15.324 4.21985 15.324 4.04773C15.324 3.8756 15.1845 3.73607 15.0124 3.73607H14.9699C14.7978 3.73607 14.6583 3.59653 14.6583 3.4244C14.6583 3.25228 14.5187 3.11274 14.3466 3.11274H14.3014C14.1298 3.11274 13.9906 2.97362 13.9906 2.80201C13.9906 2.63039 13.8515 2.49127 13.6799 2.49127H13.6356C13.464 2.49127 13.3249 2.35215 13.3249 2.18053C13.3249 2.00892 13.1857 1.8698 13.0141 1.8698H12.9624C12.7908 1.8698 12.6517 1.73068 12.6517 1.55906C12.6517 1.38745 12.5126 1.24832 12.341 1.24832H11.6318C11.4597 1.24832 11.3202 1.10879 11.3202 0.936662C11.3202 0.764536 11.1806 0.625 11.0085 0.625H6.30561C6.13348 0.625 5.99395 0.764536 5.99395 0.936662C5.99395 1.10879 5.85441 1.24832 5.68229 1.24832H4.97315C4.80153 1.24832 4.66241 1.38745 4.66241 1.55906C4.66241 1.73068 4.52329 1.8698 4.35167 1.8698H4.3055C4.13389 1.8698 3.99476 2.00892 3.99476 2.18053C3.99476 2.35215 3.85564 2.49127 3.68403 2.49127H3.63973C3.46812 2.49127 3.32899 2.63039 3.32899 2.80201C3.32899 2.97362 3.18987 3.11274 3.01826 3.11274H2.97674C2.80461 3.11274 2.66508 3.25228 2.66508 3.4244C2.66508 3.59653 2.52554 3.73607 2.35341 3.73607H2.33219C2.14834 3.73607 1.99931 3.8851 1.99931 4.06895V4.65075C1.99931 4.83511 1.84985 4.98456 1.66549 4.98456C1.48114 4.98456 1.33168 5.13401 1.33168 5.31837V5.89555C1.33168 6.0799 1.18223 6.22936 0.997873 6.22936C0.813515 6.22936 0.664062 6.37881 0.664062 6.56317V12.1177C0.664062 12.302 0.813515 12.4515 0.997873 12.4515C1.18223 12.4515 1.33168 12.6009 1.33168 12.7853V13.3625C1.33168 13.5468 1.48114 13.6963 1.66549 13.6963C1.84985 13.6963 1.99931 13.8457 1.99931 14.0301V14.6082C1.99931 14.792 2.14834 14.9411 2.33219 14.9411H2.35434C2.52595 14.9411 2.66508 15.0802 2.66508 15.2518C2.66508 15.4234 2.8042 15.5626 2.97581 15.5626H3.01918C3.19131 15.5626 3.33085 15.7021 3.33085 15.8742C3.33085 16.0463 3.47038 16.1859 3.64251 16.1859H3.68588C3.85749 16.1859 3.99662 16.325 3.99662 16.4966C3.99662 16.6682 4.13574 16.8073 4.30735 16.8073H4.3526C4.52472 16.8073 4.66426 16.9469 4.66426 17.119C4.66426 17.2911 4.80379 17.4307 4.97592 17.4307H5.68506C5.85668 17.4307 5.9958 17.5698 5.9958 17.7414C5.9958 17.913 6.13492 18.0521 6.30654 18.0521H11.0168C11.1884 18.0521 11.3275 17.913 11.3275 17.7414C11.3275 17.5698 11.4667 17.4307 11.6383 17.4307H12.3456C12.5187 17.4307 12.6591 17.2903 12.6591 17.1172C12.6591 16.944 12.7995 16.8036 12.9726 16.8036H13.016C13.1876 16.8036 13.3267 16.6645 13.3267 16.4929C13.3267 16.3213 13.4658 16.1822 13.6375 16.1822H13.6808C13.853 16.1822 13.9925 16.0426 13.9925 15.8705C13.9925 15.6984 14.132 15.5589 14.3042 15.5589H14.3494C14.521 15.5589 14.6601 15.4197 14.6601 15.2481C14.6601 15.0765 14.7992 14.9374 14.9709 14.9374H15.0142C15.1863 14.9374 15.3259 14.7978 15.3259 14.6257C15.3259 14.4536 15.4654 14.3141 15.6375 14.3141H15.6588C15.8426 14.3141 15.9917 14.165 15.9917 13.9812V13.4049C15.9917 13.2206 16.1411 13.0711 16.3255 13.0711C16.5098 13.0711 16.6593 12.9217 16.6593 12.7373V6.56224C16.6593 6.37722 16.5096 6.22709 16.3246 6.22658ZM2.99704 6.84713C3.18037 6.84713 3.32899 6.69851 3.32899 6.51517V5.93707C3.32899 5.75322 3.47803 5.60419 3.66188 5.60419H3.68495C3.85606 5.60419 3.99476 5.46548 3.99476 5.29437C3.99476 5.12327 4.13347 4.98456 4.30458 4.98456H4.35167C4.52329 4.98456 4.66241 4.84544 4.66241 4.67382C4.66241 4.50221 4.80153 4.36309 4.97315 4.36309H5.01652C5.18864 4.36309 5.32818 4.22355 5.32818 4.05143C5.32818 3.8793 5.46771 3.73977 5.63984 3.73977H5.68229C5.85441 3.73977 5.99395 3.60023 5.99395 3.4281C5.99395 3.25598 6.13348 3.11644 6.30561 3.11644H11.014C11.1862 3.11644 11.3257 3.25598 11.3257 3.4281C11.3257 3.60023 11.4652 3.73977 11.6373 3.73977H11.6798C11.8519 3.73977 11.9915 3.8793 11.9915 4.05143C11.9915 4.22355 12.131 4.36309 12.3031 4.36309H12.3465C12.5181 4.36309 12.6572 4.50221 12.6572 4.67382C12.6572 4.84544 12.7964 4.98456 12.968 4.98456H13.0132C13.1853 4.98456 13.3249 5.1241 13.3249 5.29622C13.3249 5.46835 13.4644 5.60788 13.6365 5.60788H13.6578C13.8416 5.60788 13.9906 5.75692 13.9906 5.94077V6.51702C13.9906 6.70138 14.1401 6.85083 14.3245 6.85083C14.5088 6.85083 14.6583 7.00028 14.6583 7.18464V11.4944C14.6583 11.6787 14.5088 11.8282 14.3245 11.8282C14.1401 11.8282 13.9906 11.9776 13.9906 12.162V12.7401C13.9906 12.9239 13.8416 13.073 13.6578 13.073H13.6356C13.464 13.073 13.3249 13.2121 13.3249 13.3837C13.3249 13.5553 13.1858 13.6944 13.0141 13.6944H12.9624C12.7908 13.6944 12.6517 13.8336 12.6517 14.0052C12.6517 14.1768 12.5126 14.3159 12.341 14.3159H12.2976C12.1255 14.3159 11.9859 14.4554 11.9859 14.6276C11.9859 14.7997 11.8464 14.9392 11.6743 14.9392H11.6309C11.4593 14.9392 11.3202 15.0783 11.3202 15.25C11.3202 15.4216 11.181 15.5607 11.0094 15.5607H6.30468C6.13307 15.5607 5.99395 15.4216 5.99395 15.25C5.99395 15.0783 5.85483 14.9392 5.68321 14.9392H5.63984C5.46771 14.9392 5.32818 14.7997 5.32818 14.6276C5.32818 14.4554 5.18864 14.3159 5.01652 14.3159H4.97315C4.80153 14.3159 4.66241 14.1768 4.66241 14.0052C4.66241 13.8336 4.52329 13.6944 4.35167 13.6944H4.3055C4.13389 13.6944 3.99476 13.5553 3.99476 13.3837C3.99476 13.2121 3.85564 13.073 3.68403 13.073H3.66188C3.47803 13.073 3.32899 12.9239 3.32899 12.7401V12.1601C3.32899 11.9768 3.18037 11.8282 2.99704 11.8282C2.8137 11.8282 2.66508 11.6795 2.66508 11.4962V7.17909C2.66508 6.99575 2.8137 6.84713 2.99704 6.84713Z" fill="#656565"/>
<path d="M4.66764 5.89015C4.66764 6.07451 4.51819 6.22397 4.33382 6.22397C4.14946 6.22397 4 6.37342 4 6.55779V6.84544V7.46876V8.09024V8.71356V9.33503V9.95835V10.578V10.8675C4 11.0518 4.14946 11.2013 4.33382 11.2013C4.51819 11.2013 4.66764 11.3508 4.66764 11.5351V11.8246V12.1132C4.66764 12.2971 4.81668 12.4461 5.00053 12.4461H5.02175C5.19388 12.4461 5.33341 12.5856 5.33341 12.7578C5.33341 12.9299 5.47295 13.0694 5.64507 13.0694H5.68845C5.86006 13.0694 5.99918 13.2085 5.99918 13.3802C5.99918 13.5518 6.13831 13.6909 6.30992 13.6909H6.66495H7.02184C7.19345 13.6909 7.33258 13.83 7.33258 14.0016C7.33258 14.1732 7.4717 14.3124 7.64331 14.3124H8.0002H8.66414H9.33176H9.99753H10.3544C10.526 14.3124 10.6652 14.1732 10.6652 14.0016C10.6652 13.83 10.8043 13.6909 10.9759 13.6909H11.3309H11.686C11.8576 13.6909 11.9967 13.5518 11.9967 13.3802C11.9967 13.2085 12.1358 13.0694 12.3074 13.0694H12.3508C12.5229 13.0694 12.6625 12.9299 12.6625 12.7578C12.6625 12.5856 12.802 12.4461 12.9741 12.4461H12.9963C13.1807 12.4461 13.3301 12.2966 13.3301 12.1123V11.8246V11.5342C13.3301 11.3503 13.4791 11.2013 13.663 11.2013C13.8468 11.2013 13.9959 11.0523 13.9959 10.8684V10.578V9.95835V9.33503V8.71356V8.09024V7.80165C13.9959 7.6178 13.8468 7.46876 13.663 7.46876C13.4791 7.46876 13.3301 7.31972 13.3301 7.13588V6.84544V6.22397V5.93631C13.3301 5.75195 13.1807 5.60249 12.9963 5.60249H12.9741C12.802 5.60249 12.6625 5.46296 12.6625 5.29083C12.6625 5.11871 12.5229 4.97917 12.3508 4.97917H12.3075C12.1358 4.97917 11.9967 4.84005 11.9967 4.66843C11.9967 4.49682 11.8576 4.3577 11.686 4.3577H11.3309H10.9768C10.8047 4.3577 10.6652 4.21816 10.6652 4.04604C10.6652 3.87391 10.5256 3.73438 10.3535 3.73438H9.99753H9.33176H8.66414H8.0002H7.33258H6.97662C6.80449 3.73438 6.66495 3.87391 6.66495 4.04604C6.66495 4.21816 6.52542 4.3577 6.35329 4.3577H5.99918H5.64415C5.47254 4.3577 5.33341 4.49682 5.33341 4.66843C5.33341 4.84005 5.19429 4.97917 5.02268 4.97917H5.00053C4.81668 4.97917 4.66764 5.12821 4.66764 5.31205V5.60249V5.89015Z" fill="#656565"/>
<path d="M18.9952 4.35602C18.8108 4.35602 18.6614 4.20657 18.6614 4.02221V3.7327V3.44226C18.6614 3.25841 18.5123 3.10938 18.3285 3.10938H18.3073C18.1351 3.10938 17.9956 3.24891 17.9956 3.42104C17.9956 3.59316 17.8561 3.7327 17.6839 3.7327H17.3298H17.2874C16.9431 3.7327 16.6641 4.01177 16.6641 4.35602V4.97749V5.26793C16.6641 5.45178 16.8131 5.60082 16.9969 5.60082H17.0182C17.1903 5.60082 17.3298 5.46128 17.3298 5.28915C17.3298 5.11703 17.4694 4.97749 17.6415 4.97749H17.9956H18.038C18.3823 4.97749 18.6614 5.25656 18.6614 5.60082V5.88848C18.6614 6.07284 18.8108 6.22229 18.9952 6.22229C19.1795 6.22229 19.329 6.07284 19.329 5.88848V5.60082V4.97749V4.68983C19.329 4.50547 19.1795 4.35602 18.9952 4.35602Z" fill="#656565"/>
<path d="M17.6442 2.48959C17.4726 2.48959 17.3335 2.35047 17.3335 2.17886C17.3335 2.00724 17.1943 1.86812 17.0227 1.86812H16.6677H16.3108C16.1392 1.86812 16.0001 1.729 16.0001 1.55738C16.0001 1.38577 15.861 1.24665 15.6893 1.24665H15.6459C15.4738 1.24665 15.3343 1.10711 15.3343 0.934984C15.3343 0.762858 15.1947 0.623322 15.0226 0.623322H14.6685H14.3126C14.1404 0.623322 14.0009 0.483786 14.0009 0.311661C14.0009 0.139535 13.8614 0 13.6892 0H13.3351H12.6675H12.0017H11.6476C11.4755 0 11.3359 0.139535 11.3359 0.311661C11.3359 0.483786 11.4755 0.623322 11.6476 0.623322H12.0017H12.3558C12.528 0.623322 12.6675 0.762858 12.6675 0.934984C12.6675 1.10711 12.807 1.24665 12.9792 1.24665H13.0244C13.196 1.24665 13.3351 1.38577 13.3351 1.55738C13.3351 1.729 13.4742 1.86812 13.6459 1.86812H13.6902C13.8618 1.86812 14.0009 2.00724 14.0009 2.17886C14.0009 2.35047 14.14 2.48959 14.3116 2.48959H14.3578C14.5294 2.48959 14.6685 2.62871 14.6685 2.80033C14.6685 2.97194 14.8076 3.11107 14.9792 3.11107H15.3343H16.0001H16.6677H17.3335H17.6885C17.8601 3.11107 17.9992 2.97194 17.9992 2.80033C17.9992 2.62871 17.8601 2.48959 17.6885 2.48959H17.6442Z" fill="#656565"/>
<path d="M18.9952 4.35602C18.8108 4.35602 18.6614 4.20657 18.6614 4.02221V3.7327V3.44226C18.6614 3.25841 18.5123 3.10938 18.3285 3.10938H18.3073C18.1351 3.10938 17.9956 3.24891 17.9956 3.42104C17.9956 3.59316 17.8561 3.7327 17.6839 3.7327H17.3298H17.2874C16.9431 3.7327 16.6641 4.01177 16.6641 4.35602V4.97749V5.26793C16.6641 5.45178 16.8131 5.60082 16.9969 5.60082H17.0182C17.1903 5.60082 17.3298 5.46128 17.3298 5.28915C17.3298 5.11703 17.4694 4.97749 17.6415 4.97749H17.9956H18.038C18.3823 4.97749 18.6614 5.25656 18.6614 5.60082V5.88848C18.6614 6.07284 18.8108 6.22229 18.9952 6.22229C19.1795 6.22229 19.329 6.07284 19.329 5.88848V5.60082V4.97749V4.68983C19.329 4.50547 19.1795 4.35602 18.9952 4.35602Z" fill="#656565"/>
<path d="M18.658 4.35602V3.7327V3.44226C18.658 3.25841 18.5089 3.10938 18.3251 3.10938C18.1412 3.10938 17.9922 3.25841 17.9922 3.44226V3.7327C17.9922 4.07695 18.2713 4.35602 18.6155 4.35602H18.658V4.97749V5.60082V5.88848C18.658 6.07284 18.8074 6.22229 18.9918 6.22229C19.1761 6.22229 19.3256 6.07284 19.3256 5.88848V5.60082V4.97749C19.3256 4.63426 19.0473 4.35602 18.7041 4.35602H18.658Z" fill="#1D1D1B"/>
<path d="M15.6823 1.24609H15.6398C15.4677 1.24609 15.3281 1.38563 15.3281 1.55775C15.3281 1.72988 15.4677 1.86942 15.6398 1.86942H15.6823C15.8544 1.86942 15.9939 1.72988 15.9939 1.55775C15.9939 1.38563 15.8544 1.24609 15.6823 1.24609Z" fill="#1D1D1B"/>
<path d="M15.9922 2.17402C15.9922 2.34563 16.1313 2.48475 16.3029 2.48475H16.6598H17.0148C17.1865 2.48475 17.3256 2.34563 17.3256 2.17402C17.3256 2.0024 17.1865 1.86328 17.0148 1.86328H16.6598H16.3029C16.1313 1.86328 15.9922 2.0024 15.9922 2.17402Z" fill="#1D1D1B"/>
<path d="M14.6598 1.24832H15.0139C15.186 1.24832 15.3256 1.10879 15.3256 0.936662C15.3256 0.764536 15.186 0.625 15.0139 0.625H14.6598H14.3038C14.1317 0.625 13.9922 0.764536 13.9922 0.936662C13.9922 1.10879 14.1317 1.24832 14.3038 1.24832H14.6598Z" fill="#1D1D1B"/>
<path d="M17.6841 2.48828H17.6398C17.4677 2.48828 17.3281 2.62782 17.3281 2.79994C17.3281 2.97207 17.4677 3.1116 17.6398 3.1116H17.6841C17.8562 3.1116 17.9957 2.97207 17.9957 2.79994C17.9957 2.62782 17.8562 2.48828 17.6841 2.48828Z" fill="#1D1D1B"/>
<path d="M12.0017 0.623322H12.6675H13.3351H13.6892C13.8614 0.623322 14.0009 0.483786 14.0009 0.311661C14.0009 0.139535 13.8614 0 13.6892 0H13.3351H12.6675H12.0017H11.6476C11.4755 0 11.3359 0.139535 11.3359 0.311661C11.3359 0.483786 11.4755 0.623322 11.6476 0.623322H12.0017Z" fill="#1D1D1B"/>
<path d="M16.6598 14.6281C16.6598 14.4559 16.5203 14.3164 16.3481 14.3164H16.3038C16.1317 14.3164 15.9922 14.4559 15.9922 14.6281C15.9922 14.8002 16.1317 14.9397 16.3038 14.9397H16.3481C16.5203 14.9397 16.6598 14.8002 16.6598 14.6281Z" fill="#1D1D1B"/>
<path d="M19.3239 6.22656H18.6562H19.3239V6.84804V7.47136V8.09283V8.71615V9.33763V9.96095V10.5806V11.2039V11.8272V12.1149C19.3239 12.2992 19.4733 12.4487 19.6577 12.4487C19.8421 12.4487 19.9915 12.2992 19.9915 12.1149V11.8272V11.2039V10.5806V9.96095V9.33763V8.71615V8.09283V7.47136V6.84804C19.9915 6.50481 19.7133 6.22656 19.37 6.22656H19.3239Z" fill="#1D1D1B"/>
<path d="M16.9969 15.5547C16.8131 15.5547 16.6641 15.7037 16.6641 15.8876V16.178V16.4666C16.6641 16.6504 16.8131 16.7995 16.9969 16.7995C17.1808 16.7995 17.3298 16.6504 17.3298 16.4666V16.178V15.8876C17.3298 15.7037 17.1808 15.5547 16.9969 15.5547Z" fill="#1D1D1B"/>
<path d="M17.6841 14.9375H17.6398C17.4677 14.9375 17.3281 15.077 17.3281 15.2492C17.3281 15.4213 17.4677 15.5608 17.6398 15.5608H17.6841C17.8562 15.5608 17.9957 15.4213 17.9957 15.2492C17.9957 15.077 17.8562 14.9375 17.6841 14.9375Z" fill="#1D1D1B"/>
<path d="M18.9918 12.4453C18.8074 12.4453 18.658 12.5948 18.658 12.7791V13.0686V13.3572C18.658 13.5411 18.5089 13.6901 18.3251 13.6901C18.1412 13.6901 17.9922 13.8391 17.9922 14.023V14.3116V14.602C17.9922 14.7859 18.1412 14.9349 18.3251 14.9349C18.5089 14.9349 18.658 14.7859 18.658 14.602V14.3116V14.0239C18.658 13.8396 18.8074 13.6901 18.9918 13.6901C19.1761 13.6901 19.3256 13.5407 19.3256 13.3563V13.0686V12.7791C19.3256 12.5948 19.1761 12.4453 18.9918 12.4453Z" fill="#1D1D1B"/>
<path d="M13.9939 18.3576C13.9939 18.186 13.8548 18.0469 13.6832 18.0469H13.6389C13.4672 18.0469 13.3281 18.186 13.3281 18.3576C13.3281 18.5292 13.4672 18.6683 13.6389 18.6683H13.6832C13.8548 18.6683 13.9939 18.5292 13.9939 18.3576Z" fill="#1D1D1B"/>
<path d="M15.9939 16.8012V16.5126C15.9939 16.3287 15.8449 16.1797 15.661 16.1797C15.4772 16.1797 15.3281 16.3287 15.3281 16.5126V16.8012V17.0916C15.3281 17.2754 15.4772 17.4245 15.661 17.4245C15.8449 17.4245 15.9939 17.2754 15.9939 17.0916V16.8012Z" fill="#1D1D1B"/>
<path d="M15.02 17.4258H14.9757C14.8036 17.4258 14.6641 17.5653 14.6641 17.7374C14.6641 17.9096 14.8036 18.0491 14.9757 18.0491H15.02C15.1921 18.0491 15.3317 17.9096 15.3317 17.7374C15.3317 17.5653 15.1921 17.4258 15.02 17.4258Z" fill="#1D1D1B"/>
<path d="M11.6347 17.4258C11.463 17.4258 11.3239 17.5649 11.3239 17.7365C11.3239 17.9081 11.1848 18.0473 11.0132 18.0473H10.6582H9.99053H9.32476H8.65714H7.9932H7.32558H6.65796H6.30292C6.13131 18.0473 5.99219 18.1864 5.99219 18.358C5.99219 18.5296 6.13131 18.6687 6.30292 18.6687H6.65796H7.32558H7.9932H8.65714H9.32476H9.99053H10.6582H11.0132C11.1848 18.6687 11.3239 18.5296 11.3239 18.358C11.3239 18.1864 11.463 18.0473 11.6347 18.0473H11.9897H12.3447C12.5164 18.0473 12.6555 17.9081 12.6555 17.7365C12.6555 17.5649 12.5164 17.4258 12.3447 17.4258H11.9897H11.6347Z" fill="#1D1D1B"/>
<path d="M13.02 16.8008H12.9757C12.8036 16.8008 12.6641 16.9403 12.6641 17.1124C12.6641 17.2846 12.8036 17.4241 12.9757 17.4241H13.02C13.1921 17.4241 13.3317 17.2846 13.3317 17.1124C13.3317 16.9403 13.1921 16.8008 13.02 16.8008Z" fill="#1D1D1B"/>
<path d="M13.9939 15.8663C13.9939 16.0385 13.8544 16.178 13.6822 16.178H13.6389C13.4672 16.178 13.3281 16.3171 13.3281 16.4887C13.3281 16.6604 13.4672 16.7995 13.6389 16.7995H13.9939H14.04C14.3833 16.7995 14.6615 16.5212 14.6615 16.178V15.8885C14.6615 15.7041 14.5121 15.5547 14.3277 15.5547H14.3056C14.1334 15.5547 13.9939 15.6942 13.9939 15.8663Z" fill="#1D1D1B"/>
<path d="M15.02 14.9375H14.9757C14.8036 14.9375 14.6641 15.077 14.6641 15.2492C14.6641 15.4213 14.8036 15.5608 14.9757 15.5608H15.02C15.1921 15.5608 15.3317 15.4213 15.3317 15.2492C15.3317 15.077 15.1921 14.9375 15.02 14.9375Z" fill="#1D1D1B"/>
<path d="M15.6823 14.3164H15.6398C15.4677 14.3164 15.3281 14.4559 15.3281 14.6281C15.3281 14.8002 15.4677 14.9397 15.6398 14.9397H15.6823C15.8544 14.9397 15.9939 14.8002 15.9939 14.6281C15.9939 14.4559 15.8544 14.3164 15.6823 14.3164Z" fill="#1D1D1B"/>
<path d="M15.9922 13.6918V13.9794C15.9922 14.1638 16.1416 14.3133 16.326 14.3133C16.5104 14.3133 16.6598 14.1638 16.6598 13.9794V13.6918V13.4041C16.6598 13.2198 16.5104 13.0703 16.326 13.0703C16.1416 13.0703 15.9922 13.2198 15.9922 13.4041V13.6918Z" fill="#1D1D1B"/>
<path d="M16.9969 6.84375C16.8131 6.84375 16.6641 6.99279 16.6641 7.17664V7.46707V8.08854V8.71187V9.33334V9.95666V10.5763V11.1996V11.8229V12.4444V12.7348C16.6641 12.9187 16.8131 13.0677 16.9969 13.0677C17.1808 13.0677 17.3298 12.9187 17.3298 12.7348V12.4444V11.8229V11.1996V10.5763V9.95666V9.33334V8.71187V8.08854V7.46707V7.17664C17.3298 6.99279 17.1808 6.84375 16.9969 6.84375Z" fill="#1D1D1B"/>
<path d="M15.9922 5.60379V5.89146C15.9922 6.07581 16.1416 6.22527 16.326 6.22527C16.5104 6.22527 16.6598 6.07581 16.6598 5.89146V5.60379V5.31428C16.6598 5.12992 16.5104 4.98047 16.326 4.98047C16.1416 4.98047 15.9922 5.12992 15.9922 5.31428V5.60379Z" fill="#1D1D1B"/>
<path d="M15.6823 3.73438H15.6398C15.4677 3.73438 15.3281 3.87391 15.3281 4.04604C15.3281 4.21816 15.4677 4.3577 15.6398 4.3577H15.6823C15.8544 4.3577 15.9939 4.21816 15.9939 4.04604C15.9939 3.87391 15.8544 3.73438 15.6823 3.73438Z" fill="#1D1D1B"/>
<path d="M12.355 13.6914H12.3107C12.1391 13.6914 12 13.8305 12 14.0021C12 14.1738 12.1391 14.3129 12.3107 14.3129H12.355C12.5266 14.3129 12.6658 14.1738 12.6658 14.0021C12.6658 13.8305 12.5266 13.6914 12.355 13.6914Z" fill="#1D1D1B"/>
<path d="M13.3317 6.84451V7.13495C13.3317 7.31879 13.4807 7.46783 13.6646 7.46783C13.8484 7.46783 13.9975 7.61687 13.9975 7.80072V8.0893V8.71263V9.3341V9.95742V10.577V10.8675C13.9975 11.0513 13.8484 11.2004 13.6646 11.2004C13.4807 11.2004 13.3317 11.3494 13.3317 11.5333V11.8237V12.1114C13.3317 12.2957 13.1822 12.4452 12.9979 12.4452C12.8135 12.4452 12.6641 12.5946 12.6641 12.779V13.0685V13.3561C12.6641 13.5405 12.8135 13.69 12.9979 13.69H13.0209C13.1926 13.69 13.3317 13.5508 13.3317 13.3792C13.3317 13.2076 13.4708 13.0685 13.6424 13.0685H13.6646C13.8484 13.0685 13.9975 12.9194 13.9975 12.7356V12.4452V12.1575C13.9975 11.9731 14.1469 11.8237 14.3313 11.8237C14.5156 11.8237 14.6651 11.6742 14.6651 11.4899V11.2004V10.577V9.95742V9.3341V8.71263V8.0893V7.46783V7.17832C14.6651 6.99396 14.5156 6.84451 14.3313 6.84451C14.1469 6.84451 13.9975 6.69506 13.9975 6.5107V6.22304V5.93445C13.9975 5.7506 13.8484 5.60156 13.6646 5.60156C13.4807 5.60156 13.3317 5.7506 13.3317 5.93445V6.22304V6.84451Z" fill="#1D1D1B"/>
<path d="M13.02 4.98047H12.9757C12.8036 4.98047 12.6641 5.12 12.6641 5.29213C12.6641 5.46426 12.8036 5.60379 12.9757 5.60379H13.02C13.1921 5.60379 13.3317 5.46426 13.3317 5.29213C13.3317 5.12 13.1921 4.98047 13.02 4.98047Z" fill="#1D1D1B"/>
<path d="M12.3541 4.35938H12.3117C12.1395 4.35938 12 4.49891 12 4.67104C12 4.84316 12.1395 4.9827 12.3117 4.9827H12.3541C12.5262 4.9827 12.6658 4.84316 12.6658 4.67104C12.6658 4.49891 12.5262 4.35938 12.3541 4.35938Z" fill="#1D1D1B"/>
<path d="M15.02 3.10938H14.9757C14.8036 3.10938 14.6641 3.24891 14.6641 3.42104C14.6641 3.59316 14.8036 3.7327 14.9757 3.7327H15.02C15.1921 3.7327 15.3317 3.59316 15.3317 3.42104C15.3317 3.24891 15.1921 3.10938 15.02 3.10938Z" fill="#1D1D1B"/>
<path d="M14.3481 2.48828H14.3038C14.1317 2.48828 13.9922 2.62782 13.9922 2.79994C13.9922 2.97207 14.1317 3.1116 14.3038 3.1116H14.3481C14.5203 3.1116 14.6598 2.97207 14.6598 2.79994C14.6598 2.62782 14.5203 2.48828 14.3481 2.48828Z" fill="#1D1D1B"/>
<path d="M13.6832 1.86328H13.6389C13.4672 1.86328 13.3281 2.0024 13.3281 2.17402C13.3281 2.34563 13.4672 2.48475 13.6389 2.48475H13.6832C13.8548 2.48475 13.9939 2.34563 13.9939 2.17402C13.9939 2.0024 13.8548 1.86328 13.6832 1.86328Z" fill="#1D1D1B"/>
<path d="M13.02 1.24609H12.9757C12.8036 1.24609 12.6641 1.38563 12.6641 1.55775C12.6641 1.72988 12.8036 1.86942 12.9757 1.86942H13.02C13.1921 1.86942 13.3317 1.72988 13.3317 1.55775C13.3317 1.38563 13.1921 1.24609 13.02 1.24609Z" fill="#1D1D1B"/>
<path d="M11.3359 0.936662C11.3359 1.10879 11.4755 1.24832 11.6476 1.24832H12.0017H12.3558C12.528 1.24832 12.6675 1.10879 12.6675 0.936662C12.6675 0.764536 12.528 0.625 12.3558 0.625H12.0017H11.6476C11.4755 0.625 11.3359 0.764536 11.3359 0.936662Z" fill="#1D1D1B"/>
<path d="M5.32983 17.4258H4.9748C4.80318 17.4258 4.66406 17.5649 4.66406 17.7365C4.66406 17.9081 4.80318 18.0473 4.9748 18.0473H5.32983H5.68486C5.85648 18.0473 5.9956 17.9081 5.9956 17.7365C5.9956 17.5649 5.85648 17.4258 5.68486 17.4258H5.32983Z" fill="#1D1D1B"/>
<path d="M4.35598 16.8008H4.31166C4.13954 16.8008 4 16.9403 4 17.1124C4 17.2846 4.13954 17.4241 4.31166 17.4241H4.35598C4.52811 17.4241 4.66764 17.2846 4.66764 17.1124C4.66764 16.9403 4.52811 16.8008 4.35598 16.8008Z" fill="#1D1D1B"/>
<path d="M3.64149 16.178C3.46937 16.178 3.32983 16.0385 3.32983 15.8663C3.32983 15.6942 3.1903 15.5547 3.01817 15.5547H2.99695C2.8131 15.5547 2.66406 15.7037 2.66406 15.8876V16.178C2.66406 16.5212 2.9423 16.7995 3.28553 16.7995H3.32983H3.68487C3.85648 16.7995 3.9956 16.6604 3.9956 16.4887C3.9956 16.3171 3.85648 16.178 3.68487 16.178H3.64149Z" fill="#1D1D1B"/>
<path d="M2.35411 14.9375H2.31166C2.13954 14.9375 2 15.077 2 15.2492C2 15.4213 2.13954 15.5608 2.31166 15.5608H2.35411C2.52623 15.5608 2.66577 15.4213 2.66577 15.2492C2.66577 15.077 2.52623 14.9375 2.35411 14.9375Z" fill="#1D1D1B"/>
<path d="M6.65967 15.5612H7.32729H7.99491H8.65885H9.32647H9.99224H10.6599H11.0149C11.1865 15.5612 11.3256 15.4221 11.3256 15.2505C11.3256 15.0789 11.4648 14.9397 11.6364 14.9397H11.6798C11.8519 14.9397 11.9914 14.8002 11.9914 14.6281C11.9914 14.4559 11.8519 14.3164 11.6798 14.3164H11.3256H10.9715C10.7994 14.3164 10.6599 14.4559 10.6599 14.6281C10.6599 14.8002 10.5203 14.9397 10.3482 14.9397H9.99224H9.32647H8.65885H7.99491H7.32729H6.97133C6.7992 14.9397 6.65967 14.8002 6.65967 14.6281C6.65967 14.4559 6.52013 14.3164 6.348 14.3164H5.9939H5.63979C5.46766 14.3164 5.32812 14.4559 5.32812 14.6281C5.32812 14.8002 5.46766 14.9397 5.63979 14.9397H5.68316C5.85477 14.9397 5.9939 15.0789 5.9939 15.2505C5.9939 15.4221 6.13302 15.5612 6.30463 15.5612H6.65967Z" fill="#1D1D1B"/>
<path d="M5.01909 13.6914H4.9748C4.80318 13.6914 4.66406 13.8305 4.66406 14.0021C4.66406 14.1738 4.80318 14.3129 4.9748 14.3129H5.01909C5.19071 14.3129 5.32983 14.1738 5.32983 14.0021C5.32983 13.8305 5.19071 13.6914 5.01909 13.6914Z" fill="#1D1D1B"/>
<path d="M1.99575 14.0252C1.99575 13.8409 1.84629 13.6914 1.66194 13.6914C1.47758 13.6914 1.32812 13.8409 1.32812 14.0252V14.3129V14.6024C1.32812 14.7868 1.47758 14.9362 1.66194 14.9362C1.84629 14.9362 1.99575 14.7868 1.99575 14.6024V14.3129V14.0252Z" fill="#1D1D1B"/>
<path d="M1.33168 12.7791C1.33168 12.5948 1.18223 12.4453 0.997873 12.4453C0.813515 12.4453 0.664062 12.5948 0.664062 12.7791V13.0686V13.3563C0.664062 13.5407 0.813515 13.6901 0.997873 13.6901C1.18223 13.6901 1.33168 13.5407 1.33168 13.3563V13.0686V12.7791Z" fill="#1D1D1B"/>
<path d="M0.665793 11.1996V10.5763V9.95666V9.33334V8.71187V8.08854V7.46707V7.17665C0.665793 6.99279 0.51675 6.84375 0.332896 6.84375C0.149043 6.84375 0 6.99279 0 7.17665V7.46707V8.08854V8.71187V9.33334V9.95666V10.5763V11.1996V11.49C0 11.6739 0.149043 11.8229 0.332896 11.8229C0.51675 11.8229 0.665793 11.6739 0.665793 11.49V11.1996Z" fill="#1D1D1B"/>
<path d="M4.66325 12.7812C4.66325 12.5969 4.51379 12.4474 4.32943 12.4474C4.14506 12.4474 3.9956 12.2979 3.9956 12.1136V11.8259V11.5355C3.9956 11.3516 3.84657 11.2026 3.66272 11.2026C3.47887 11.2026 3.32983 11.0536 3.32983 10.8697V10.5793V9.95965V9.33633V8.71486V8.09153V7.80295C3.32983 7.6191 3.47887 7.47006 3.66272 7.47006C3.84657 7.47006 3.9956 7.32102 3.9956 7.13718V6.84674V6.55909C3.9956 6.37472 4.14506 6.22527 4.32943 6.22527C4.51379 6.22527 4.66325 6.07581 4.66325 5.89144V5.60379V5.31429C4.66325 5.12993 4.51379 4.98047 4.32942 4.98047H4.30727C4.13514 4.98047 3.9956 5.12 3.9956 5.29213C3.9956 5.46426 3.85607 5.60379 3.68394 5.60379H3.66272C3.47887 5.60379 3.32983 5.75283 3.32983 5.93668V6.22527V6.51385C3.32983 6.6977 3.1808 6.84674 2.99695 6.84674C2.8131 6.84674 2.66406 6.99578 2.66406 7.17962V7.47006V8.09153V8.71486V9.33633V9.95965V10.5793V11.2026V11.493C2.66406 11.6769 2.8131 11.8259 2.99695 11.8259C3.1808 11.8259 3.32983 11.975 3.32983 12.1588V12.4474V12.7378C3.32983 12.9217 3.47887 13.0707 3.66272 13.0707H3.68487C3.85648 13.0707 3.9956 13.2098 3.9956 13.3815C3.9956 13.5531 4.13472 13.6922 4.30634 13.6922H4.32943C4.51379 13.6922 4.66325 13.5427 4.66325 13.3584V13.0707V12.7812Z" fill="#1D1D1B"/>
<path d="M1.33168 5.60379V5.31428C1.33168 5.12992 1.18223 4.98047 0.997873 4.98047C0.813515 4.98047 0.664062 5.12992 0.664062 5.31428V5.60379V5.89146C0.664062 6.07581 0.813515 6.22527 0.997873 6.22527C1.18223 6.22527 1.33168 6.07581 1.33168 5.89146V5.60379Z" fill="#1D1D1B"/>
<path d="M5.01817 4.35938H4.97572C4.8036 4.35938 4.66406 4.49891 4.66406 4.67104C4.66406 4.84316 4.8036 4.9827 4.97572 4.9827H5.01817C5.1903 4.9827 5.32983 4.84316 5.32983 4.67104C5.32983 4.49891 5.1903 4.35938 5.01817 4.35938Z" fill="#1D1D1B"/>
<path d="M1.99575 4.3577V4.06819C1.99575 3.88383 1.84629 3.73438 1.66194 3.73438C1.47758 3.73438 1.32812 3.88383 1.32812 4.06819V4.3577V4.64536C1.32812 4.82972 1.47758 4.97917 1.66194 4.97917C1.84629 4.97917 1.99575 4.82972 1.99575 4.64536V4.3577Z" fill="#1D1D1B"/>
<path d="M6.348 4.35602C6.52013 4.35602 6.65967 4.21648 6.65967 4.04436C6.65967 3.87223 6.7992 3.7327 6.97133 3.7327H7.32729H7.99491H8.65885H9.32647H9.99224H10.3482C10.5203 3.7327 10.6599 3.87223 10.6599 4.04436C10.6599 4.21648 10.7994 4.35602 10.9715 4.35602H11.3256H11.6798C11.8519 4.35602 11.9914 4.21648 11.9914 4.04436C11.9914 3.87223 11.8519 3.7327 11.6798 3.7327H11.6373C11.4652 3.7327 11.3256 3.59316 11.3256 3.42104C11.3256 3.24891 11.1861 3.10938 11.014 3.10938H10.6599H9.99224H9.32647H8.65885H7.99491H7.32729H6.65967H6.30556C6.13343 3.10938 5.9939 3.24891 5.9939 3.42104C5.9939 3.59316 5.85436 3.7327 5.68223 3.7327H5.63979C5.46766 3.7327 5.32812 3.87223 5.32812 4.04436C5.32812 4.21648 5.46766 4.35602 5.63979 4.35602H5.9939H6.348Z" fill="#1D1D1B"/>
<path d="M2.35411 3.10938H2.31166C2.13954 3.10938 2 3.24891 2 3.42104C2 3.59316 2.13954 3.7327 2.31166 3.7327H2.35411C2.52623 3.7327 2.66577 3.59316 2.66577 3.42104C2.66577 3.24891 2.52623 3.10938 2.35411 3.10938Z" fill="#1D1D1B"/>
<path d="M3.02002 2.48828H2.97572C2.8036 2.48828 2.66406 2.62782 2.66406 2.79994C2.66406 2.97207 2.8036 3.1116 2.97572 3.1116H3.02002C3.19215 3.1116 3.33168 2.97207 3.33168 2.79994C3.33168 2.62782 3.19215 2.48828 3.02002 2.48828Z" fill="#1D1D1B"/>
<path d="M3.69097 1.86328H3.64667C3.47506 1.86328 3.33594 2.0024 3.33594 2.17402C3.33594 2.34563 3.47506 2.48475 3.64667 2.48475H3.69097C3.86259 2.48475 4.00171 2.34563 4.00171 2.17402C4.00171 2.0024 3.86259 1.86328 3.69097 1.86328Z" fill="#1D1D1B"/>
<path d="M4.35598 1.24609H4.31166C4.13954 1.24609 4 1.38563 4 1.55775C4 1.72988 4.13954 1.86942 4.31166 1.86942H4.35598C4.52811 1.86942 4.66764 1.72988 4.66764 1.55775C4.66764 1.38563 4.52811 1.24609 4.35598 1.24609Z" fill="#1D1D1B"/>
<path d="M5.68394 1.24832C5.85607 1.24832 5.9956 1.10879 5.9956 0.936662C5.9956 0.764536 5.85607 0.625 5.68394 0.625H5.32983H4.97572C4.8036 0.625 4.66406 0.764536 4.66406 0.936662C4.66406 1.10879 4.8036 1.24832 4.97572 1.24832H5.32983H5.68394Z" fill="#1D1D1B"/>
<path d="M7.32558 0.623322H7.9932H8.65714H9.32476H9.99053H10.6582H11.0123C11.1844 0.623322 11.3239 0.483786 11.3239 0.311661C11.3239 0.139535 11.1844 0 11.0123 0H10.6582H9.99053H9.32476H8.65714H7.9932H7.32558H6.65796H6.30385C6.13172 0 5.99219 0.139535 5.99219 0.311661C5.99219 0.483786 6.13172 0.623322 6.30385 0.623322H6.65796H7.32558Z" fill="#1D1D1B"/>
<path d="M17.9956 4.98047H17.6415C17.4694 4.98047 17.3298 5.12 17.3298 5.29213C17.3298 5.46426 17.1903 5.60379 17.0182 5.60379H16.9969C16.8131 5.60379 16.6641 5.75283 16.6641 5.93668V6.22527V6.51385C16.6641 6.6977 16.8131 6.84674 16.9969 6.84674H17.0191C17.1907 6.84674 17.3298 6.70762 17.3298 6.536C17.3298 6.36439 17.469 6.22527 17.6406 6.22527H17.9956H18.0399C18.3831 6.22527 18.6614 5.94702 18.6614 5.60379C18.6614 5.25954 18.3823 4.98047 18.038 4.98047H17.9956Z" fill="#757575"/>
<path d="M17.3273 3.10938H16.6615H15.9939H15.6398C15.4677 3.10938 15.3281 3.24891 15.3281 3.42104C15.3281 3.59316 15.4677 3.7327 15.6398 3.7327H15.6823C15.8544 3.7327 15.9939 3.87223 15.9939 4.04436C15.9939 4.21648 16.1335 4.35602 16.3056 4.35602H16.3499C16.522 4.35602 16.6615 4.21648 16.6615 4.04436C16.6615 3.87223 16.8011 3.7327 16.9732 3.7327H17.3273H17.6814C17.8535 3.7327 17.9931 3.59316 17.9931 3.42104C17.9931 3.24891 17.8535 3.10938 17.6814 3.10938H17.3273Z" fill="#757575"/>
<path d="M9.32818 14.3116H8.66056H7.99662H7.63973C7.46812 14.3116 7.32899 14.1725 7.32899 14.0008C7.32899 13.8292 7.18987 13.6901 7.01826 13.6901H6.66137H6.30634C6.13472 13.6901 5.9956 13.551 5.9956 13.3794C5.9956 13.2078 5.85648 13.0686 5.68487 13.0686H5.64149C5.46937 13.0686 5.32983 12.9291 5.32983 12.757C5.32983 12.5848 5.1903 12.4453 5.01817 12.4453H4.99695C4.8131 12.4453 4.66406 12.5944 4.66406 12.7782V13.0686V13.3572C4.66406 13.5411 4.8131 13.6901 4.99695 13.6901H5.01909C5.19071 13.6901 5.32983 13.8292 5.32983 14.0008C5.32983 14.1725 5.46895 14.3116 5.64057 14.3116H5.9956H6.34971C6.52184 14.3116 6.66137 14.4511 6.66137 14.6232C6.66137 14.7954 6.80091 14.9349 6.97303 14.9349H7.32899H7.99662H8.66056H9.32818H9.99395H10.3499C10.522 14.9349 10.6616 14.7954 10.6616 14.6232C10.6616 14.4511 10.522 14.3116 10.3499 14.3116H9.99395H9.32818Z" fill="#757575"/>
<path d="M10.9748 13.6914C10.8032 13.6914 10.6641 13.8305 10.6641 14.0021C10.6641 14.1738 10.8032 14.3129 10.9748 14.3129H11.3298H11.6849C11.8565 14.3129 11.9956 14.1738 11.9956 14.0021C11.9956 13.8305 11.8565 13.6914 11.6849 13.6914H11.3298H10.9748Z" fill="#757575"/>
<path d="M12.3541 13.0703H12.3117C12.1395 13.0703 12 13.2098 12 13.382C12 13.5541 12.1395 13.6936 12.3117 13.6936H12.3541C12.5262 13.6936 12.6658 13.5541 12.6658 13.382C12.6658 13.2098 12.5262 13.0703 12.3541 13.0703Z" fill="#757575"/>
<path d="M4.66764 11.533C4.66764 11.3487 4.51819 11.1992 4.33382 11.1992C4.14946 11.1992 4 11.3487 4 11.533V11.8225V12.1102C4 12.2946 4.14946 12.444 4.33382 12.444C4.51819 12.444 4.66764 12.2946 4.66764 12.1102V11.8225V11.533Z" fill="#757575"/>
<path d="M4.00171 9.95964V9.33632V9.04773C4.00171 8.86388 3.85267 8.71484 3.66882 8.71484C3.48498 8.71484 3.33594 8.86388 3.33594 9.04773V9.33632V9.95964V10.5793V10.8697C3.33594 11.0535 3.48498 11.2026 3.66882 11.2026C3.85267 11.2026 4.00171 11.0535 4.00171 10.8697V10.5793V9.95964Z" fill="#757575"/>
<path d="M3.69005 7.46875H3.6476C3.47547 7.46875 3.33594 7.60829 3.33594 7.78041C3.33594 7.95254 3.47547 8.09207 3.6476 8.09207H3.69005C3.86217 8.09207 4.00171 7.95254 4.00171 7.78041C4.00171 7.60829 3.86217 7.46875 3.69005 7.46875Z" fill="#757575"/>
<path d="M6.38335 12.7289V7.57697H7.85532V8.31295H8.5913V9.04894H9.32729V8.31295H10.0633V7.57697H11.5352V12.7289H10.0633V9.78492H9.32729V11.2569H8.5913V9.78492H7.85532V12.7289H6.38335Z" fill="black"/>
</svg>
