<svg width="16" height="16" viewBox="0 0 16 16" fill="none" xmlns="http://www.w3.org/2000/svg">
<circle cx="8" cy="8" r="8" fill="#D11C10"/>
<path d="M3.85156 11.2031H4.76982V12.1214H3.85156V11.2031Z" fill="white"/>
<path d="M5.67969 9.36328H6.59795V10.2815H5.67969V9.36328Z" fill="white"/>
<path d="M4.76562 10.2812H5.68389V11.1995H4.76562V10.2812Z" fill="white"/>
<path d="M7.53125 7.53125H8.44951V8.44951H7.53125V7.53125Z" fill="white"/>
<path d="M6.60938 8.44531H7.52764V9.36357H6.60938V8.44531Z" fill="white"/>
<path d="M8.44531 6.61328H9.36357V7.53154H8.44531V6.61328Z" fill="white"/>
<path d="M10.2891 4.78125H11.2073V5.69951H10.2891V4.78125Z" fill="white"/>
<path d="M11.2031 3.85547H12.1214V4.77373H11.2031V3.85547Z" fill="white"/>
<path d="M9.35938 5.69531H10.2776V6.61357H9.35938V5.69531Z" fill="white"/>
<path d="M4.76562 4.76953H5.68389V5.68779H4.76562V4.76953Z" fill="white"/>
<path d="M6.60938 6.60938H7.52764V7.52764H6.60938V6.60938Z" fill="white"/>
<path d="M5.69531 5.69141H6.61357V6.60967H5.69531V5.69141Z" fill="white"/>
<path d="M8.44531 8.44922H9.36357V9.36748H8.44531V8.44922Z" fill="white"/>
<path d="M3.85156 3.85547H4.76982V4.77373H3.85156V3.85547Z" fill="white"/>
<path d="M9.35938 9.36719H10.2776V10.2854H9.35938V9.36719Z" fill="white"/>
<path d="M11.2031 11.207H12.1214V12.1253H11.2031V11.207Z" fill="white"/>
<path d="M10.2891 10.2852H11.2073V11.2034H10.2891V10.2852Z" fill="white"/>
</svg>
