<svg width="99" height="14" viewBox="0 0 99 14" fill="none" xmlns="http://www.w3.org/2000/svg">
<path d="M2.75686 2.08508V11.2504H7.33952V10.3339H8.25606V3.00161H7.33952V2.08508H2.75686ZM0.923799 13.0835V0.252018H8.25606V1.16855H9.17259V2.08508H10.0891V11.2504H9.17259V12.1669H8.25606V13.0835H0.923799ZM18.3379 2.08508H14.6718V3.00161H13.7552V10.3339H14.6718V11.2504H18.3379V10.3339H19.2544V3.00161H18.3379V2.08508ZM13.7552 1.16855V0.252018H19.2544V1.16855H20.171V2.08508H21.0875V11.2504H20.171V12.1669H19.2544V13.0835H13.7552V12.1669H12.8387V11.2504H11.9222V2.08508H12.8387V1.16855H13.7552ZM24.7536 5.75121V13.0835H22.9206V0.252018H24.7536V3.00161H25.6702V3.91815H26.5867V4.83468H27.5032V5.75121H28.4198V6.66774H29.3363V7.58427H30.2528V0.252018H32.0859V13.0835H30.2528V10.3339H29.3363V9.41734H28.4198V8.50081H27.5032V7.58427H26.5867V6.66774H25.6702V5.75121H24.7536ZM40.3347 2.08508H36.6686V3.00161H35.752V10.3339H36.6686V11.2504H40.3347V10.3339H41.2512V3.00161H40.3347V2.08508ZM35.752 1.16855V0.252018H41.2512V1.16855H42.1677V2.08508H43.0843V11.2504H42.1677V12.1669H41.2512V13.0835H35.752V12.1669H34.8355V11.2504H33.919V2.08508H34.8355V1.16855H35.752ZM48.5835 2.08508H44.9173V0.252018H54.0827V2.08508H50.4165V13.0835H48.5835V2.08508ZM57.7488 7.58427V13.0835H55.9157V0.252018H57.7488V5.75121H63.248V0.252018H65.081V13.0835H63.248V7.58427H57.7488ZM68.7472 13.0835V11.2504H70.5802V2.08508H68.7472V0.252018H74.2464V2.08508H72.4133V11.2504H74.2464V13.0835H68.7472ZM79.7456 5.75121V13.0835H77.9125V0.252018H79.7456V3.00161H80.6621V3.91815H81.5786V4.83468H82.4952V5.75121H83.4117V6.66774H84.3282V7.58427H85.2448V0.252018H87.0778V13.0835H85.2448V10.3339H84.3282V9.41734H83.4117V8.50081H82.4952V7.58427H81.5786V6.66774H80.6621V5.75121H79.7456ZM97.1597 2.08508H98.0762V3.91815H96.2431V3.00161H95.3266V2.08508H91.6605V3.00161H90.744V10.3339H91.6605V11.2504H95.3266V10.3339H96.2431V7.58427H93.4935V5.75121H98.0762V11.2504H97.1597V12.1669H96.2431V13.0835H90.744V12.1669H89.8274V11.2504H88.9109V2.08508H89.8274V1.16855H90.744V0.252018H96.2431V1.16855H97.1597V2.08508Z" fill="#09BD1B"/>
</svg>
