<svg width="50" height="57" viewBox="0 0 50 57" fill="none" xmlns="http://www.w3.org/2000/svg">
<g opacity="0.3">
<path d="M7.30045 56.1454L0.851562 49.7254V13.4903L7.30045 7.07031H43.5066L49.9555 13.4903V49.7254L43.5066 56.1454H7.30045Z" fill="black"/>
<path d="M7.30045 49.4633L0.851562 43.0144V6.80822L7.30045 0.359375H43.5066L49.9555 6.80822V43.0144L43.5066 49.4633H7.30045Z" fill="black"/>
</g>
<g opacity="0.8">
<path d="M7.30045 52.7899L0.851562 46.3699V10.1348L7.30045 3.71484H43.5066L49.9555 10.1348V46.3699L43.5066 52.7899H7.30045Z" fill="black"/>
<path d="M7.30045 49.4633L0.851562 43.0144V6.80822L7.30045 0.359375H43.5066L49.9555 6.80822V43.0144L43.5066 49.4633H7.30045Z" fill="black"/>
</g>
<path d="M43.2946 52.3254H7.46435C5.0641 49.9252 3.70494 48.566 1.30469 46.1657V10.3355C3.70494 7.93523 5.0641 6.57603 7.46435 4.17578H43.2946C45.6949 6.57603 47.0541 7.93523 49.4543 10.3355V46.1657C47.0541 48.566 45.6949 49.9252 43.2946 52.3254Z" fill="#404043"/>
<path d="M43.2946 48.9699H7.46435C5.0641 46.5697 3.70494 45.2105 1.30469 42.8102V6.98001C3.70494 4.57976 5.0641 3.22056 7.46435 0.820312H43.2946C45.6949 3.22056 47.0541 4.57976 49.4543 6.98001V42.8102C47.0541 45.2105 45.6949 46.5697 43.2946 48.9699Z" fill="#404043"/>
<path d="M43.2946 48.9738H7.46435C5.0641 46.5736 3.70494 45.2144 1.30469 42.8141V6.98391C3.70494 4.58366 5.0641 3.22447 7.46435 0.824219H43.2946C45.6949 3.22447 47.0541 4.58366 49.4543 6.98391V42.8141C47.0541 45.2144 45.6949 46.5736 43.2946 48.9738Z" fill="#212121"/>
<g opacity="0.2">
<path d="M42.5716 2.58668L44.3068 4.32181L47.7192 7.73423V42.1186L44.3068 45.5309L42.5716 47.2661H8.18731L5.23762 44.3164L3.06872 42.1475V7.76314L5.23762 5.59423L8.18731 2.64454H42.5716M43.2946 0.851562H7.46435C5.0641 3.25181 3.70494 4.61101 1.30469 7.01126V42.8415C3.70494 45.2418 5.0641 46.6009 7.46435 49.0012H43.2946C45.6949 46.6009 47.0541 45.2418 49.4543 42.8415V7.01126C47.0541 4.61101 45.6949 3.25181 43.2946 0.851562Z" fill="black"/>
</g>
<path d="M42.803 2.09117L44.6827 3.97089L48.2397 7.52787V42.3171L44.6827 45.8741L42.803 47.7538H8.01381L5.29545 45.0354L2.57708 42.3171V7.52787L5.29545 4.80954L8.01381 2.09117H42.803ZM43.2946 0.847656H7.46435C5.0641 3.24791 3.70494 4.6071 1.30469 7.00735V42.8376C3.70494 45.2379 5.0641 46.597 7.46435 48.9973H43.2946C45.6949 46.597 47.0541 45.2379 49.4543 42.8376V7.00735C47.0541 4.6071 45.6949 3.24791 43.2946 0.847656Z" fill="#212121"/>
<path d="M28.533 23.3425V22.2977H29.5777V21.253H30.6225V20.2082H31.6673V19.1634H32.712V18.1187H33.7568V17.0739H34.8016V16.0291H35.8463V14.9844H32.712V16.0291H31.6673V17.0739H30.6225V18.1187H29.5777V19.1634H28.533V20.2082H27.4882V21.253H25.3987V20.2082H24.3539V19.1634H23.3091V17.0739H22.2644V16.0291H21.2196V14.9844H13.9062V16.0291H14.951V17.0739H15.9958V18.1187H17.0405V20.2082H18.0853V21.253H19.1301V23.3425H20.1748V24.3873H21.2196V26.4768H22.2644V27.5216H21.2196V28.5663H20.1748V29.6111H19.1301V30.6559H18.0853V31.7006H17.0405V32.7454H15.9958V33.7901H14.951V34.8349H13.9062V35.8797H17.0405V34.8349H18.0853V33.7901H19.1301V32.7454H20.1748V31.7006H21.2196V30.6559H22.2644V29.6111H24.3539V30.6559H25.3987V31.7006H26.4434V33.7901H27.4882V34.8349H28.533V35.8797H35.8463V34.8349H34.8016V33.7901H33.7568V32.7454H32.712V30.6559H31.6673V29.6111H30.6225V27.5216H29.5777V26.4768H28.533V24.3873H27.4882V23.3425H28.533ZM28.533 27.5216V28.5663H29.5777V30.6559H30.6225V31.7006H31.6673V33.7901H28.533V31.7006H27.4882V30.6559H26.4434V29.6111H25.3987V27.5216H24.3539V26.4768H23.3091V25.432H22.2644V23.3425H21.2196V22.2977H20.1748V20.2082H19.1301V19.1634H18.0853V17.0739H21.2196V18.1187H22.2644V20.2082H23.3091V21.253H24.3539V23.3425H25.3987V24.3873H26.4434V25.432H27.4882V27.5216H28.533Z" fill="white"/>
</svg>
