<svg width="34" height="24" viewBox="0 0 34 24" fill="none" xmlns="http://www.w3.org/2000/svg">
<path d="M0.519231 4.15385C0.519231 2.14651 2.1465 0.519231 4.15385 0.519231H29.0765C31.0838 0.519231 32.7111 2.1465 32.7111 4.15385V19.7304C32.7111 21.7378 31.0838 23.3651 29.0765 23.3651H4.15385C2.1465 23.3651 0.519231 21.7378 0.519231 19.7304V4.15385Z" fill="#12343F" stroke="#00AEEF" stroke-width="1.03846"/>
<path d="M22.75 9V8.375H11.5V7.125H22.75V5.875H22.125V5.25H10.25V5.875H9.625V17.125H10.25V17.75H22.75V17.125H23.375V9H22.75ZM22.125 13.375H21.5V14H20.25V13.375H19.625V12.125H20.25V11.5H21.5V12.125H22.125V13.375Z" fill="#00AEEF"/>
</svg>
